<?xml version="1.0" encoding="utf-8"?>
<!-- Generator: Adobe Illustrator 21.1.0, SVG Export Plug-In . SVG Version: 6.00 Build 0)  -->
<svg version="1.1" id="Layer_1" xmlns="http://www.w3.org/2000/svg" xmlns:xlink="http://www.w3.org/1999/xlink" x="0px" y="0px"
	 viewBox="0 0 985.8 5.4" style="enable-background:new 0 0 985.8 5.4;" xml:space="preserve">
<style type="text/css">
	.st0{fill:#E84F35;}
	.st1{fill:#9CD6F0;}
</style>
<polygon id="Fill-1" class="st0" points="19.7,0 19.7,5.4 20.2,5.4 20.2,0 "/>
<polygon id="Fill-2" class="st0" points="29.5,0 29.5,5.4 30,5.4 30,0 "/>
<polygon id="Fill-3" class="st0" points="49.2,0 49.2,5.4 49.7,5.4 49.7,0 "/>
<polygon id="Fill-4" class="st0" points="59,0 59,5.4 59.5,5.4 59.5,0 "/>
<polygon id="Fill-5" class="st0" points="68.8,0 68.8,5.4 69.3,5.4 69.3,0 "/>
<polygon id="Fill-6" class="st0" points="78.6,0 78.6,5.4 79.1,5.4 79.1,0 "/>
<polygon id="Fill-7" class="st0" points="88.4,0 88.4,5.4 88.9,5.4 88.9,0 "/>
<polygon id="Fill-8" class="st0" points="98.2,0 98.2,5.4 98.7,5.4 98.7,0 "/>
<polygon id="Fill-9" class="st0" points="117.8,0 117.8,5.4 118.3,5.4 118.3,0 "/>
<polygon id="Fill-10" class="st0" points="127.6,0 127.6,5.4 128.1,5.4 128.1,0 "/>
<polygon id="Fill-11" class="st0" points="147.3,0 147.3,5.4 147.8,5.4 147.8,0 "/>
<polygon id="Fill-12" class="st0" points="157.1,0 157.1,5.4 157.6,5.4 157.6,0 "/>
<polygon id="Fill-13" class="st0" points="166.9,0 166.9,5.4 167.4,5.4 167.4,0 "/>
<polygon id="Fill-14" class="st0" points="186.5,0 186.5,5.4 187,5.4 187,0 "/>
<polygon id="Fill-15" class="st0" points="196.3,0 196.3,5.4 196.8,5.4 196.8,0 "/>
<polygon id="Fill-16" class="st0" points="206.1,0 206.1,5.4 206.6,5.4 206.6,0 "/>
<polygon id="Fill-17" class="st0" points="215.9,0 215.9,5.4 216.4,5.4 216.4,0 "/>
<polygon id="Fill-18" class="st0" points="225.7,0 225.7,5.4 226.2,5.4 226.2,0 "/>
<polygon id="Fill-19" class="st0" points="245.4,0 245.4,5.4 245.9,5.4 245.9,0 "/>
<polygon id="Fill-20" class="st0" points="255.2,0 255.2,5.4 255.8,5.4 255.8,0 "/>
<polygon id="Fill-21" class="st0" points="265.1,0 265.1,5.4 265.7,5.4 265.7,0 "/>
<polygon id="Fill-22" class="st0" points="284.9,0 284.9,5.4 285.6,5.4 285.6,0 "/>
<polygon id="Fill-23" class="st0" points="294.9,0 294.9,5.4 295.7,5.4 295.7,0 "/>
<polygon id="Fill-24" class="st0" points="305,0 305,5.4 305.7,5.4 305.7,0 "/>
<polygon id="Fill-25" class="st0" points="315,0 315,5.4 315.7,5.4 315.7,0 "/>
<polygon id="Fill-26" class="st0" points="325,0 325,5.4 325.7,5.4 325.7,0 "/>
<polygon id="Fill-27" class="st0" points="335.1,0 335.1,5.4 335.8,5.4 335.8,0 "/>
<polygon id="Fill-28" class="st0" points="345.1,0 345.1,5.4 345.9,5.4 345.9,0 "/>
<polygon id="Fill-29" class="st0" points="365.3,0 365.3,5.4 366.1,5.4 366.1,0 "/>
<polygon id="Fill-30" class="st0" points="385.5,0 385.5,5.4 386.3,5.4 386.3,0 "/>
<polygon id="Fill-31" class="st0" points="395.6,0 395.6,5.4 396.5,5.4 396.5,0 "/>
<polygon id="Fill-32" class="st0" points="405.8,0 405.8,5.4 406.6,5.4 406.6,0 "/>
<polygon id="Fill-33" class="st0" points="415.9,0 415.9,5.4 416.7,5.4 416.7,0 "/>
<polygon id="Fill-34" class="st0" points="436.3,0 436.3,5.4 437.2,5.4 437.2,0 "/>
<polygon id="Fill-35" class="st0" points="446.5,0 446.5,5.4 447.4,5.4 447.4,0 "/>
<polygon id="Fill-36" class="st0" points="456.7,0 456.7,5.4 457.7,5.4 457.7,0 "/>
<polygon id="Fill-37" class="st0" points="467,0 467,5.4 467.9,5.4 467.9,0 "/>
<polygon id="Fill-38" class="st0" points="477.2,0 477.2,5.4 478.1,5.4 478.1,0 "/>
<polygon id="Fill-34_1_" class="st0" points="426.1,0 426.1,5.4 427,5.4 427,0 "/>
<polygon id="Fill-30_1_" class="st0" points="375.4,0 375.4,5.4 376.2,5.4 376.2,0 "/>
<polygon id="Fill-19_1_" class="st0" points="235.6,0 235.6,5.4 236.1,5.4 236.1,0 "/>
<polygon id="Fill-14_1_" class="st0" points="176.7,0 176.7,5.4 177.2,5.4 177.2,0 "/>
<polygon id="Fill-9_1_" class="st0" points="108,0 108,5.4 108.5,5.4 108.5,0 "/>
<polygon id="Fill-22_1_" class="st0" points="275,0 275,5.4 275.6,5.4 275.6,0 "/>
<polygon id="Fill-29_1_" class="st0" points="355.2,0 355.2,5.4 356,5.4 356,0 "/>
<polygon id="Fill-11_1_" class="st0" points="137.4,0 137.4,5.4 137.9,5.4 137.9,0 "/>
<polygon id="Fill-3_1_" class="st0" points="39.3,0 39.3,5.4 39.8,5.4 39.8,0 "/>
<polygon id="Fill-1_1_" class="st0" points="0,0 0,5.4 0.6,5.4 0.6,0 "/>
<polygon id="Fill-2_1_" class="st0" points="9.9,0 9.9,5.4 10.4,5.4 10.4,0 "/>
<polygon id="Fill-39" class="st1" points="487.4,0 487.4,5.4 488.4,5.4 488.4,0 "/>
<polygon id="Fill-40" class="st1" points="497.7,0 497.7,5.4 498.7,5.4 498.7,0 "/>
<polygon id="Fill-41" class="st1" points="508,0 508,5.4 509,5.4 509,0 "/>
<polygon id="Fill-41_1_" class="st1" points="518.3,0 518.3,5.4 519.4,5.4 519.4,0 "/>
<polygon id="Fill-42" class="st1" points="528.8,0 528.8,5.4 529.9,5.4 529.9,0 "/>
<polygon id="Fill-43" class="st1" points="539.2,0 539.2,5.4 540.3,5.4 540.3,0 "/>
<polygon id="Fill-44" class="st1" points="549.6,0 549.6,5.4 550.7,5.4 550.7,0 "/>
<polygon id="Fill-45" class="st1" points="560,0 560,5.4 561.1,5.4 561.1,0 "/>
<polygon id="Fill-46" class="st1" points="570.4,0 570.4,5.4 571.6,5.4 571.6,0 "/>
<polygon id="Fill-47" class="st1" points="580.9,0 580.9,5.4 582.1,5.4 582.1,0 "/>
<polygon id="Fill-48" class="st1" points="591.4,0 591.4,5.4 592.6,5.4 592.6,0 "/>
<polygon id="Fill-49" class="st1" points="601.9,0 601.9,5.4 603.1,5.4 603.1,0 "/>
<polygon id="Fill-50" class="st1" points="612.4,0 612.4,5.4 613.6,5.4 613.6,0 "/>
<polygon id="Fill-51" class="st1" points="623,0 623,5.4 624.2,5.4 624.2,0 "/>
<polygon id="Fill-52" class="st1" points="633.5,0 633.5,5.4 634.8,5.4 634.8,0 "/>
<polygon id="Fill-53" class="st1" points="644.1,0 644.1,5.4 645.4,5.4 645.4,0 "/>
<polygon id="Fill-54" class="st1" points="654.7,0 654.7,5.4 656.1,5.4 656.1,0 "/>
<polygon id="Fill-55" class="st1" points="665.4,0 665.4,5.4 666.7,5.4 666.7,0 "/>
<polygon id="Fill-56" class="st1" points="676,0 676,5.4 677.3,5.4 677.3,0 "/>
<polygon id="Fill-57" class="st1" points="686.6,0 686.6,5.4 688,5.4 688,0 "/>
<polygon id="Fill-58" class="st1" points="697.3,0 697.3,5.4 698.7,5.4 698.7,0 "/>
<polygon id="Fill-59" class="st1" points="708,0 708,5.4 709.5,5.4 709.5,0 "/>
<polygon id="Fill-60" class="st1" points="718.8,0 718.8,5.4 720.3,5.4 720.3,0 "/>
<polygon id="Fill-61" class="st1" points="729.7,0 729.7,5.4 731.2,5.4 731.2,0 "/>
<polygon id="Fill-62" class="st1" points="740.5,0 740.5,5.4 742,5.4 742,0 "/>
<polygon id="Fill-63" class="st1" points="751.3,0 751.3,5.4 752.8,5.4 752.8,0 "/>
<polygon id="Fill-64" class="st1" points="762.1,0 762.1,5.4 763.7,5.4 763.7,0 "/>
<polygon id="Fill-65" class="st1" points="773,0 773,5.4 774.6,5.4 774.6,0 "/>
<polygon id="Fill-66" class="st1" points="783.9,0 783.9,5.4 785.5,5.4 785.5,0 "/>
<polygon id="Fill-67" class="st1" points="794.8,0 794.8,5.4 796.4,5.4 796.4,0 "/>
<polygon id="Fill-68" class="st1" points="805.7,0 805.7,5.4 807.3,5.4 807.3,0 "/>
<polygon id="Fill-69" class="st1" points="816.6,0 816.6,5.4 818.3,5.4 818.3,0 "/>
<polygon id="Fill-70" class="st1" points="827.7,0 827.7,5.4 829.4,5.4 829.4,0 "/>
<polygon id="Fill-71" class="st1" points="838.7,0 838.7,5.4 840.4,5.4 840.4,0 "/>
<polygon id="Fill-72" class="st1" points="849.7,0 849.7,5.4 851.4,5.4 851.4,0 "/>
<polygon id="Fill-73" class="st1" points="860.7,0 860.7,5.4 862.5,5.4 862.5,0 "/>
<polygon id="Fill-74" class="st1" points="871.8,0 871.8,5.4 873.6,5.4 873.6,0 "/>
<polygon id="Fill-75" class="st1" points="882.9,0 882.9,5.4 884.7,5.4 884.7,0 "/>
<polygon id="Fill-76" class="st1" points="894,0 894,5.4 895.8,5.4 895.8,0 "/>
<polygon id="Fill-77" class="st1" points="905.1,0 905.1,5.4 906.9,5.4 906.9,0 "/>
<polygon id="Fill-78" class="st1" points="916.2,0 916.2,5.4 918.1,5.4 918.1,0 "/>
<polygon id="Fill-79" class="st1" points="927.4,0 927.4,5.4 929.3,5.4 929.3,0 "/>
<polygon id="Fill-80" class="st1" points="938.7,0 938.7,5.4 940.6,5.4 940.6,0 "/>
<polygon id="Fill-81" class="st1" points="949.9,0 949.9,5.4 951.9,5.4 951.9,0 "/>
<polygon id="Fill-82" class="st1" points="961.2,0 961.2,5.4 963.2,5.4 963.2,0 "/>
<polygon id="Fill-81_1_" class="st1" points="972.5,0 972.5,5.4 974.5,5.4 974.5,0 "/>
<polygon id="Fill-82_1_" class="st1" points="983.8,0 983.8,5.4 985.8,5.4 985.8,0 "/>
</svg>
