<?xml version="1.0" encoding="utf-8"?>
<!-- Generator: Adobe Illustrator 21.1.0, SVG Export Plug-In . SVG Version: 6.00 Build 0)  -->
<svg version="1.1" id="Layer_1" xmlns="http://www.w3.org/2000/svg" xmlns:xlink="http://www.w3.org/1999/xlink" x="0px" y="0px"
	 viewBox="0 0 946 7" style="enable-background:new 0 0 946 7;" xml:space="preserve">
<style type="text/css">
	.st0{fill:#E84F35;}
	.st1{fill:#9CD6F0;}
</style>
<polygon id="Fill-1" class="st0" points="1.6,1.1 1.6,6.5 2.2,6.5 2.2,1.1 "/>
<polygon id="Fill-2" class="st0" points="11.8,1.1 11.8,6.5 12.3,6.5 12.3,1.1 "/>
<polygon id="Fill-3" class="st0" points="32.1,1.1 32.1,6.5 32.6,6.5 32.6,1.1 "/>
<polygon id="Fill-4" class="st0" points="42.2,1.1 42.2,6.5 42.7,6.5 42.7,1.1 "/>
<polygon id="Fill-5" class="st0" points="52.3,1.1 52.3,6.5 52.8,6.5 52.8,1.1 "/>
<polygon id="Fill-6" class="st0" points="62.4,1.1 62.4,6.5 62.9,6.5 62.9,1.1 "/>
<polygon id="Fill-7" class="st0" points="72.6,1.1 72.6,6.5 73.1,6.5 73.1,1.1 "/>
<polygon id="Fill-8" class="st0" points="82.7,1.1 82.7,6.5 83.2,6.5 83.2,1.1 "/>
<polygon id="Fill-9" class="st0" points="102.9,1.1 102.9,6.5 103.4,6.5 103.4,1.1 "/>
<polygon id="Fill-10" class="st0" points="113.1,1.1 113.1,6.5 113.6,6.5 113.6,1.1 "/>
<polygon id="Fill-11" class="st0" points="133.4,1.1 133.4,6.5 133.9,6.5 133.9,1.1 "/>
<polygon id="Fill-12" class="st0" points="143.4,1.1 143.4,6.5 143.9,6.5 143.9,1.1 "/>
<polygon id="Fill-13" class="st0" points="153.6,1.1 153.6,6.5 154.1,6.5 154.1,1.1 "/>
<polygon id="Fill-14" class="st0" points="173.9,1.1 173.9,6.5 174.4,6.5 174.4,1.1 "/>
<polygon id="Fill-15" class="st0" points="183.9,1.1 183.9,6.5 184.4,6.5 184.4,1.1 "/>
<polygon id="Fill-16" class="st0" points="194.1,1.1 194.1,6.5 194.6,6.5 194.6,1.1 "/>
<polygon id="Fill-17" class="st0" points="204.2,1.1 204.2,6.5 204.7,6.5 204.7,1.1 "/>
<polygon id="Fill-18" class="st0" points="214.3,1.1 214.3,6.5 214.8,6.5 214.8,1.1 "/>
<polygon id="Fill-19" class="st0" points="234.6,1.1 234.6,6.5 235.1,6.5 235.1,1.1 "/>
<polygon id="Fill-20" class="st0" points="244.7,1.1 244.7,6.5 245.3,6.5 245.3,1.1 "/>
<polygon id="Fill-21" class="st0" points="254.8,1.1 254.8,6.5 255.4,6.5 255.4,1.1 "/>
<polygon id="Fill-22" class="st0" points="275,1.1 275,6.5 275.7,6.5 275.7,1.1 "/>
<polygon id="Fill-23" class="st0" points="285.1,1.1 285.1,6.5 285.9,6.5 285.9,1.1 "/>
<polygon id="Fill-24" class="st0" points="295.2,1.1 295.2,6.5 295.9,6.5 295.9,1.1 "/>
<polygon id="Fill-25" class="st0" points="305.4,1.1 305.4,6.5 306.1,6.5 306.1,1.1 "/>
<polygon id="Fill-26" class="st0" points="315.5,1.1 315.5,6.5 316.2,6.5 316.2,1.1 "/>
<polygon id="Fill-27" class="st0" points="325.6,1.1 325.6,6.5 326.3,6.5 326.3,1.1 "/>
<polygon id="Fill-28" class="st0" points="335.7,1.1 335.7,6.5 336.5,6.5 336.5,1.1 "/>
<polygon id="Fill-29" class="st0" points="356,1.1 356,6.5 356.8,6.5 356.8,1.1 "/>
<polygon id="Fill-30" class="st0" points="376.2,1.1 376.2,6.5 377,6.5 377,1.1 "/>
<polygon id="Fill-31" class="st0" points="386.3,1.1 386.3,6.5 387.2,6.5 387.2,1.1 "/>
<polygon id="Fill-32" class="st0" points="396.5,1.1 396.5,6.5 397.3,6.5 397.3,1.1 "/>
<polygon id="Fill-33" class="st0" points="406.6,1.1 406.6,6.5 407.4,6.5 407.4,1.1 "/>
<polygon id="Fill-34" class="st0" points="426.8,1.1 426.8,6.5 427.7,6.5 427.7,1.1 "/>
<polygon id="Fill-35" class="st0" points="436.9,1.1 436.9,6.5 437.8,6.5 437.8,1.1 "/>
<polygon id="Fill-36" class="st0" points="447,1.1 447,6.5 448,6.5 448,1.1 "/>
<polygon id="Fill-37" class="st0" points="457.2,1.1 457.2,6.5 458.1,6.5 458.1,1.1 "/>
<polygon id="Fill-38" class="st0" points="467.3,1.1 467.3,6.5 468.2,6.5 468.2,1.1 "/>
<polygon id="Fill-34_1_" class="st0" points="416.7,1.1 416.7,6.5 417.6,6.5 417.6,1.1 "/>
<polygon id="Fill-30_1_" class="st0" points="366.1,1.1 366.1,6.5 366.9,6.5 366.9,1.1 "/>
<polygon id="Fill-19_1_" class="st0" points="224.4,1.1 224.4,6.5 224.9,6.5 224.9,1.1 "/>
<polygon id="Fill-14_1_" class="st0" points="163.7,1.1 163.7,6.5 164.2,6.5 164.2,1.1 "/>
<polygon id="Fill-9_1_" class="st0" points="92.8,1.1 92.8,6.5 93.3,6.5 93.3,1.1 "/>
<polygon id="Fill-22_1_" class="st0" points="264.9,1.1 264.9,6.5 265.5,6.5 265.5,1.1 "/>
<polygon id="Fill-29_1_" class="st0" points="345.8,1.1 345.8,6.5 346.6,6.5 346.6,1.1 "/>
<polygon id="Fill-11_1_" class="st0" points="123.1,1.1 123.1,6.5 123.6,6.5 123.6,1.1 "/>
<polygon id="Fill-3_1_" class="st0" points="22,1.1 22,6.5 22.5,6.5 22.5,1.1 "/>
<polygon id="Fill-39" class="st1" points="477.4,1.1 477.4,6.5 478.4,6.5 478.4,1.1 "/>
<polygon id="Fill-40" class="st1" points="487.5,1.1 487.5,6.5 488.5,6.5 488.5,1.1 "/>
<polygon id="Fill-41" class="st1" points="497.7,1.1 497.7,6.5 498.7,6.5 498.7,1.1 "/>
<polygon id="Fill-41_1_" class="st1" points="507.8,1.1 507.8,6.5 508.9,6.5 508.9,1.1 "/>
<polygon id="Fill-42" class="st1" points="518,1.1 518,6.5 519.1,6.5 519.1,1.1 "/>
<polygon id="Fill-43" class="st1" points="528.2,1.1 528.2,6.5 529.3,6.5 529.3,1.1 "/>
<polygon id="Fill-44" class="st1" points="538.4,1.1 538.4,6.5 539.5,6.5 539.5,1.1 "/>
<polygon id="Fill-45" class="st1" points="548.7,1.1 548.7,6.5 549.8,6.5 549.8,1.1 "/>
<polygon id="Fill-46" class="st1" points="558.9,1.1 558.9,6.5 560.1,6.5 560.1,1.1 "/>
<polygon id="Fill-47" class="st1" points="569.2,1.1 569.2,6.5 570.4,6.5 570.4,1.1 "/>
<polygon id="Fill-48" class="st1" points="579.5,1.1 579.5,6.5 580.7,6.5 580.7,1.1 "/>
<polygon id="Fill-49" class="st1" points="589.9,1.1 589.9,6.5 591.1,6.5 591.1,1.1 "/>
<polygon id="Fill-50" class="st1" points="600.2,1.1 600.2,6.5 601.4,6.5 601.4,1.1 "/>
<polygon id="Fill-51" class="st1" points="610.6,1.1 610.6,6.5 611.8,6.5 611.8,1.1 "/>
<polygon id="Fill-52" class="st1" points="621,1.1 621,6.5 622.3,6.5 622.3,1.1 "/>
<polygon id="Fill-53" class="st1" points="631.4,1.1 631.4,6.5 632.7,6.5 632.7,1.1 "/>
<polygon id="Fill-54" class="st1" points="641.8,1.1 641.8,6.5 643.2,6.5 643.2,1.1 "/>
<polygon id="Fill-55" class="st1" points="652.3,1.1 652.3,6.5 653.6,6.5 653.6,1.1 "/>
<polygon id="Fill-56" class="st1" points="662.8,1.1 662.8,6.5 664.1,6.5 664.1,1.1 "/>
<polygon id="Fill-57" class="st1" points="673.3,1.1 673.3,6.5 674.7,6.5 674.7,1.1 "/>
<polygon id="Fill-58" class="st1" points="683.8,1.1 683.8,6.5 685.2,6.5 685.2,1.1 "/>
<polygon id="Fill-59" class="st1" points="694.3,1.1 694.3,6.5 695.8,6.5 695.8,1.1 "/>
<polygon id="Fill-60" class="st1" points="704.9,1.1 704.9,6.5 706.4,6.5 706.4,1.1 "/>
<polygon id="Fill-61" class="st1" points="715.5,1.1 715.5,6.5 717,6.5 717,1.1 "/>
<polygon id="Fill-62" class="st1" points="726.1,1.1 726.1,6.5 727.6,6.5 727.6,1.1 "/>
<polygon id="Fill-63" class="st1" points="736.8,1.1 736.8,6.5 738.3,6.5 738.3,1.1 "/>
<polygon id="Fill-64" class="st1" points="747.4,1.1 747.4,6.5 749,6.5 749,1.1 "/>
<polygon id="Fill-65" class="st1" points="758.1,1.1 758.1,6.5 759.7,6.5 759.7,1.1 "/>
<polygon id="Fill-66" class="st1" points="768.8,1.1 768.8,6.5 770.4,6.5 770.4,1.1 "/>
<polygon id="Fill-67" class="st1" points="779.5,1.1 779.5,6.5 781.1,6.5 781.1,1.1 "/>
<polygon id="Fill-68" class="st1" points="790.3,1.1 790.3,6.5 791.9,6.5 791.9,1.1 "/>
<polygon id="Fill-69" class="st1" points="801,1.1 801,6.5 802.7,6.5 802.7,1.1 "/>
<polygon id="Fill-70" class="st1" points="811.8,1.1 811.8,6.5 813.5,6.5 813.5,1.1 "/>
<polygon id="Fill-71" class="st1" points="822.6,1.1 822.6,6.5 824.3,6.5 824.3,1.1 "/>
<polygon id="Fill-72" class="st1" points="833.5,1.1 833.5,6.5 835.2,6.5 835.2,1.1 "/>
<polygon id="Fill-73" class="st1" points="844.3,1.1 844.3,6.5 846.1,6.5 846.1,1.1 "/>
<polygon id="Fill-74" class="st1" points="855.2,1.1 855.2,6.5 857,6.5 857,1.1 "/>
<polygon id="Fill-75" class="st1" points="866.1,1.1 866.1,6.5 867.9,6.5 867.9,1.1 "/>
<polygon id="Fill-76" class="st1" points="877,1.1 877,6.5 878.8,6.5 878.8,1.1 "/>
<polygon id="Fill-77" class="st1" points="888,1.1 888,6.5 889.8,6.5 889.8,1.1 "/>
<polygon id="Fill-78" class="st1" points="898.9,1.1 898.9,6.5 900.8,6.5 900.8,1.1 "/>
<polygon id="Fill-79" class="st1" points="909.9,1.1 909.9,6.5 911.8,6.5 911.8,1.1 "/>
<polygon id="Fill-80" class="st1" points="920.9,1.1 920.9,6.5 922.8,6.5 922.8,1.1 "/>
<polygon id="Fill-81" class="st1" points="931.9,1.1 931.9,6.5 933.9,6.5 933.9,1.1 "/>
<polygon id="Fill-82" class="st1" points="943,1.1 943,6.5 944.9,6.5 944.9,1.1 "/>
</svg>
