<?xml version="1.0" encoding="UTF-8"?>
<svg width="6px" height="669px" viewBox="0 0 6 669" version="1.1" xmlns="http://www.w3.org/2000/svg" xmlns:xlink="http://www.w3.org/1999/xlink">
    <!-- Generator: Sketch 51.3 (57544) - http://www.bohemiancoding.com/sketch -->
    <title>dashed_line/vertical</title>
    <desc>Created with Sketch.</desc>
    <defs></defs>
    <g id="dashed_line/vertical" stroke="none" stroke-width="1" fill="none" fill-rule="evenodd">
        <g id="Group-4">
            <polygon id="Fill-1" fill="#E84F35" points="0.584333333 668.001495 6 668.001495 6 667.839737 0.584333333 667.839737"></polygon>
            <polygon id="Fill-2" fill="#E84F35" points="0.584333333 661.534731 6 661.534731 6 661.351006 0.584333333 661.351006"></polygon>
            <polygon id="Fill-3" fill="#E84F35" points="0.584333333 655.067967 6 655.067967 6 654.862275 0.584333333 654.862275"></polygon>
            <polygon id="Fill-4" fill="#E84F35" points="0.584333333 648.601204 6 648.601204 6 648.373545 0.584333333 648.373545"></polygon>
            <polygon id="Fill-5" fill="#E84F35" points="0.584333333 642.133442 6 642.133442 6 641.884814 0.584333333 641.884814"></polygon>
            <polygon id="Fill-6" fill="#E84F35" points="0.584333333 635.667676 6 635.667676 6 635.396083 0.584333333 635.396083"></polygon>
            <polygon id="Fill-7" fill="#E84F35" points="0.584333333 629.199914 6 629.199914 6 628.907352 0.584333333 628.907352"></polygon>
            <polygon id="Fill-8" fill="#E84F35" points="0.584333333 622.734149 6 622.734149 6 622.418621 0.584333333 622.418621"></polygon>
            <polygon id="Fill-9" fill="#E84F35" points="0.584333333 609.778655 6 609.778655 6 609.44116 0.584333333 609.44116"></polygon>
            <polygon id="Fill-10" fill="#E84F35" points="0.584333333 603.310893 6 603.310893 6 602.952429 0.584333333 602.952429"></polygon>
            <polygon id="Fill-11" fill="#E84F35" points="0.584333333 590.356397 6 590.356397 6 589.974968 0.584333333 589.974968"></polygon>
            <polygon id="Fill-12" fill="#E84F35" points="0.584333333 583.889633 6 583.889633 6 583.486237 0.584333333 583.486237"></polygon>
            <polygon id="Fill-13" fill="#E84F35" points="0.584333333 577.422869 6 577.422869 6 576.997506 0.584333333 576.997506"></polygon>
            <polygon id="Fill-14" fill="#E84F35" points="0.584333333 564.466376 6 564.466376 6 564.020045 0.584333333 564.020045"></polygon>
            <polygon id="Fill-15" fill="#E84F35" points="0.584333333 557.999613 6 557.999613 6 557.531314 0.584333333 557.531314"></polygon>
            <polygon id="Fill-16" fill="#E84F35" points="0.584333333 551.532849 6 551.532849 6 551.042583 0.584333333 551.042583"></polygon>
            <polygon id="Fill-17" fill="#E84F35" points="0.584333333 545.067084 6 545.067084 6 544.553852 0.584333333 544.553852"></polygon>
            <polygon id="Fill-18" fill="#E84F35" points="0.584333333 538.60032 6 538.60032 6 538.065121 0.584333333 538.065121"></polygon>
            <polygon id="Fill-19" fill="#E84F35" points="0.584333333 525.643827 6 525.643827 6 525.08766 0.584333333 525.08766"></polygon>
            <polygon id="Fill-20" fill="#E84F35" points="0.584333333 519.177064 6 519.177064 6 518.598929 0.584333333 518.598929"></polygon>
            <polygon id="Fill-21" fill="#E84F35" points="0.584333333 512.7103 6 512.7103 6 512.110198 0.584333333 512.110198"></polygon>
            <polygon id="Fill-22" fill="#E84F35" points="0.584333333 499.754806 6 499.754806 6 499.132737 0.584333333 499.132737"></polygon>
            <polygon id="Fill-23" fill="#E84F35" points="0.584333333 493.288042 6 493.288042 6 492.644006 0.584333333 492.644006"></polygon>
            <polygon id="Fill-24" fill="#E84F35" points="0.584333333 486.821278 6 486.821278 6 486.155275 0.584333333 486.155275"></polygon>
            <polygon id="Fill-25" fill="#E84F35" points="0.584333333 480.354515 6 480.354515 6 479.666544 0.584333333 479.666544"></polygon>
            <polygon id="Fill-26" fill="#E84F35" points="0.584333333 473.887751 6 473.887751 6 473.177814 0.584333333 473.177814"></polygon>
            <polygon id="Fill-27" fill="#E84F35" points="0.584333333 467.420987 6 467.420987 6 466.689083 0.584333333 466.689083"></polygon>
            <polygon id="Fill-28" fill="#E84F35" points="0.584333333 460.954224 6 460.954224 6 460.200352 0.584333333 460.200352"></polygon>
            <polygon id="Fill-29" fill="#E84F35" points="0.584333333 447.998729 6 447.998729 6 447.222891 0.584333333 447.222891"></polygon>
            <polygon id="Fill-30" fill="#E84F35" points="0.584333333 435.042236 6 435.042236 6 434.245429 0.584333333 434.245429"></polygon>
            <polygon id="Fill-31" fill="#E84F35" points="0.584333333 428.576471 6 428.576471 6 427.756698 0.584333333 427.756698"></polygon>
            <polygon id="Fill-32" fill="#E84F35" points="0.584333333 422.109707 6 422.109707 6 421.267967 0.584333333 421.267967"></polygon>
            <polygon id="Fill-33" fill="#E84F35" points="0.584333333 415.642944 6 415.642944 6 414.779237 0.584333333 414.779237"></polygon>
            <polygon id="Fill-34" fill="#E84F35" points="0.584333333 402.685954 6 402.685954 6 401.80028 0.584333333 401.80028"></polygon>
            <polygon id="Fill-35" fill="#E84F35" points="0.584333333 396.219191 6 396.219191 6 395.31155 0.584333333 395.31155"></polygon>
            <polygon id="Fill-36" fill="#E84F35" points="0.584333333 389.752427 6 389.752427 6 388.822819 0.584333333 388.822819"></polygon>
            <polygon id="Fill-37" fill="#E84F35" points="0.584333333 383.285664 6 383.285664 6 382.334088 0.584333333 382.334088"></polygon>
            <polygon id="Fill-38" fill="#E84F35" points="0.584333333 376.8189 6 376.8189 6 375.845357 0.584333333 375.845357"></polygon>
            <polygon id="Fill-39" fill="#E84F35" points="0.584333333 370.352136 6 370.352136 6 369.356626 0.584333333 369.356626"></polygon>
            <polygon id="Fill-34" fill="#E84F35" points="0.584333333 409.174685 6 409.174685 6 408.289011 0.584333333 408.289011"></polygon>
            <polygon id="Fill-30" fill="#E84F35" points="0.584333333 441.530967 6 441.530967 6 440.73416 0.584333333 440.73416"></polygon>
            <polygon id="Fill-19" fill="#E84F35" points="0.584333333 532.132558 6 532.132558 6 531.576391 0.584333333 531.576391"></polygon>
            <polygon id="Fill-14" fill="#E84F35" points="0.584333333 570.955107 6 570.955107 6 570.508775 0.584333333 570.508775"></polygon>
            <polygon id="Fill-9" fill="#E84F35" points="0.584333333 616.267385 6 616.267385 6 615.929891 0.584333333 615.929891"></polygon>
            <polygon id="Fill-22" fill="#E84F35" points="0.584333333 506.243536 6 506.243536 6 505.621468 0.584333333 505.621468"></polygon>
            <polygon id="Fill-29" fill="#E84F35" points="0.584333333 454.48746 6 454.48746 6 453.711621 0.584333333 453.711621"></polygon>
            <polygon id="Fill-11" fill="#E84F35" points="0.584333333 596.845127 6 596.845127 6 596.463698 0.584333333 596.463698"></polygon>
            <polygon id="Fill-40" fill="#E84F35" points="0.584333333 363.866401 6 363.866401 6 362.848924 0.584333333 362.848924"></polygon>
            <polygon id="Fill-41" fill="#E84F35" points="0.584333333 357.358699 6 357.358699 6 356.319255 0.584333333 356.319255"></polygon>
            <polygon id="Fill-41" fill="#E84F35" points="0.584333333 350.829029 6 350.829029 6 349.789585 0.584333333 349.789585"></polygon>
            <polygon id="Fill-42" fill="#E84F35" points="0.5 344.29936 5.9175 344.29936 5.9175 343.237949 0.5 343.237949"></polygon>
            <polygon id="Fill-43" fill="#E84F35" points="0.5 337.747723 5.9175 337.747723 5.9175 336.664345 0.5 336.664345"></polygon>
            <polygon id="Fill-44" fill="#48B9B9" points="0.5 324.578548 5.9175 324.578548 5.9175 323.473203 0.5 323.473203"></polygon>
            <polygon id="Fill-45" fill="#48B9B9" points="0.5 317.982978 5.9175 317.982978 5.9175 316.855665 0.5 316.855665"></polygon>
            <polygon id="Fill-46" fill="#48B9B9" points="0.5 311.36544 5.9175 311.36544 5.9175 310.217159 0.5 310.217159"></polygon>
            <polygon id="Fill-47" fill="#48B9B9" points="0.5 304.726933 5.9175 304.726933 5.9175 303.556685 0.5 303.556685"></polygon>
            <polygon id="Fill-48" fill="#48B9B9" points="0.5 298.066459 5.9175 298.066459 5.9175 296.874244 0.5 296.874244"></polygon>
            <polygon id="Fill-49" fill="#48B9B9" points="0.5 291.384019 5.9175 291.384019 5.9175 290.169836 0.5 290.169836"></polygon>
            <polygon id="Fill-50" fill="#48B9B9" points="0.5 277.953236 5.9175 277.953236 5.9175 276.717086 0.5 276.717086"></polygon>
            <polygon id="Fill-51" fill="#48B9B9" points="0.5 271.226861 5.9175 271.226861 5.9175 269.968744 0.5 269.968744"></polygon>
            <polygon id="Fill-52" fill="#48B9B9" points="0.5 264.478519 5.9175 264.478519 5.9175 263.197436 0.5 263.197436"></polygon>
            <polygon id="Fill-53" fill="#48B9B9" points="0.5 257.707211 5.9175 257.707211 5.9175 256.404161 0.5 256.404161"></polygon>
            <polygon id="Fill-54" fill="#48B9B9" points="0.5 250.913936 5.9175 250.913936 5.9175 249.588919 0.5 249.588919"></polygon>
            <polygon id="Fill-55" fill="#48B9B9" points="0.5 244.098694 5.9175 244.098694 5.9175 242.75171 0.5 242.75171"></polygon>
            <polygon id="Fill-56" fill="#48B9B9" points="0.5 237.261485 5.9175 237.261485 5.9175 235.893533 0.5 235.893533"></polygon>
            <polygon id="Fill-57" fill="#48B9B9" points="0.5 230.403307 5.9175 230.403307 5.9175 229.014386 0.5 229.014386"></polygon>
            <polygon id="Fill-58" fill="#48B9B9" points="0.5 216.622049 5.9175 216.622049 5.9175 215.210162 0.5 215.210162"></polygon>
            <polygon id="Fill-59" fill="#48B9B9" points="0.5 209.719937 5.9175 209.719937 5.9175 208.287082 0.5 208.287082"></polygon>
            <polygon id="Fill-60" fill="#48B9B9" points="0.5 202.796856 5.9175 202.796856 5.9175 201.341036 0.5 201.341036"></polygon>
            <polygon id="Fill-61" fill="#48B9B9" points="0.5 188.882797 5.9175 188.882797 5.9175 187.405009 0.5 187.405009"></polygon>
            <polygon id="Fill-62" fill="#48B9B9" points="0.5 181.914784 5.9175 181.914784 5.9175 180.41403 0.5 180.41403"></polygon>
            <polygon id="Fill-63" fill="#48B9B9" points="0.5 174.923805 5.9175 174.923805 5.9175 173.401084 0.5 173.401084"></polygon>
            <polygon id="Fill-64" fill="#48B9B9" points="0.5 160.875946 5.9175 160.875946 5.9175 159.331258 0.5 159.331258"></polygon>
            <polygon id="Fill-65" fill="#48B9B9" points="0.5 153.841032 5.9175 153.841032 5.9175 152.276375 0.5 152.276375"></polygon>
            <polygon id="Fill-66" fill="#48B9B9" points="0.5 146.786149 5.9175 146.786149 5.9175 145.199524 0.5 145.199524"></polygon>
            <polygon id="Fill-67" fill="#48B9B9" points="0.5 132.610481 5.9175 132.610481 5.9175 131.001889 0.5 131.001889"></polygon>
            <polygon id="Fill-68" fill="#48B9B9" points="0.5 125.511664 5.9175 125.511664 5.9175 123.880106 0.5 123.880106"></polygon>
            <polygon id="Fill-69" fill="#48B9B9" points="0.5 118.389881 5.9175 118.389881 5.9175 116.737355 0.5 116.737355"></polygon>
            <polygon id="Fill-70" fill="#48B9B9" points="0.5 111.247129 5.9175 111.247129 5.9175 109.571637 0.5 109.571637"></polygon>
            <polygon id="Fill-71" fill="#48B9B9" points="0.5 104.081412 5.9175 104.081412 5.9175 102.384951 0.5 102.384951"></polygon>
            <polygon id="Fill-72" fill="#48B9B9" points="0.5 96.8947258 5.9175 96.8947258 5.9175 95.1743013 0.5 95.1743013"></polygon>
            <polygon id="Fill-73" fill="#48B9B9" points="0.5 89.6840757 5.9175 89.6840757 5.9175 87.9426826 0.5 87.9426826"></polygon>
            <polygon id="Fill-74" fill="#48B9B9" points="0.5 82.4524571 5.9175 82.4524571 5.9175 80.6880983 0.5 80.6880983"></polygon>
            <polygon id="Fill-75" fill="#48B9B9" points="0.5 60.6887042 5.9175 60.6887042 5.9175 58.9043754 0.5 58.9043754"></polygon>
            <polygon id="Fill-76" fill="#48B9B9" points="0.5 53.4141498 5.9175 53.4141498 5.9175 51.6078538 0.5 51.6078538"></polygon>
            <polygon id="Fill-77" fill="#48B9B9" points="0.5 46.1176283 5.9175 46.1176283 5.9175 44.2883667 0.5 44.2883667"></polygon>
            <polygon id="Fill-78" fill="#48B9B9" points="0.5 38.7981412 5.9175 38.7981412 5.9175 36.947911 0.5 36.947911"></polygon>
            <polygon id="Fill-79" fill="#48B9B9" points="0.5 24.0942641 5.9175 24.0942641 5.9175 22.2210683 0.5 22.2210683"></polygon>
            <polygon id="Fill-80" fill="#48B9B9" points="0.5 16.7308427 5.9175 16.7308427 5.9175 14.8366783 0.5 14.8366783"></polygon>
            <polygon id="Fill-81" fill="#48B9B9" points="0.5 9.34645275 5.9175 9.34645275 5.9175 7.4293227 0.5 7.4293227"></polygon>
            <polygon id="Fill-82" fill="#48B9B9" points="0.5 1.93909716 5.9175 1.93909716 5.9175 0.000998505232 0.5 0.000998505232"></polygon>
            <polygon id="Fill-61" fill="#48B9B9" points="0.5 195.85081 5.9175 195.85081 5.9175 194.373022 0.5 194.373022"></polygon>
            <polygon id="Fill-44" fill="#48B9B9" points="0.5 331.174119 5.9175 331.174119 5.9175 330.068774 0.5 330.068774"></polygon>
            <polygon id="Fill-67" fill="#48B9B9" points="0.5 139.709299 5.9175 139.709299 5.9175 138.100707 0.5 138.100707"></polygon>
            <polygon id="Fill-74" fill="#48B9B9" points="0.5 67.9432885 5.9175 67.9432885 5.9175 66.1789297 0.5 66.1789297"></polygon>
            <polygon id="Fill-64" fill="#48B9B9" points="0.5 167.910859 5.9175 167.910859 5.9175 166.366171 0.5 166.366171"></polygon>
            <polygon id="Fill-74" fill="#48B9B9" points="0.5 75.1978728 5.9175 75.1978728 5.9175 73.433514 0.5 73.433514"></polygon>
            <polygon id="Fill-79" fill="#48B9B9" points="0.5 31.4576854 5.9175 31.4576854 5.9175 29.5844896 0.5 29.5844896"></polygon>
            <polygon id="Fill-50" fill="#48B9B9" points="0.5 284.679611 5.9175 284.679611 5.9175 283.443461 0.5 283.443461"></polygon>
            <polygon id="Fill-58" fill="#48B9B9" points="0.5 223.524161 5.9175 223.524161 5.9175 222.112274 0.5 222.112274"></polygon>
        </g>
    </g>
</svg>