<?xml version="1.0" standalone="no"?>
<!DOCTYPE svg PUBLIC "-//W3C//DTD SVG 1.1//EN" "http://www.w3.org/Graphics/SVG/1.1/DTD/svg11.dtd" >
<svg xmlns="http://www.w3.org/2000/svg" xmlns:xlink="http://www.w3.org/1999/xlink" version="1.1">
<metadata></metadata>
<defs>
<font id="overpasssemibold" horiz-adv-x="1157" >
<font-face units-per-em="2048" ascent="1536" descent="-512" />
<missing-glyph horiz-adv-x="491" />
<glyph unicode="fi" horiz-adv-x="1210" d="M72 862v185h155v167q0 133 67.5 188.5t172.5 55.5q111 0 209 -49v-176q-88 37 -150 37q-86 0 -86 -94v-129h236v-185h-236v-862h-213v862h-155zM819 1339.5q0 53.5 38 91t91 37.5t91 -37.5t38 -91t-38 -91.5t-91 -38t-91 38t-38 91.5zM842 0v1047h213v-1047h-213z" />
<glyph unicode="fl" horiz-adv-x="1226" d="M72 862v185h155v167q0 133 67.5 188.5t172.5 55.5q111 0 209 -49v-176q-88 37 -150 37q-86 0 -86 -94v-129h236v-185h-236v-862h-213v862h-155zM850 0v1378l213 101v-1479h-213z" />
<glyph unicode="&#xd;" horiz-adv-x="681" />
<glyph unicode=" "  horiz-adv-x="491" />
<glyph unicode="&#x09;" horiz-adv-x="491" />
<glyph unicode="&#xa0;" horiz-adv-x="491" />
<glyph unicode="!" horiz-adv-x="565" d="M129 124.5q0 61.5 44 106.5t110 45q63 0 109 -45t46 -106.5t-46 -105.5t-109 -44q-66 0 -110 44t-44 105.5zM176 1004v454h213v-454l-59 -609h-94z" />
<glyph unicode="&#x22;" horiz-adv-x="860" d="M92 1434h266l-43 -574h-180zM502 1434h266l-43 -574h-180z" />
<glyph unicode="#" horiz-adv-x="1392" d="M86 387l27 176h233l51 338h-233l26 176h234l55 357h183l-56 -357h285l55 357h182l-55 -357h234l-27 -176h-233l-52 -338h234l-27 -176h-233l-60 -387h-182l59 387h-284l-60 -387h-182l59 387h-233zM528 563h285l51 338h-284z" />
<glyph unicode="$" horiz-adv-x="1196" d="M102 324l201 73q43 -100 123 -158.5t184 -58.5q111 0 176.5 57.5t65.5 163.5q0 55 -22.5 97.5t-73.5 75t-91 51t-118 47.5q-76 29 -116 46t-102.5 54t-94 75t-57 99.5t-25.5 136.5q0 137 90 238.5t247 128.5v166h213v-168q119 -25 198 -97.5t110 -176.5l-197 -66 q-27 66 -88 105.5t-152 39.5q-94 0 -147 -45t-53 -127q0 -55 43 -98t86 -62.5t141 -56.5q66 -25 101.5 -40t95 -44.5t93.5 -61.5t70.5 -77t53 -105.5t16.5 -132.5q0 -174 -103.5 -283.5t-267.5 -135.5v-185h-213v187q-141 27 -242.5 115.5t-144.5 222.5z" />
<glyph unicode="%" horiz-adv-x="1742" d="M92 1094q0 141 83 252.5t253 111.5t253 -108.5t83 -255.5q0 -88 -29.5 -166t-108.5 -138.5t-198 -60.5q-170 0 -253 108.5t-83 256.5zM264 1094q0 -90 42 -145.5t122 -55.5t122 57.5t42 143.5q0 90 -42 145t-122 55t-122 -56t-42 -144zM285 -25l979 1483h194l-979 -1483 h-194zM979 340q0 141 83 253t253 112t253 -109t83 -256q0 -88 -30 -166t-108.5 -138.5t-197.5 -60.5q-170 0 -253 109t-83 256zM1151 340q0 -90 42 -145.5t122 -55.5t122 57.5t42 143.5q0 90 -42 145.5t-122 55.5t-122 -56.5t-42 -144.5z" />
<glyph unicode="&#x26;" horiz-adv-x="1435" d="M123 379q0 156 85 254t234 184q-80 98 -113.5 167t-33.5 151q0 147 100.5 235t251.5 88q147 0 246.5 -93t99.5 -235q0 -119 -65.5 -201.5t-182.5 -154.5l226 -270q39 104 39 190h207q-4 -195 -101 -366l273 -328h-283l-123 152q-182 -177 -434 -177q-188 0 -307 111 t-119 293zM352 389q0 -96 62 -154.5t164 -58.5q156 0 276 135l-289 355q-102 -63 -157.5 -126t-55.5 -151zM500 1137q0 -33 22.5 -76t40 -65.5t64.5 -77.5q162 100 161 204q0 68 -42 108t-105 40q-61 0 -101 -37t-40 -96z" />
<glyph unicode="'" horiz-adv-x="450" d="M92 1434h266l-43 -574h-180z" />
<glyph unicode="(" horiz-adv-x="706" d="M143 582q0 287 78 512t195 364h209q-90 -106 -179.5 -345t-89.5 -531q0 -156 28 -303.5t71 -255t77.5 -175t69.5 -114.5h-209q-250 328 -250 848z" />
<glyph unicode=")" horiz-adv-x="706" d="M82 1458h209q117 -139 194.5 -364.5t77.5 -511.5q0 -520 -250 -848h-209q35 47 70 114.5t78 175t70.5 255t27.5 303.5q0 293 -89 531.5t-179 344.5z" />
<glyph unicode="*" horiz-adv-x="1085" d="M102 1059l60 182l211 -67l112 -80l-39 133v231h193v-231l-41 -135l115 82l211 67l59 -182l-211 -70h-143l116 -86l140 -190l-154 -113l-141 191l-47 141l-47 -141l-142 -191l-153 113l139 190l115 86h-142z" />
<glyph unicode="+" horiz-adv-x="1290" d="M164 600v205h375v379h213v-379h374v-205h-374v-379h-213v379h-375z" />
<glyph unicode="," horiz-adv-x="456" d="M72 119q0 68 45 111.5t106 43.5q70 0 116 -48t46 -138q0 -113 -62.5 -215t-158.5 -162l-80 51q37 33 77 93.5t48 119.5q-55 4 -96 44t-41 100z" />
<glyph unicode="-" horiz-adv-x="808" d="M154 506v205h501v-205h-501z" />
<glyph unicode="." horiz-adv-x="456" d="M74 124.5q0 61.5 44 106.5t109 45q63 0 109.5 -45t46.5 -106.5t-46.5 -105.5t-109.5 -44q-66 0 -109.5 44t-43.5 105.5z" />
<glyph unicode="/" horiz-adv-x="1009" d="M-31 -266l805 1724h215l-805 -1724h-215z" />
<glyph unicode="0" horiz-adv-x="1327" d="M152 717q0 135 24.5 257t78.5 235.5t158.5 181t250.5 67.5q141 0 245.5 -64.5t159.5 -175t81 -234.5t26 -267q0 -135 -25 -257t-79 -235.5t-158.5 -181.5t-249.5 -68q-141 0 -246 64.5t-160 175.5t-80.5 234.5t-25.5 267.5zM373 717q0 -109 13 -198t45 -169t91.5 -125 t141.5 -45q84 0 144 47t90 129t43 170t13 191q0 109 -13 198t-45 168.5t-91.5 124.5t-140.5 45q-84 0 -144.5 -47t-90.5 -129t-43 -170t-13 -190z" />
<glyph unicode="1" horiz-adv-x="823" d="M70 1112v158q231 0 284 164h164v-1434h-213v1112h-235z" />
<glyph unicode="2" horiz-adv-x="1257" d="M131 0q0 494 516 760q113 57 176.5 121.5t63.5 158.5q0 90 -71 151.5t-179 61.5q-215 0 -289 -190l-194 88q53 139 183 223t302 84q215 0 342 -117.5t127 -306.5q0 -117 -52 -205t-122 -139t-197 -119q-299 -160 -346 -362h729v-209h-989z" />
<glyph unicode="3" horiz-adv-x="1234" d="M98 305l199 80q90 -205 305 -205q123 0 202 58.5t79 175.5q0 100 -69 164.5t-206 64.5h-110v205h110q100 0 160.5 54t60.5 140q0 100 -59 155.5t-168 55.5q-172 0 -254 -161l-198 75q51 135 169.5 213t288.5 78q193 0 318 -115.5t125 -279.5q0 -217 -185 -311 q238 -94 238 -330q0 -211 -139.5 -329t-362.5 -118q-184 0 -313 88.5t-191 241.5z" />
<glyph unicode="4" horiz-adv-x="1320" d="M29 326v137l733 971h252v-912h186v-196h-186v-326h-213v326h-772zM311 522h490v654z" />
<glyph unicode="5" horiz-adv-x="1236" d="M121 106l127 170q45 -29 76.5 -46t95 -33.5t139.5 -16.5q147 0 237.5 82t90.5 213q0 127 -72 194.5t-192 67.5q-141 0 -230 -98l-231 86l49 709h805v-205h-606l-31 -365q106 78 274 78q217 0 336 -136t119 -325q0 -227 -153.5 -366.5t-395.5 -139.5q-289 0 -438 131z" />
<glyph unicode="6" horiz-adv-x="1224" d="M131 530q0 371 195.5 616t588.5 312v-205q-193 -31 -335 -143.5t-195 -310.5q106 102 295 102q197 0 320.5 -129t123.5 -336q0 -205 -137 -333t-358 -128q-242 0 -370 155t-128 400zM352 436q0 -119 77 -187.5t200 -68.5t198.5 68.5t75.5 187.5q0 123 -75.5 191.5 t-198.5 68.5t-200 -69.5t-77 -190.5z" />
<glyph unicode="7" horiz-adv-x="1095" d="M49 1225v209h967v-232q-219 -254 -321.5 -585.5t-104.5 -616.5h-221q2 354 102 640t309 585h-731z" />
<glyph unicode="8" horiz-adv-x="1255" d="M131 420q0 246 240 364q-178 100 -178 299q0 162 119.5 268.5t314 106.5t315.5 -106.5t121 -268.5q0 -197 -180 -299q242 -117 241 -364q0 -195 -138 -320t-359 -125t-358.5 125t-137.5 320zM352 426q0 -109 77 -177.5t198 -68.5t198.5 68.5t77.5 177.5q0 106 -79 180 t-197.5 74t-196.5 -74t-78 -180zM410 1071q0 -78 61.5 -132t155.5 -54q96 0 157.5 54t61.5 132q0 82 -60.5 132t-158.5 50q-96 0 -156.5 -50t-60.5 -132z" />
<glyph unicode="9" horiz-adv-x="1224" d="M100 997q0 205 138.5 333t359.5 128q248 0 372 -152.5t124 -402.5q0 -416 -186.5 -663t-557.5 -265v218q420 23 496 444q-37 -43 -112 -74t-173 -31q-203 0 -332 128t-129 337zM326 997q0 -117 72.5 -182t197.5 -65t198.5 66.5t73.5 182.5q0 109 -75.5 175.5t-194.5 66.5 q-121 0 -196.5 -66.5t-75.5 -177.5z" />
<glyph unicode=":" horiz-adv-x="456" d="M74 124.5q0 61.5 44 106.5t109 45q63 0 109.5 -45t46.5 -106.5t-46.5 -105.5t-109.5 -44q-66 0 -109.5 44t-43.5 105.5zM74 839.5q0 61.5 44 106.5t109 45q63 0 109.5 -45t46.5 -106.5t-46.5 -105.5t-109.5 -44q-66 0 -109.5 44t-43.5 105.5z" />
<glyph unicode=";" horiz-adv-x="456" d="M72 119q0 68 45 111.5t106 43.5q70 0 116 -48t46 -138q0 -113 -62.5 -215t-158.5 -162l-80 51q37 33 77 93.5t48 119.5q-55 4 -96 44t-41 100zM72 839.5q0 61.5 44 106.5t109 45q63 0 109.5 -45t46.5 -106.5t-46.5 -105.5t-109.5 -44q-66 0 -109.5 44t-43.5 105.5z" />
<glyph unicode="&#x3c;" horiz-adv-x="1290" d="M164 612v181l962 391v-215l-671 -267l671 -266v-215z" />
<glyph unicode="=" horiz-adv-x="1290" d="M164 401v205h962v-205h-962zM164 799v205h962v-205h-962z" />
<glyph unicode="&#x3e;" horiz-adv-x="1290" d="M164 221v215l672 266l-672 267v215l962 -391v-181z" />
<glyph unicode="?" horiz-adv-x="1026" d="M41 979q0 221 131 350t344 129q207 0 322.5 -113.5t115.5 -291.5q0 -92 -36.5 -164t-88 -117t-103.5 -90t-89 -108.5t-37 -145.5v-39h-213v41q0 109 37 188.5t89 127t103.5 88t88 95t36.5 124.5q0 92 -59 148t-166 56q-125 0 -193.5 -72.5t-68.5 -205.5h-213zM338 124.5 q0 61.5 44 106.5t110 45q63 0 109 -45t46 -106.5t-46 -105.5t-109 -44q-66 0 -110 44t-44 105.5z" />
<glyph unicode="@" horiz-adv-x="1677" d="M123 690q0 334 217 551t532 217q305 0 493.5 -178t188.5 -438q0 -217 -114.5 -363.5t-272.5 -146.5q-55 0 -98 32.5t-51 88.5q-82 -129 -240 -129q-131 0 -213 96t-82 254q0 162 105.5 293t265.5 131q141 0 203 -119l16 92h182l-65 -346q-29 -154 -29 -188q0 -51 35 -52 q70 0 128 106.5t58 248.5q0 195 -135 322.5t-366 127.5q-250 0 -410 -173t-160 -429q0 -258 145.5 -401.5t403.5 -143.5q133 0 252 29l-43 -182q-92 -15 -217 -15q-324 0 -526.5 189.5t-202.5 525.5zM668 672q0 -78 37.5 -125t103.5 -47q88 0 144.5 78.5t56.5 173.5 q0 78 -37 124t-103 46q-88 0 -145 -74t-57 -176z" />
<glyph unicode="A" horiz-adv-x="1425" d="M86 0l518 1434h219l516 -1434h-221l-114 330h-580l-117 -330h-221zM489 518h449l-174 488q-37 100 -49 161q-18 -74 -49 -161z" />
<glyph unicode="B" horiz-adv-x="1363" d="M184 0v1434h543q238 0 345.5 -108.5t107.5 -274.5q0 -92 -50.5 -171t-146.5 -126q127 -45 187.5 -135.5t60.5 -198.5q0 -78 -25.5 -148.5t-79 -133t-148.5 -100.5t-220 -38h-574zM397 197h377q129 0 184.5 61t55.5 152q0 235 -298 235h-3h-316v-448zM397 842h295 q131 0 201 54t70 144q0 197 -230 197h-336v-395z" />
<glyph unicode="C" horiz-adv-x="1331" d="M133 717q0 131 33 256t99.5 236.5t186 180t277.5 68.5q188 0 313 -83t175 -201l-195 -91q-55 88 -121.5 129t-171.5 41q-102 0 -178 -49t-117 -131t-60.5 -171t-19.5 -185q0 -213 96.5 -375t278.5 -162q180 0 291 185l199 -76q-136 -314 -490 -314q-129 0 -232.5 43 t-170 115t-111.5 170t-63.5 200.5t-18.5 213.5z" />
<glyph unicode="D" horiz-adv-x="1402" d="M184 0v1434h402q180 0 316 -61.5t214 -166t116 -227.5t38 -262q0 -133 -36 -253t-111.5 -227.5t-216 -172t-328.5 -64.5h-394zM397 201h215q117 0 205 46t137.5 122.5t72 164t22.5 183.5q0 215 -104.5 365.5t-309.5 150.5h-238v-1032z" />
<glyph unicode="E" horiz-adv-x="1230" d="M184 0v1434h889v-201h-676v-393h437v-201h-437v-438h721v-201h-934z" />
<glyph unicode="F" horiz-adv-x="1144" d="M184 0v1434h889v-201h-676v-393h437v-201h-437v-639h-213z" />
<glyph unicode="G" horiz-adv-x="1413" d="M133 717q0 135 39 264t112.5 237.5t196.5 174t277 65.5q188 0 299.5 -72.5t189.5 -199.5l-192 -111q-121 174 -297 174q-90 0 -161 -32.5t-116 -86t-74.5 -124t-41 -142t-11.5 -147.5q0 -225 101.5 -379t302.5 -154q133 0 218 87t85 216v29h-258v201h477v-187 q0 -262 -146.5 -408.5t-375.5 -146.5q-160 0 -284 62.5t-195.5 169t-108.5 235.5t-37 275z" />
<glyph unicode="H" horiz-adv-x="1447" d="M184 0v1434h213v-594h654v594h213v-1434h-213v639h-654v-639h-213z" />
<glyph unicode="I" horiz-adv-x="602" d="M195 0v1434h213v-1434h-213z" />
<glyph unicode="J" d="M51 246l185 90q76 -156 270 -156q119 0 191.5 71t72.5 259v924h213v-953q0 -143 -43 -246.5t-115.5 -157.5t-151.5 -78t-167 -24q-156 0 -274.5 70t-180.5 201z" />
<glyph unicode="K" horiz-adv-x="1386" d="M184 0v1434h213v-695l553 695h246l-401 -504l510 -930h-250l-404 750l-254 -308v-442h-213z" />
<glyph unicode="L" horiz-adv-x="1148" d="M184 0v1434h213v-1229h701v-205h-914z" />
<glyph unicode="M" horiz-adv-x="1646" d="M184 0v1434h215l385 -895q20 -49 39 -113q14 45 41 113l383 895h215v-1434h-213v784q0 156 11 232q-47 -139 -89 -238l-346 -803l-348 809q-55 125 -90 232q10 -76 10 -232v-784h-213z" />
<glyph unicode="N" horiz-adv-x="1454" d="M184 0v1434h215l605 -957q23 -37 59 -110q-6 61 -6 108v959h213v-1434h-201l-620 973q-29 45 -58 106q6 -98 6 -106v-973h-213z" />
<glyph unicode="O" horiz-adv-x="1515" d="M133 716.5q0 110.5 20.5 213t67.5 201t117 170t178.5 114.5t241.5 43t241.5 -43t178 -114.5t116.5 -170t67.5 -201t20.5 -213t-20.5 -213t-67.5 -200.5t-116.5 -170t-178 -115t-241.5 -43t-241.5 43t-178.5 115t-117 170t-67.5 200.5t-20.5 213zM354 717 q0 -98 21.5 -189.5t66.5 -171.5t127 -128t188.5 -48t188.5 50.5t127 132t66.5 171t21.5 183.5q0 98 -21.5 189t-66.5 171t-127 128t-188.5 48t-188.5 -50t-127 -132t-66.5 -171t-21.5 -183z" />
<glyph unicode="P" horiz-adv-x="1294" d="M184 0v1434h576q244 0 358.5 -127t114.5 -312q0 -172 -119 -305t-354 -133h-363v-557h-213zM397 762h375q123 0 181.5 68.5t58.5 164.5q0 92 -56.5 163t-183.5 71h-375v-467z" />
<glyph unicode="Q" horiz-adv-x="1515" d="M133 716.5q0 110.5 20.5 213t67.5 201t117 170t178.5 114.5t241.5 43t241.5 -43t178 -114.5t116.5 -170t67.5 -201t20.5 -212.5q0 -178 -54 -337t-169 -263l96 -144l-163 -110l-103 151q-106 -39 -231 -39q-133 0 -241.5 43t-178.5 115t-117 170t-67.5 200.5t-20.5 213z M354 717q0 -98 21.5 -189.5t66.5 -171.5t127.5 -128t188.5 -48q63 0 108 15l-108 163l168 111l106 -162q129 152 129 410q0 98 -21.5 189t-66.5 171t-127 128t-188.5 48t-188.5 -50t-127 -132t-66.5 -171t-21.5 -183z" />
<glyph unicode="R" horiz-adv-x="1384" d="M184 0v1434h604q244 0 353.5 -121t109.5 -303q0 -137 -78.5 -251t-232.5 -155l295 -604h-244l-282 586h-312v-586h-213zM397 791h396q123 0 180 62t57 157q0 90 -54 154.5t-183 64.5h-396v-438z" />
<glyph unicode="S" horiz-adv-x="1236" d="M102 324l201 73q45 -100 131 -158.5t199 -58.5q119 0 189.5 57.5t70.5 163.5q0 45 -19.5 83t-44 62.5t-76 50.5t-85 39t-99.5 36q-82 29 -122.5 45t-107.5 54t-100.5 76t-60 99.5t-26.5 136.5q0 158 122.5 266.5t333.5 108.5q176 0 290 -77.5t153 -206.5l-197 -66 q-29 66 -95.5 105.5t-166.5 39.5q-102 0 -160.5 -45t-58.5 -127q0 -55 45 -98t94 -63.5t150 -55.5q61 -23 90.5 -34t87 -37.5t88 -48t71.5 -58.5t62.5 -75t37 -92t15.5 -116q0 -201 -137 -314.5t-352 -113.5q-190 0 -329.5 93.5t-193.5 255.5z" />
<glyph unicode="T" horiz-adv-x="1208" d="M92 1229v205h1024v-205h-405v-1229h-213v1229h-406z" />
<glyph unicode="U" horiz-adv-x="1427" d="M174 543v891h213v-891q0 -201 86 -282t239.5 -81t240.5 81t87 282v891h213v-891q0 -299 -145 -433.5t-395 -134.5q-244 0 -391.5 134.5t-147.5 433.5z" />
<glyph unicode="V" horiz-adv-x="1357" d="M82 1434h229l326 -1000q31 -94 45 -164q14 70 45 164l322 1000h227l-490 -1434h-213z" />
<glyph unicode="W" horiz-adv-x="1744" d="M92 1434h219l178 -883q27 -137 31 -166q2 27 37 166l225 883h179l231 -881q31 -115 37 -164q6 53 28 164l181 881h215l-310 -1434h-192l-248 930q-31 111 -35 155q-4 -45 -34 -155l-242 -930h-193z" />
<glyph unicode="X" horiz-adv-x="1331" d="M102 0l441 741l-410 693h246l287 -486l286 486h246l-410 -693l441 -741h-246l-317 535l-318 -535h-246z" />
<glyph unicode="Y" horiz-adv-x="1363" d="M72 1434h243l367 -656l367 656h243l-504 -871v-563h-213v561z" />
<glyph unicode="Z" horiz-adv-x="1355" d="M113 0v172l827 1057h-780v205h1063v-172l-830 -1057h830v-205h-1110z" />
<glyph unicode="[" horiz-adv-x="761" d="M205 -266v1724h475v-201h-262v-1323h262v-200h-475z" />
<glyph unicode="\" horiz-adv-x="1009" d="M-31 1458h215l805 -1724h-215z" />
<glyph unicode="]" horiz-adv-x="761" d="M82 -66h262v1323h-262v201h475v-1724h-475v200z" />
<glyph unicode="^" horiz-adv-x="1290" d="M143 717l412 741h180l412 -741h-219l-283 471l-283 -471h-219z" />
<glyph unicode="_" horiz-adv-x="1024" d="M-10 -178h1044v-184h-1044v184z" />
<glyph unicode="`" horiz-adv-x="819" d="M86 1499h291l291 -319h-217z" />
<glyph unicode="a" horiz-adv-x="1089" d="M92 326q0 170 117 258t285 88q154 0 258 -62v58q0 117 -53.5 166t-170.5 49q-172 0 -299 -95l-63 175q157 108 387 108h4q78 0 139.5 -13.5t125 -51t99 -121.5t35.5 -207v-678h-204v90q-111 -115 -287 -115q-166 0 -269.5 91.5t-103.5 259.5zM297 326q0 -76 53.5 -119 t153.5 -43q147 0 248 112v160q-96 51 -224 51q-102 0 -166.5 -39.5t-64.5 -121.5z" />
<glyph unicode="b" horiz-adv-x="1150" d="M154 0v1380l213 99v-512q94 104 247 104q195 0 315 -146.5t120 -400.5q0 -262 -116 -405.5t-319 -143.5q-150 0 -247 109v-84h-213zM367 295q74 -119 221 -119q119 0 183.5 93t64.5 255q0 168 -63.5 257t-184.5 89q-74 0 -133.5 -35.5t-87.5 -82.5v-457z" />
<glyph unicode="c" horiz-adv-x="1060" d="M102 522q0 256 123 402.5t334 146.5q305 0 395 -270l-202 -70q-51 135 -185 135q-119 0 -183.5 -91t-64.5 -253q0 -160 63.5 -251t176.5 -91q152 0 197 154l202 -64q-84 -295 -399 -295q-211 0 -334 145.5t-123 401.5z" />
<glyph unicode="d" horiz-adv-x="1150" d="M102 524q0 254 120 400.5t315 146.5q154 0 247 -98v407l213 99v-1479h-213v74q-87 -99 -247 -99q-199 0 -317 146.5t-118 402.5zM315 524q0 -156 67.5 -252t184.5 -96q143 0 217 119v461q-29 47 -85 80.5t-132 33.5q-121 0 -186.5 -90t-65.5 -256z" />
<glyph unicode="e" horiz-adv-x="1120" d="M102 524q0 256 129 401.5t347 145.5q197 0 323.5 -125t126.5 -364q0 -88 -8 -138h-705q2 -125 81 -202.5t184 -77.5q135 0 217 106l139 -143q-127 -152 -358 -152q-219 0 -347.5 146.5t-128.5 402.5zM315 616h500q-2 135 -71.5 201t-165.5 66q-109 0 -182 -65t-81 -202z " />
<glyph unicode="f" horiz-adv-x="686" d="M72 862v185h155v167q0 133 67.5 188.5t172.5 55.5q111 0 209 -49v-176q-88 37 -150 37q-86 0 -86 -94v-129h236v-185h-236v-862h-213v862h-155z" />
<glyph unicode="g" horiz-adv-x="1150" d="M102 524q0 254 120 400.5t315 146.5q154 0 247 -98v74h213v-979q0 -242 -120.5 -351t-372.5 -127l-107 164q217 12 302 72.5t85 165.5v92q-88 -109 -252 -109q-188 0 -309 142.5t-121 406.5zM315 524q0 -160 68.5 -254t187.5 -94q139 0 213 123v453q-33 53 -91 85.5 t-122 32.5q-125 0 -190.5 -89t-65.5 -257z" />
<glyph unicode="h" d="M154 0v1380l213 99v-533q98 125 270 125q377 0 377 -446v-625h-213v625q0 125 -57.5 185t-151.5 60q-225 0 -225 -241v-629h-213z" />
<glyph unicode="i" horiz-adv-x="524" d="M133 1339.5q0 53.5 38 91t91 37.5t91 -37.5t38 -91t-38 -91.5t-91 -38t-91 38t-38 91.5zM156 0v1047h213v-1047h-213z" />
<glyph unicode="j" horiz-adv-x="524" d="M-129 -281q162 35 223.5 90.5t61.5 167.5v1070h213v-998q0 -229 -99 -332q-109 -114 -297 -155zM133 1339.5q0 53.5 38 91t91 37.5t91 -37.5t38 -91t-38 -91.5t-91 -38t-91 38t-38 91.5z" />
<glyph unicode="k" horiz-adv-x="1126" d="M154 0v1378l213 101v-756l309 324h262l-287 -291l393 -756h-233l-309 602l-135 -135v-467h-213z" />
<glyph unicode="l" horiz-adv-x="540" d="M164 0v1378l213 101v-1479h-213z" />
<glyph unicode="m" horiz-adv-x="1738" d="M154 0v1047h213v-97q84 121 264 121q195 0 278 -149q95 149 307 149h3q170 0 273 -98.5t103 -296.5v-676h-213v627q0 243 -190 243h-2q-90 0 -149.5 -66.5t-59.5 -187.5v-616h-213v627q0 243 -191 243h-2q-90 0 -149 -66.5t-59 -187.5v-616h-213z" />
<glyph unicode="n" d="M154 0v1047h213v-101q98 125 270 125q377 0 377 -446v-625h-213v625q0 125 -57.5 185t-151.5 60q-225 0 -225 -241v-629h-213z" />
<glyph unicode="o" horiz-adv-x="1161" d="M102 522q0 256 128 402.5t349.5 146.5t350.5 -146.5t129 -402.5t-129 -401.5t-350.5 -145.5t-349.5 145.5t-128 401.5zM315 522q0 -160 72 -253t193 -93q123 0 194.5 92t71.5 254t-72 255t-194 93q-121 0 -193 -93t-72 -255z" />
<glyph unicode="p" horiz-adv-x="1150" d="M154 -412v1459h213v-84q97 108 248 108h3q199 0 315 -146.5t116 -402.5q0 -254 -118 -400.5t-313 -146.5q-160 0 -251 115v-403zM367 297q90 -121 221 -121q121 0 184.5 89t63.5 257q0 156 -65.5 252t-182.5 96q-147 0 -221 -118v-455z" />
<glyph unicode="q" horiz-adv-x="1150" d="M102 522q0 256 118 402.5t317 146.5q150 0 247 -108v84h213v-1360l-213 -97v500q-93 -115 -247 -115q-195 0 -315 146.5t-120 400.5zM315 522q0 -168 63.5 -257t184.5 -89q133 0 221 121v455q-73 118 -219 118h-2q-117 0 -182.5 -96t-65.5 -252z" />
<glyph unicode="r" horiz-adv-x="813" d="M154 0v1047h213v-127q70 151 231 151h2q102 0 176 -63l-31 -197q-76 51 -165 51q-86 0 -149.5 -64.5t-63.5 -209.5v-588h-213z" />
<glyph unicode="s" horiz-adv-x="972" d="M82 145l151 129q113 -106 240 -106q184 0 184 113q0 39 -34.5 71.5t-69.5 48t-113 45.5q-172 57 -253 135t-81 201q0 135 103.5 212t261.5 77q236 0 367 -158l-154 -122q-84 88 -213 88q-68 0 -107.5 -26t-39.5 -71q0 -47 48 -76.5t154 -70.5q178 -59 261 -139t83 -215 q0 -147 -105.5 -226.5t-287.5 -79.5q-123 0 -231.5 46.5t-163.5 123.5z" />
<glyph unicode="t" horiz-adv-x="776" d="M61 862v185h162v329l213 103v-432h248v-185h-248v-571q0 -119 103 -119q76 0 155 49l-26 -198q-94 -48 -211 -48q-233 0 -234 261v626h-162z" />
<glyph unicode="u" d="M143 422v625h213v-625q0 -125 57.5 -185.5t151.5 -60.5q225 0 226 242v629h213v-1047h-213v100q-98 -125 -271 -125q-377 0 -377 447z" />
<glyph unicode="v" horiz-adv-x="1067" d="M51 1047h213l242 -687q23 -68 29 -92q6 25 28 92l240 687h213l-383 -1047h-199z" />
<glyph unicode="w" horiz-adv-x="1486" d="M72 1047h209l147 -652q14 -61 21 -106q6 39 22 106l174 652h197l174 -652q16 -68 22 -106q6 45 21 106l147 652h209l-278 -1047h-189l-174 608q-25 84 -33 131q-10 -66 -30 -133l-172 -606h-189z" />
<glyph unicode="x" horiz-adv-x="1085" d="M72 0l348 545l-320 502h244l145 -228q39 -66 54 -94q39 72 53 94l145 228h244l-321 -502l350 -545h-244l-174 270q-14 23 -53 95q-18 -41 -54 -95l-174 -270h-243z" />
<glyph unicode="y" horiz-adv-x="1101" d="M51 1047h211l258 -685q18 -47 29 -92q10 45 29 92l260 685h213l-553 -1444h-217l161 415z" />
<glyph unicode="z" horiz-adv-x="1046" d="M113 0v174l555 684h-514v189h770v-168l-555 -691h553v-188h-809z" />
<glyph unicode="{" horiz-adv-x="749" d="M82 504v186h31q59 0 91 47t32 125v119q0 229 115.5 351t316.5 126v-188q-219 -10 -219 -252v-133q0 -145 -47.5 -209t-147.5 -80q100 -16 147.5 -79.5t47.5 -209.5v-133q0 -242 219 -252v-188q-201 4 -316.5 126t-115.5 351v121q0 78 -32 125t-91 47h-31z" />
<glyph unicode="|" horiz-adv-x="561" d="M174 -774v2949h213v-2949h-213z" />
<glyph unicode="}" horiz-adv-x="749" d="M82 -78q219 10 219 252v133q0 145 47 209t148 80q-100 16 -147.5 79.5t-47.5 209.5v133q0 242 -219 252v188q201 -4 316.5 -126t115.5 -351v-119q0 -78 32 -125t91 -47h31v-186h-31q-59 0 -91 -47t-32 -125v-121q0 -229 -115.5 -351t-316.5 -126v188z" />
<glyph unicode="~" horiz-adv-x="1290" d="M164 541q0 139 67.5 231t206.5 92q94 0 226.5 -59.5t185.5 -59.5t86 33t37 86h153q0 -139 -67.5 -231t-206.5 -92q-94 0 -226 59t-185.5 59t-86 -32.5t-37.5 -85.5h-153z" />
<glyph unicode="&#xa1;" horiz-adv-x="565" d="M129 919.5q0 61.5 44 106.5t110 45q63 0 109 -45t46 -106.5t-46 -105.5t-109 -44q-66 0 -110 44t-44 105.5zM176 43l60 608h94l59 -608v-453h-213v453z" />
<glyph unicode="&#xa2;" horiz-adv-x="1060" d="M102 717q0 215 88.5 353t243.5 179v209h205v-198q240 -35 315 -265l-202 -69q-51 135 -185 135q-119 0 -183.5 -91t-64.5 -253q0 -160 63.5 -251t176.5 -91q152 0 197 153l202 -63q-74 -254 -319 -289v-201h-205v209q-158 41 -245 179.5t-87 353.5z" />
<glyph unicode="&#xa3;" horiz-adv-x="1206" d="M154 580v188h135q-74 152 -74 279q0 170 123 290.5t352 120.5q240 0 436 -143l-84 -203q-49 43 -80.5 65.5t-107.5 49t-164 26.5q-127 0 -190.5 -60t-63.5 -146q0 -45 13.5 -88.5t39 -100.5t37.5 -90h342v-188h-309q0 -35 -2 -52q-16 -186 -149 -323h737v-205h-981v213 q150 72 172 315q2 18 2 52h-184z" />
<glyph unicode="&#xa4;" horiz-adv-x="1290" d="M74 270l145 146q-61 111 -61 266q0 152 63 268l-147 148l153 153l140 -139q121 78 278.5 78t274.5 -76l137 137l160 -159l-144 -144q61 -119 62 -266q0 -158 -66 -272l148 -146l-154 -153l-141 141q-117 -76 -277 -76q-162 0 -274 74l-138 -139zM375 682 q0 -131 74.5 -216t195.5 -85t197 85t76 216t-76 217t-197 86t-195.5 -86t-74.5 -217z" />
<glyph unicode="&#xa5;" horiz-adv-x="1173" d="M31 1434h241l314 -564l313 564h244l-441 -760h283v-185h-293v-135h293v-184h-293v-170h-213v170h-301v184h301v135h-301v185h289z" />
<glyph unicode="&#xa6;" horiz-adv-x="561" d="M174 -461v940h213v-940h-213zM174 750v940h213v-940h-213z" />
<glyph unicode="&#xa7;" horiz-adv-x="1071" d="M102 -55l156 133q119 -119 283 -119q207 0 207 139q0 23 -8.5 43.5t-30 40t-40 32.5t-55 31.5t-58 28t-68 29t-66.5 27.5q-72 31 -111 51t-89 58t-72.5 89.5t-22.5 118.5q0 152 137 221q-137 92 -137 265q0 152 113.5 238.5t287.5 86.5q258 0 400 -172l-162 -129 q-92 96 -238 96q-84 0 -132 -31.5t-48 -88.5q0 -33 20.5 -59.5t73 -54.5t86 -42t113.5 -45q63 -25 99 -41.5t86.5 -47t77 -63t46 -83t19.5 -111.5q0 -152 -119 -221q119 -98 119 -261q0 -166 -112.5 -258t-313.5 -92q-143 0 -259 52.5t-182 138.5zM348 662q0 -14 5 -29 t16.5 -27t24 -22.5t34 -21.5t37.5 -19t47 -19.5t50.5 -18.5t56.5 -20.5t57 -21.5q72 29 72 106q0 35 -20.5 64t-70 54.5t-84 39.5t-110.5 41q-115 -20 -115 -106z" />
<glyph unicode="&#xa8;" horiz-adv-x="819" d="M96 1339.5q0 53.5 38 91t91.5 37.5t91 -37.5t37.5 -91t-37.5 -91.5t-91 -38t-91.5 38t-38 91.5zM465 1339.5q0 53.5 38 91t91 37.5t91 -37.5t38 -91t-38 -91.5t-91 -38t-91 38t-38 91.5z" />
<glyph unicode="&#xa9;" horiz-adv-x="1728" d="M123 716.5q0 315.5 213 528.5t528.5 213t528.5 -213t213 -528.5t-213 -528.5t-528.5 -213t-528.5 213t-213 528.5zM281 717q0 -254 165.5 -424t417.5 -170t418 170t166 424t-166 424t-418 170t-417.5 -170t-165.5 -424zM512 717q0 174 89 310t271 136q115 0 193 -54 t109 -130l-136 -64q-35 53 -71.5 77t-94.5 24q-104 0 -153 -90t-49 -209t52 -209t150 -90q94 0 166 106l138 -49q-87 -205 -304 -205q-96 0 -168.5 39t-112.5 105.5t-59.5 142.5t-19.5 160z" />
<glyph unicode="&#xaa;" horiz-adv-x="894" d="M72 848q0 139 98 213t231 74q111 0 201 -43v34q0 92 -41 131t-131 39q-135 0 -242 -79l-53 151q127 90 318 90q66 0 115.5 -11t103 -42t82 -99.5t28.5 -170.5v-555h-180v61q-90 -82 -225 -82t-220 75t-85 214zM256 848q0 -59 41 -93t113 -34q109 0 192 80v135 q-82 39 -172 39q-74 0 -124 -32t-50 -95z" />
<glyph unicode="&#xab;" horiz-adv-x="1073" d="M61 524l312 523h231l-311 -523l311 -524h-231zM500 524l311 523h231l-311 -523l311 -524h-231z" />
<glyph unicode="&#xac;" horiz-adv-x="1290" d="M164 764v205h962v-625h-213v420h-749z" />
<glyph unicode="&#xad;" horiz-adv-x="808" d="M154 506v205h501v-205h-501z" />
<glyph unicode="&#xae;" horiz-adv-x="1728" d="M123 716.5q0 315.5 213 528.5t528.5 213t528.5 -213t213 -528.5t-213 -528.5t-528.5 -213t-528.5 213t-213 528.5zM281 717q0 -254 165.5 -424t417.5 -170t418 170t166 424t-166 424t-418 170t-417.5 -170t-165.5 -424zM571 285v864h340q150 0 217.5 -74t67.5 -184 q0 -82 -46 -150.5t-134 -95.5l196 -360h-180l-174 346h-135v-346h-152zM723 776h188q125 0 125 115q0 113 -125 113h-188v-228z" />
<glyph unicode="&#xaf;" horiz-adv-x="819" d="M72 1223v176h676v-176h-676z" />
<glyph unicode="&#xb0;" horiz-adv-x="819" d="M49 1284q0 152 104.5 253t256 101t255 -101t103.5 -253q0 -150 -103.5 -253t-255 -103t-256 103.5t-104.5 252.5zM258 1284q0 -68 44 -114t107.5 -46t106.5 46.5t43 113.5q0 70 -42 114t-107.5 44t-108.5 -44t-43 -114z" />
<glyph unicode="&#xb1;" horiz-adv-x="1290" d="M164 0v205h962v-205h-962zM164 723v205h375v317h213v-317h374v-205h-374v-317h-213v317h-375z" />
<glyph unicode="&#xb2;" horiz-adv-x="731" d="M49 1534q23 111 109 182.5t200 71.5q135 0 215 -74t80 -190q0 -55 -16 -96.5t-53 -75t-70 -54t-94 -51.5q-119 -61 -170 -178h401v-160h-600q0 172 84 294t217 192q43 23 63.5 36t40 39.5t19.5 57.5q0 43 -30.5 71.5t-86.5 28.5q-117 0 -143 -133z" />
<glyph unicode="&#xb3;" horiz-adv-x="710" d="M25 1145l168 45q16 -68 58 -102.5t93 -34.5q53 0 88 29.5t35 80.5q0 47 -33 79t-98 32h-64v160h62q51 0 76.5 26.5t25.5 69.5t-25.5 70.5t-72.5 27.5q-84 0 -119 -100l-164 59q39 92 113 146.5t174 54.5q123 0 196.5 -73t73.5 -177q0 -113 -100 -178q61 -27 96 -81 t35 -118q0 -123 -84 -195.5t-221 -72.5q-117 0 -198 66.5t-115 185.5z" />
<glyph unicode="&#xb4;" horiz-adv-x="819" d="M154 1180l290 319h291l-364 -319h-217z" />
<glyph unicode="&#xb5;" d="M143 -410v1457h213v-625q0 -137 53.5 -191.5t155.5 -54.5q225 0 226 242v629h213v-1047h-213v100q-98 -125 -250 -125q-121 0 -185 84v-368z" />
<glyph unicode="&#xb6;" horiz-adv-x="1286" d="M41 999q0 182 114.5 308.5t358.5 126.5h608v-1581l-213 -97v1473h-176v-1542l-213 -97v975q-240 0 -359.5 131t-119.5 303z" />
<glyph unicode="&#xb7;" horiz-adv-x="456" d="M74 714.5q0 61.5 44 106.5t109 45q63 0 109.5 -45t46.5 -106.5t-46.5 -105.5t-109.5 -44q-66 0 -109.5 44t-43.5 105.5z" />
<glyph unicode="&#xb8;" horiz-adv-x="819" d="M195 -412l104 76q25 -31 80 -31q45 0 73.5 25t28.5 66q0 39 -31.5 63.5t-78.5 24.5q-49 0 -82 -21l-41 51l143 178h117l-76 -122q113 0 169 -50.5t56 -126.5q0 -94 -70.5 -152t-187.5 -58q-133 0 -204 77z" />
<glyph unicode="&#xb9;" horiz-adv-x="409" d="M20 1593v125q111 0 146 56h135v-865h-168v684h-113z" />
<glyph unicode="&#xba;" horiz-adv-x="950" d="M82 1008q0 211 105.5 330.5t285.5 119.5t287.5 -119.5t107.5 -330.5t-106.5 -330t-288.5 -119q-180 0 -285.5 119t-105.5 330zM266 1008q0 -129 55.5 -202t151.5 -73q100 0 154.5 73t54.5 202q0 131 -54.5 203.5t-154.5 72.5q-96 0 -151.5 -72.5t-55.5 -203.5z" />
<glyph unicode="&#xbb;" horiz-adv-x="1073" d="M31 0l311 524l-311 523h231l311 -523l-311 -524h-231zM469 0l311 524l-311 523h231l312 -523l-312 -524h-231z" />
<glyph unicode="&#xbc;" horiz-adv-x="1404" d="M20 -25l979 1483h195l-979 -1483h-195zM31 1264v125q111 0 145 55h135v-864h-168v684h-112zM649 176v109l441 581h157v-532h111v-158h-111v-176h-164v176h-434zM860 334h223v291z" />
<glyph unicode="&#xbd;" horiz-adv-x="1495" d="M20 -25l979 1483h195l-979 -1483h-195zM31 1264v125q111 0 145 55h135v-864h-168v684h-112zM813 625q23 111 109 182.5t200 71.5q135 0 215 -74t80 -191q0 -55 -16.5 -96t-53 -74.5t-69.5 -54t-94 -51.5q-119 -61 -170 -178h401v-160h-600q0 172 84 294t217 191 q43 23 63.5 36.5t40 40t19.5 56.5q0 43 -30.5 72t-86.5 29q-117 0 -143 -133z" />
<glyph unicode="&#xbe;" horiz-adv-x="1650" d="M25 815l168 45q16 -68 58 -102.5t93 -34.5q53 0 88 29.5t35 81.5q0 47 -33 78.5t-98 31.5h-64v160h62q51 0 76.5 26.5t25.5 69.5t-25.5 70.5t-72.5 27.5q-84 0 -119 -100l-164 59q39 92 113 146.5t174 54.5q123 0 196.5 -72.5t73.5 -177.5q0 -113 -100 -178 q61 -27 96 -81t35 -118q0 -123 -84 -195.5t-221 -72.5q-117 0 -198 66.5t-115 185.5zM266 -25l979 1483h195l-979 -1483h-195zM895 176v109l440 581h158v-532h111v-158h-111v-176h-164v176h-434zM1106 334h223v291z" />
<glyph unicode="&#xbf;" horiz-adv-x="1026" d="M72 -4q0 92 36.5 163.5t88 117t103.5 90.5t89 108.5t37 145.5v38h213v-41q0 -109 -37 -188.5t-88 -126.5t-103.5 -88t-89 -95t-36.5 -124q0 -92 59 -148.5t166 -56.5q125 0 193.5 73t68.5 206h213q0 -221 -131 -350.5t-344 -129.5q-207 0 -322.5 114t-115.5 292z M381 919.5q0 61.5 44 106.5t110 45q63 0 109 -45t46 -106.5t-46 -105.5t-109 -44q-66 0 -110 44t-44 105.5z" />
<glyph unicode="&#xc0;" horiz-adv-x="1425" d="M86 0l518 1434h219l516 -1434h-221l-114 330h-580l-117 -330h-221zM389 1886h291l291 -319h-217zM489 518h449l-174 488q-37 100 -49 161q-18 -74 -49 -161z" />
<glyph unicode="&#xc1;" horiz-adv-x="1425" d="M86 0l518 1434h219l516 -1434h-221l-114 330h-580l-117 -330h-221zM457 1567l291 319h290l-364 -319h-217zM489 518h449l-174 488q-37 100 -49 161q-18 -74 -49 -161z" />
<glyph unicode="&#xc2;" horiz-adv-x="1425" d="M86 0l518 1434h219l516 -1434h-221l-114 330h-580l-117 -330h-221zM315 1567l291 319h215l289 -319h-205l-192 162l-193 -162h-205zM489 518h449l-174 488q-37 100 -49 161q-18 -74 -49 -161z" />
<glyph unicode="&#xc3;" horiz-adv-x="1425" d="M86 0l518 1434h219l516 -1434h-221l-114 330h-580l-117 -330h-221zM336 1597q0 266 215 267q78 0 185.5 -49.5t152.5 -49.5q90 0 96 90h105q-1 -266 -216 -266q-78 0 -185 49.5t-152 49.5q-90 0 -97 -91h-104zM489 518h449l-174 488q-37 100 -49 161q-18 -74 -49 -161z " />
<glyph unicode="&#xc4;" horiz-adv-x="1425" d="M86 0l518 1434h219l516 -1434h-221l-114 330h-580l-117 -330h-221zM399 1726.5q0 53.5 38 91t91.5 37.5t91 -37.5t37.5 -91t-37.5 -91.5t-91 -38t-91.5 38t-38 91.5zM489 518h449l-174 488q-37 100 -49 161q-18 -74 -49 -161zM768 1726.5q0 53.5 38 91t91 37.5t91 -37.5 t38 -91t-38 -91.5t-91 -38t-91 38t-38 91.5z" />
<glyph unicode="&#xc5;" horiz-adv-x="1425" d="M86 0l475 1317q-100 78 -100 201q0 102 74.5 174.5t177 72.5t177.5 -72.5t75 -174.5q0 -123 -101 -199l475 -1319h-221l-114 330h-580l-117 -330h-221zM489 518h449l-174 488q-37 100 -49 161q-18 -74 -49 -161zM621 1518q0 -41 26.5 -69t65.5 -28t65.5 28t26.5 69 t-26.5 68.5t-65.5 27.5t-65.5 -27.5t-26.5 -68.5z" />
<glyph unicode="&#xc6;" horiz-adv-x="1736" d="M-25 0l832 1434h801v-201h-561v-393h321v-201h-321v-438h606v-201h-819v330h-443l-186 -330h-230zM502 520h332v598q-33 -70 -84 -162z" />
<glyph unicode="&#xc7;" horiz-adv-x="1331" d="M133 717q0 131 33 256t99.5 236.5t186 180t277.5 68.5q188 0 313 -83t175 -201l-195 -91q-55 88 -121.5 129t-171.5 41q-102 0 -178 -49t-117 -131t-60.5 -171t-19.5 -185q0 -213 96.5 -375t278.5 -162q180 0 291 185l199 -76q-121 -283 -428 -309l-50 -82 q113 0 169.5 -50.5t56.5 -126.5q0 -94 -70.5 -152t-187.5 -58q-133 0 -205 77l104 76q25 -31 80 -31q45 0 74 25t29 66q0 39 -32 63.5t-79 24.5q-49 0 -82 -21l-41 51l109 138q-141 12 -249 80.5t-167.5 175t-88 227.5t-28.5 254z" />
<glyph unicode="&#xc8;" horiz-adv-x="1230" d="M184 0v1434h889v-201h-676v-393h437v-201h-437v-438h721v-201h-934zM262 1886h291l291 -319h-217z" />
<glyph unicode="&#xc9;" horiz-adv-x="1230" d="M184 0v1434h889v-201h-676v-393h437v-201h-437v-438h721v-201h-934zM403 1567l291 319h291l-364 -319h-218z" />
<glyph unicode="&#xca;" horiz-adv-x="1230" d="M184 0v1434h889v-201h-676v-393h437v-201h-437v-438h721v-201h-934zM238 1567l290 319h215l289 -319h-205l-192 162l-193 -162h-204z" />
<glyph unicode="&#xcb;" horiz-adv-x="1230" d="M184 0v1434h889v-201h-676v-393h437v-201h-437v-438h721v-201h-934zM334 1726.5q0 53.5 38 91t91 37.5t91 -37.5t38 -91t-38 -91.5t-91 -38t-91 38t-38 91.5zM702 1726.5q0 53.5 38 91t91.5 37.5t91.5 -37.5t38 -91t-38 -91.5t-91.5 -38t-91.5 38t-38 91.5z" />
<glyph unicode="&#xcc;" horiz-adv-x="602" d="M-23 1886h291l291 -319h-217zM195 0v1434h213v-1434h-213z" />
<glyph unicode="&#xcd;" horiz-adv-x="602" d="M66 1567l290 319h291l-364 -319h-217zM195 0v1434h213v-1434h-213z" />
<glyph unicode="&#xce;" horiz-adv-x="602" d="M-96 1567l291 319h215l288 -319h-204l-193 162l-192 -162h-205zM195 0v1434h213v-1434h-213z" />
<glyph unicode="&#xcf;" horiz-adv-x="602" d="M-12 1726.5q0 53.5 37.5 91t91 37.5t91.5 -37.5t38 -91t-38 -91.5t-91.5 -38t-91 38t-37.5 91.5zM195 0v1434h213v-1434h-213zM356 1726.5q0 53.5 38 91t91.5 37.5t91 -37.5t37.5 -91t-37.5 -91.5t-91 -38t-91.5 38t-38 91.5z" />
<glyph unicode="&#xd0;" horiz-adv-x="1402" d="M51 618v197h133v619h402q180 0 316 -61.5t214 -166t116 -227.5t38 -262q0 -133 -36 -253t-111.5 -227.5t-216 -172t-328.5 -64.5h-394v618h-133zM397 201h215q117 0 205 46t137.5 122.5t72 164t22.5 183.5q0 215 -104.5 365.5t-309.5 150.5h-238v-418h310v-197h-310v-417 z" />
<glyph unicode="&#xd1;" horiz-adv-x="1454" d="M184 0v1434h215l605 -957q23 -37 59 -110q-6 61 -6 108v959h213v-1434h-201l-620 973q-29 45 -58 106q6 -98 6 -106v-973h-213zM371 1597q0 266 215 267q78 0 185.5 -49.5t152.5 -49.5q90 0 96 90h104q0 -266 -215 -266q-78 0 -185.5 49.5t-152.5 49.5q-90 0 -96 -91 h-104z" />
<glyph unicode="&#xd2;" horiz-adv-x="1515" d="M133 716.5q0 110.5 20.5 213t67.5 201t117 170t178.5 114.5t241.5 43t241.5 -43t178 -114.5t116.5 -170t67.5 -201t20.5 -213t-20.5 -213t-67.5 -200.5t-116.5 -170t-178 -115t-241.5 -43t-241.5 43t-178.5 115t-117 170t-67.5 200.5t-20.5 213zM354 717 q0 -98 21.5 -189.5t66.5 -171.5t127 -128t188.5 -48t188.5 50.5t127 132t66.5 171t21.5 183.5q0 98 -21.5 189t-66.5 171t-127 128t-188.5 48t-188.5 -50t-127 -132t-66.5 -171t-21.5 -183zM395 1888h291l291 -319h-217z" />
<glyph unicode="&#xd3;" horiz-adv-x="1515" d="M133 716.5q0 110.5 20.5 213t67.5 201t117 170t178.5 114.5t241.5 43t241.5 -43t178 -114.5t116.5 -170t67.5 -201t20.5 -213t-20.5 -213t-67.5 -200.5t-116.5 -170t-178 -115t-241.5 -43t-241.5 43t-178.5 115t-117 170t-67.5 200.5t-20.5 213zM354 717 q0 -98 21.5 -189.5t66.5 -171.5t127 -128t188.5 -48t188.5 50.5t127 132t66.5 171t21.5 183.5q0 98 -21.5 189t-66.5 171t-127 128t-188.5 48t-188.5 -50t-127 -132t-66.5 -171t-21.5 -183zM502 1567l291 319h290l-364 -319h-217z" />
<glyph unicode="&#xd4;" horiz-adv-x="1515" d="M133 716.5q0 110.5 20.5 213t67.5 201t117 170t178.5 114.5t241.5 43t241.5 -43t178 -114.5t116.5 -170t67.5 -201t20.5 -213t-20.5 -213t-67.5 -200.5t-116.5 -170t-178 -115t-241.5 -43t-241.5 43t-178.5 115t-117 170t-67.5 200.5t-20.5 213zM354 717 q0 -98 21.5 -189.5t66.5 -171.5t127 -128t188.5 -48t188.5 50.5t127 132t66.5 171t21.5 183.5q0 98 -21.5 189t-66.5 171t-127 128t-188.5 48t-188.5 -50t-127 -132t-66.5 -171t-21.5 -183zM360 1567l291 319h215l289 -319h-205l-192 162l-193 -162h-205z" />
<glyph unicode="&#xd5;" horiz-adv-x="1515" d="M133 716.5q0 110.5 20.5 213t67.5 201t117 170t178.5 114.5t241.5 43t241.5 -43t178 -114.5t116.5 -170t67.5 -201t20.5 -213t-20.5 -213t-67.5 -200.5t-116.5 -170t-178 -115t-241.5 -43t-241.5 43t-178.5 115t-117 170t-67.5 200.5t-20.5 213zM354 717 q0 -98 21.5 -189.5t66.5 -171.5t127 -128t188.5 -48t188.5 50.5t127 132t66.5 171t21.5 183.5q0 98 -21.5 189t-66.5 171t-127 128t-188.5 48t-188.5 -50t-127 -132t-66.5 -171t-21.5 -183zM381 1597q0 266 215 267q78 0 185.5 -49.5t152.5 -49.5q90 0 96 90h105 q0 -266 -215 -266q-78 0 -185.5 49.5t-152.5 49.5q-90 0 -97 -91h-104z" />
<glyph unicode="&#xd6;" horiz-adv-x="1515" d="M133 716.5q0 110.5 20.5 213t67.5 201t117 170t178.5 114.5t241.5 43t241.5 -43t178 -114.5t116.5 -170t67.5 -201t20.5 -213t-20.5 -213t-67.5 -200.5t-116.5 -170t-178 -115t-241.5 -43t-241.5 43t-178.5 115t-117 170t-67.5 200.5t-20.5 213zM354 717 q0 -98 21.5 -189.5t66.5 -171.5t127 -128t188.5 -48t188.5 50.5t127 132t66.5 171t21.5 183.5q0 98 -21.5 189t-66.5 171t-127 128t-188.5 48t-188.5 -50t-127 -132t-66.5 -171t-21.5 -183zM444 1726.5q0 53.5 38 91t91.5 37.5t91 -37.5t37.5 -91t-37.5 -91.5t-91 -38 t-91.5 38t-38 91.5zM813 1726.5q0 53.5 38 91t91 37.5t91 -37.5t38 -91t-38 -91.5t-91 -38t-91 38t-38 91.5z" />
<glyph unicode="&#xd7;" horiz-adv-x="1290" d="M170 381l326 324l-324 323l147 148l324 -324l324 326l153 -154l-325 -324l323 -323l-147 -148l-324 324l-323 -326z" />
<glyph unicode="&#xd8;" horiz-adv-x="1495" d="M123 717q0 111 20.5 213t67.5 200.5t116.5 170t178 114.5t242.5 43q195 0 335 -92l64 92h215l-148 -215q158 -205 158 -526q0 -111 -20.5 -213.5t-67.5 -200.5t-116.5 -170t-178 -115t-241.5 -43q-195 0 -336 93l-64 -93h-215l146 213q-156 203 -156 529zM344 717 q0 -193 72 -330l547 801q-92 66 -215 65q-106 0 -188.5 -50t-127.5 -132t-66.5 -171t-21.5 -183zM532 246q93 -66 216 -66q106 0 188 50.5t127 132t66.5 171t21.5 183.5q0 193 -72 327z" />
<glyph unicode="&#xd9;" horiz-adv-x="1427" d="M174 543v891h213v-891q0 -201 86 -282t239.5 -81t240.5 81t87 282v891h213v-891q0 -299 -145 -433.5t-395 -134.5q-244 0 -391.5 134.5t-147.5 433.5zM391 1886h291l291 -319h-217z" />
<glyph unicode="&#xda;" horiz-adv-x="1427" d="M174 543v891h213v-891q0 -201 86 -282t239.5 -81t240.5 81t87 282v891h213v-891q0 -299 -145 -433.5t-395 -134.5q-244 0 -391.5 134.5t-147.5 433.5zM494 1567l290 319h291l-364 -319h-217z" />
<glyph unicode="&#xdb;" horiz-adv-x="1427" d="M174 543v891h213v-891q0 -201 86 -282t239.5 -81t240.5 81t87 282v891h213v-891q0 -299 -145 -433.5t-395 -134.5q-244 0 -391.5 134.5t-147.5 433.5zM317 1567l291 319h215l289 -319h-205l-192 162l-193 -162h-205z" />
<glyph unicode="&#xdc;" horiz-adv-x="1427" d="M174 543v891h213v-891q0 -201 86 -282t239.5 -81t240.5 81t87 282v891h213v-891q0 -299 -145 -433.5t-395 -134.5q-244 0 -391.5 134.5t-147.5 433.5zM401 1726.5q0 53.5 38 91t91.5 37.5t91 -37.5t37.5 -91t-37.5 -91.5t-91 -38t-91.5 38t-38 91.5zM770 1726.5 q0 53.5 38 91t91 37.5t91 -37.5t38 -91t-38 -91.5t-91 -38t-91 38t-38 91.5z" />
<glyph unicode="&#xdd;" horiz-adv-x="1363" d="M72 1434h243l367 -656l367 656h243l-504 -871v-563h-213v561zM463 1567l291 319h290l-364 -319h-217z" />
<glyph unicode="&#xde;" horiz-adv-x="1314" d="M184 0v1434h213v-267h363q244 0 358.5 -127t114.5 -311q0 -172 -119 -305t-354 -133h-363v-291h-213zM397 496h375q123 0 181.5 68.5t58.5 164.5q0 92 -56.5 163t-183.5 71h-375v-467z" />
<glyph unicode="&#xdf;" horiz-adv-x="1142" d="M133 -410v1379q0 248 126 368.5t308 120.5q188 0 304 -103.5t116 -271.5q0 -102 -48 -181t-144 -114q127 -39 196.5 -133t69.5 -223q0 -211 -122 -334t-312 -123q-109 0 -195 33l109 176q43 -12 88 -12q86 0 152.5 65.5t66.5 188.5q0 106 -70.5 180t-212.5 74h-45v197h45 q94 0 151.5 50t57.5 144q0 88 -53 139.5t-152 51.5q-223 0 -223 -287v-1286z" />
<glyph unicode="&#xe0;" horiz-adv-x="1089" d="M92 326q0 170 117 258t285 88q154 0 258 -62v58q0 117 -53.5 166t-170.5 49q-172 0 -299 -95l-63 175q158 109 391 108q78 0 139.5 -13.5t125 -51t99 -121.5t35.5 -207v-678h-204v90q-111 -115 -287 -115q-166 0 -269.5 91.5t-103.5 259.5zM172 1499h291l291 -319h-217z M297 326q0 -76 53.5 -119t153.5 -43q147 0 248 112v160q-96 51 -224 51q-102 0 -166.5 -39.5t-64.5 -121.5z" />
<glyph unicode="&#xe1;" horiz-adv-x="1089" d="M92 326q0 170 117 258t285 88q154 0 258 -62v58q0 117 -53.5 166t-170.5 49q-172 0 -299 -95l-63 175q158 109 391 108q78 0 139.5 -13.5t125 -51t99 -121.5t35.5 -207v-678h-204v90q-111 -115 -287 -115q-166 0 -269.5 91.5t-103.5 259.5zM297 326q0 -76 53.5 -119 t153.5 -43q147 0 248 112v160q-96 51 -224 51q-102 0 -166.5 -39.5t-64.5 -121.5zM342 1180l291 319h291l-365 -319h-217z" />
<glyph unicode="&#xe2;" horiz-adv-x="1089" d="M92 326q0 170 117 258t285 88q154 0 258 -62v58q0 117 -53.5 166t-170.5 49q-172 0 -299 -95l-63 175q158 109 391 108q78 0 139.5 -13.5t125 -51t99 -121.5t35.5 -207v-678h-204v90q-111 -115 -287 -115q-166 0 -269.5 91.5t-103.5 259.5zM160 1180l291 319h215 l288 -319h-204l-193 161l-192 -161h-205zM297 326q0 -76 53.5 -119t153.5 -43q147 0 248 112v160q-96 51 -224 51q-102 0 -166.5 -39.5t-64.5 -121.5z" />
<glyph unicode="&#xe3;" horiz-adv-x="1089" d="M92 326q0 170 117 258t285 88q154 0 258 -62v58q0 117 -53.5 166t-170.5 49q-172 0 -299 -95l-63 175q158 109 391 108q78 0 139.5 -13.5t125 -51t99 -121.5t35.5 -207v-678h-204v90q-111 -115 -287 -115q-166 0 -269.5 91.5t-103.5 259.5zM180 1210q0 266 215 267 q78 0 185.5 -49.5t152.5 -49.5q90 0 96 90h105q0 -266 -215 -266q-78 0 -185.5 49t-152.5 49q-90 0 -96 -90h-105zM297 326q0 -76 53.5 -119t153.5 -43q147 0 248 112v160q-96 51 -224 51q-102 0 -166.5 -39.5t-64.5 -121.5z" />
<glyph unicode="&#xe4;" horiz-adv-x="1089" d="M92 326q0 170 117 258t285 88q154 0 258 -62v58q0 117 -53.5 166t-170.5 49q-172 0 -299 -95l-63 175q158 109 391 108q78 0 139.5 -13.5t125 -51t99 -121.5t35.5 -207v-678h-204v90q-111 -115 -287 -115q-166 0 -269.5 91.5t-103.5 259.5zM244 1339.5q0 53.5 37.5 91 t91 37.5t91.5 -37.5t38 -91t-38 -91.5t-91.5 -38t-91 38t-37.5 91.5zM297 326q0 -76 53.5 -119t153.5 -43q147 0 248 112v160q-96 51 -224 51q-102 0 -166.5 -39.5t-64.5 -121.5zM612 1339.5q0 53.5 38 91t91.5 37.5t91 -37.5t37.5 -91t-37.5 -91.5t-91 -38t-91.5 38 t-38 91.5z" />
<glyph unicode="&#xe5;" horiz-adv-x="1089" d="M92 326q0 170 117 258t285 88q154 0 258 -62v58q0 117 -53.5 166t-170.5 49q-172 0 -299 -95l-63 175q158 109 391 108q78 0 139.5 -13.5t125 -51t99 -121.5t35.5 -207v-678h-204v90q-111 -115 -287 -115q-166 0 -269.5 91.5t-103.5 259.5zM297 326q0 -76 53.5 -119 t153.5 -43q147 0 248 112v160q-96 51 -224 51q-102 0 -166.5 -39.5t-64.5 -121.5zM305 1411q0 102 75 175t177 73t177 -73t75 -175t-75 -176t-177 -74t-177 74t-75 176zM465 1411q0 -41 26.5 -68.5t65.5 -27.5t65.5 27.5t26.5 68.5t-26.5 68.5t-65.5 27.5t-65.5 -27.5 t-26.5 -68.5z" />
<glyph unicode="&#xe6;" horiz-adv-x="1757" d="M92 326q0 170 117 258t285 88q154 0 258 -62v58q0 117 -53.5 166t-170.5 49q-172 0 -299 -95l-63 175q158 109 391 108q229 0 320 -135q129 135 337 135q197 0 324 -125t127 -364q0 -88 -8 -138h-703q2 -125 80 -202.5t183 -77.5q135 0 217 106l139 -143 q-127 -152 -359 -152q-236 0 -366 166q-160 -166 -383 -166q-166 0 -269.5 91.5t-103.5 259.5zM297 326q0 -76 53.5 -119t153.5 -43q147 0 248 112v160q-96 51 -224 51q-102 0 -166.5 -39.5t-64.5 -121.5zM954 625h496q-2 129 -71.5 193.5t-164.5 64.5q-109 0 -180.5 -63.5 t-79.5 -194.5z" />
<glyph unicode="&#xe7;" horiz-adv-x="1060" d="M102 522q0 256 123 402.5t334 146.5q305 0 395 -270l-202 -70q-51 135 -185 135q-119 0 -183.5 -91t-64.5 -253q0 -160 63.5 -251t176.5 -91q152 0 197 154l202 -64q-78 -268 -348 -293l-49 -79q113 0 169 -50.5t56 -126.5q0 -94 -70.5 -152t-187.5 -58q-133 0 -204 77 l104 76q25 -31 80 -31q45 0 73.5 25t28.5 66q0 39 -31.5 63.5t-78.5 24.5q-49 0 -82 -21l-41 51l110 140q-180 23 -282.5 165t-102.5 375z" />
<glyph unicode="&#xe8;" horiz-adv-x="1120" d="M102 524q0 256 129 401.5t347 145.5q197 0 323.5 -125t126.5 -364q0 -88 -8 -138h-705q2 -125 81 -202.5t184 -77.5q135 0 217 106l139 -143q-127 -152 -358 -152q-219 0 -347.5 146.5t-128.5 402.5zM254 1499h291l291 -319h-218zM315 616h500q-2 135 -71.5 201 t-165.5 66q-109 0 -182 -65t-81 -202z" />
<glyph unicode="&#xe9;" horiz-adv-x="1120" d="M102 524q0 256 129 401.5t347 145.5q197 0 323.5 -125t126.5 -364q0 -88 -8 -138h-705q2 -125 81 -202.5t184 -77.5q135 0 217 106l139 -143q-127 -152 -358 -152q-219 0 -347.5 146.5t-128.5 402.5zM315 616h500q-2 135 -71.5 201t-165.5 66q-109 0 -182 -65t-81 -202z M322 1180l290 319h291l-364 -319h-217z" />
<glyph unicode="&#xea;" horiz-adv-x="1120" d="M102 524q0 256 129 401.5t347 145.5q197 0 323.5 -125t126.5 -364q0 -88 -8 -138h-705q2 -125 81 -202.5t184 -77.5q135 0 217 106l139 -143q-127 -152 -358 -152q-219 0 -347.5 146.5t-128.5 402.5zM180 1180l291 319h215l289 -319h-205l-192 161l-193 -161h-205z M315 616h500q-2 135 -71.5 201t-165.5 66q-109 0 -182 -65t-81 -202z" />
<glyph unicode="&#xeb;" horiz-adv-x="1120" d="M102 524q0 256 129 401.5t347 145.5q197 0 323.5 -125t126.5 -364q0 -88 -8 -138h-705q2 -125 81 -202.5t184 -77.5q135 0 217 106l139 -143q-127 -152 -358 -152q-219 0 -347.5 146.5t-128.5 402.5zM264 1339.5q0 53.5 38 91t91 37.5t91 -37.5t38 -91t-38 -91.5t-91 -38 t-91 38t-38 91.5zM315 616h500q-2 135 -71.5 201t-165.5 66q-109 0 -182 -65t-81 -202zM633 1339.5q0 53.5 38 91t91 37.5t91 -37.5t38 -91t-38 -91.5t-91 -38t-91 38t-38 91.5z" />
<glyph unicode="&#xec;" horiz-adv-x="524" d="M-102 1499h290l291 -319h-217zM156 0v1047h213v-1047h-213z" />
<glyph unicode="&#xed;" horiz-adv-x="524" d="M45 1180l291 319h291l-365 -319h-217zM156 0v1047h213v-1047h-213z" />
<glyph unicode="&#xee;" horiz-adv-x="524" d="M-135 1180l291 319h215l288 -319h-204l-193 161l-192 -161h-205zM156 0v1047h213v-1047h-213z" />
<glyph unicode="&#xef;" horiz-adv-x="524" d="M-51 1339.5q0 53.5 38 91t91 37.5t91 -37.5t38 -91t-38 -91.5t-91 -38t-91 38t-38 91.5zM156 0v1047h213v-1047h-213zM317 1339.5q0 53.5 38 91t91.5 37.5t91 -37.5t37.5 -91t-37.5 -91.5t-91 -38t-91.5 38t-38 91.5z" />
<glyph unicode="&#xf0;" horiz-adv-x="1161" d="M102 453q0 209 133.5 345t323.5 136q92 0 169 -40t112 -103q-49 236 -207 362l-127 -133l-113 106l103 107q-98 39 -222 45v180q201 -6 357 -82l119 123l112 -108l-96 -101q293 -238 293 -739q0 -254 -121.5 -415t-357.5 -161q-207 0 -342.5 135.5t-135.5 342.5zM315 453 q0 -117 77 -197t188 -80q113 0 189.5 79t76.5 196q0 123 -76 202.5t-192 79.5q-115 0 -189 -77.5t-74 -202.5z" />
<glyph unicode="&#xf1;" d="M154 0v1047h213v-101q98 125 270 125q377 0 377 -446v-625h-213v625q0 125 -57.5 185t-151.5 60q-225 0 -225 -241v-629h-213zM215 1210q0 266 215 267q78 0 185.5 -49.5t152.5 -49.5q90 0 96 90h105q0 -266 -215 -266q-78 0 -185.5 49t-152.5 49q-90 0 -97 -90h-104z " />
<glyph unicode="&#xf2;" horiz-adv-x="1161" d="M102 522q0 256 128 402.5t349.5 146.5t350.5 -146.5t129 -402.5t-129 -401.5t-350.5 -145.5t-349.5 145.5t-128 401.5zM258 1499h291l291 -319h-217zM315 522q0 -160 72 -253t193 -93q123 0 194.5 92t71.5 254t-72 255t-194 93q-121 0 -193 -93t-72 -255z" />
<glyph unicode="&#xf3;" horiz-adv-x="1161" d="M102 522q0 256 128 402.5t349.5 146.5t350.5 -146.5t129 -402.5t-129 -401.5t-350.5 -145.5t-349.5 145.5t-128 401.5zM315 522q0 -160 72 -253t193 -93q123 0 194.5 92t71.5 254t-72 255t-194 93q-121 0 -193 -93t-72 -255zM326 1180l290 319h291l-364 -319h-217z" />
<glyph unicode="&#xf4;" horiz-adv-x="1161" d="M102 522q0 256 128 402.5t349.5 146.5t350.5 -146.5t129 -402.5t-129 -401.5t-350.5 -145.5t-349.5 145.5t-128 401.5zM184 1180l291 319h215l289 -319h-205l-192 161l-193 -161h-205zM315 522q0 -160 72 -253t193 -93q123 0 194.5 92t71.5 254t-72 255t-194 93 q-121 0 -193 -93t-72 -255z" />
<glyph unicode="&#xf5;" horiz-adv-x="1161" d="M102 522q0 256 128 402.5t349.5 146.5t350.5 -146.5t129 -402.5t-129 -401.5t-350.5 -145.5t-349.5 145.5t-128 401.5zM205 1210q0 266 215 267q78 0 185.5 -49.5t152.5 -49.5q90 0 96 90h104q0 -266 -215 -266q-78 0 -185 49t-152 49q-90 0 -97 -90h-104zM315 522 q0 -160 72 -253t193 -93q123 0 194.5 92t71.5 254t-72 255t-194 93q-121 0 -193 -93t-72 -255z" />
<glyph unicode="&#xf6;" horiz-adv-x="1161" d="M102 522q0 256 128 402.5t349.5 146.5t350.5 -146.5t129 -402.5t-129 -401.5t-350.5 -145.5t-349.5 145.5t-128 401.5zM268 1339.5q0 53.5 38 91t91.5 37.5t91 -37.5t37.5 -91t-37.5 -91.5t-91 -38t-91.5 38t-38 91.5zM315 522q0 -160 72 -253t193 -93q123 0 194.5 92 t71.5 254t-72 255t-194 93q-121 0 -193 -93t-72 -255zM637 1339.5q0 53.5 38 91t91 37.5t91 -37.5t38 -91t-38 -91.5t-91 -38t-91 38t-38 91.5z" />
<glyph unicode="&#xf7;" horiz-adv-x="1290" d="M164 600v205h962v-205h-962zM510 309q0 55 38 93t95 38t96 -39t39 -92t-39 -91t-96 -38t-95 38t-38 91zM510 1093.5q0 53.5 38 92.5t95 39t96 -39t39 -92.5t-39 -91t-96 -37.5t-95 37.5t-38 91z" />
<glyph unicode="&#xf8;" horiz-adv-x="1161" d="M102 -25l113 164q-113 145 -113 383q0 256 128 402.5t350 146.5q137 0 243 -59l41 59h195l-115 -164q115 -147 115 -385q0 -256 -129 -401.5t-350 -145.5q-137 0 -244 60l-41 -60h-193zM315 522q0 -111 35 -190l352 508q-51 31 -122 30q-121 0 -193 -93t-72 -255z M457 207q51 -31 123 -31q123 0 194.5 92t71.5 254q0 111 -35 193z" />
<glyph unicode="&#xf9;" d="M143 422v625h213v-625q0 -125 57.5 -185.5t151.5 -60.5q225 0 226 242v629h213v-1047h-213v100q-98 -125 -271 -125q-377 0 -377 447zM246 1499h291l290 -319h-217z" />
<glyph unicode="&#xfa;" d="M143 422v625h213v-625q0 -125 57.5 -185.5t151.5 -60.5q225 0 226 242v629h213v-1047h-213v100q-98 -125 -271 -125q-377 0 -377 447zM313 1180l291 319h291l-365 -319h-217z" />
<glyph unicode="&#xfb;" d="M143 422v625h213v-625q0 -125 57.5 -185.5t151.5 -60.5q225 0 226 242v629h213v-1047h-213v100q-98 -125 -271 -125q-377 0 -377 447zM172 1180l291 319h215l289 -319h-205l-193 161l-192 -161h-205z" />
<glyph unicode="&#xfc;" d="M143 422v625h213v-625q0 -125 57.5 -185.5t151.5 -60.5q225 0 226 242v629h213v-1047h-213v100q-98 -125 -271 -125q-377 0 -377 447zM256 1339.5q0 53.5 38 91t91 37.5t91 -37.5t38 -91t-38 -91.5t-91 -38t-91 38t-38 91.5zM625 1339.5q0 53.5 37.5 91t91 37.5 t91.5 -37.5t38 -91t-38 -91.5t-91.5 -38t-91 38t-37.5 91.5z" />
<glyph unicode="&#xfd;" horiz-adv-x="1101" d="M51 1047h211l258 -685q18 -47 29 -92q10 45 29 92l260 685h213l-553 -1444h-217l161 415zM293 1180l291 319h290l-364 -319h-217z" />
<glyph unicode="&#xfe;" horiz-adv-x="1150" d="M154 -412v1770l213 100v-495q98 109 251 108q199 0 315 -146.5t116 -402.5q0 -254 -118 -400.5t-313 -146.5q-160 0 -251 115v-403zM367 297q90 -121 221 -121q121 0 184.5 89t63.5 257q0 156 -65.5 252t-182.5 96q-147 0 -221 -118v-455z" />
<glyph unicode="&#xff;" horiz-adv-x="1101" d="M51 1047h211l258 -685q18 -47 29 -92q10 45 29 92l260 685h213l-553 -1444h-217l161 415zM236 1339.5q0 53.5 37.5 91t91 37.5t91.5 -37.5t38 -91t-38 -91.5t-91.5 -38t-91 38t-37.5 91.5zM604 1339.5q0 53.5 38 91t91 37.5t91 -37.5t38 -91t-38 -91.5t-91 -38t-91 38 t-38 91.5z" />
<glyph unicode="&#x100;" horiz-adv-x="1425" d="M86 0l518 1434h219l516 -1434h-221l-114 330h-580l-117 -330h-221zM375 1610v176h676v-176h-676zM489 518h449l-174 488q-37 100 -49 161q-18 -74 -49 -161z" />
<glyph unicode="&#x101;" horiz-adv-x="1089" d="M92 326q0 170 117 258t285 88q154 0 258 -62v58q0 117 -53.5 166t-170.5 49q-172 0 -299 -95l-63 175q158 109 391 108q78 0 139.5 -13.5t125 -51t99 -121.5t35.5 -207v-678h-204v90q-111 -115 -287 -115q-166 0 -269.5 91.5t-103.5 259.5zM219 1223v176h676v-176h-676z M297 326q0 -76 53.5 -119t153.5 -43q147 0 248 112v160q-96 51 -224 51q-102 0 -166.5 -39.5t-64.5 -121.5z" />
<glyph unicode="&#x102;" horiz-adv-x="1425" d="M86 0l518 1434h219l516 -1434h-221l-114 330h-580l-117 -330h-221zM334 1907h180q0 -74 53.5 -121t145.5 -47t146 48t54 120h181q0 -147 -97.5 -243.5t-284 -96.5t-282.5 96t-96 244zM489 518h449l-174 488q-37 100 -49 161q-18 -74 -49 -161z" />
<glyph unicode="&#x103;" horiz-adv-x="1089" d="M92 326q0 170 117 258t285 88q154 0 258 -62v58q0 117 -53.5 166t-170.5 49q-172 0 -299 -95l-63 175q158 109 391 108q78 0 139.5 -13.5t125 -51t99 -121.5t35.5 -207v-678h-204v90q-111 -115 -287 -115q-166 0 -269.5 91.5t-103.5 259.5zM178 1520h180q0 -74 53.5 -121 t145.5 -47t146.5 48t54.5 120h180q0 -147 -97.5 -243.5t-283.5 -96.5t-282.5 96t-96.5 244zM297 326q0 -76 53.5 -119t153.5 -43q147 0 248 112v160q-96 51 -224 51q-102 0 -166.5 -39.5t-64.5 -121.5z" />
<glyph unicode="&#x104;" horiz-adv-x="1425" d="M86 0l518 1434h219l516 -1434q-109 0 -199.5 -81t-90.5 -179q0 -51 28.5 -79t73.5 -28q53 0 84 39l104 -75q-78 -86 -219 -86q-113 0 -180.5 56t-67.5 154q0 188 246 279l-114 330h-580l-117 -330h-221zM489 518h449l-174 488q-37 100 -49 161q-18 -74 -49 -161z" />
<glyph unicode="&#x105;" horiz-adv-x="1089" d="M92 326q0 170 117 258t285 88q154 0 258 -62v58q0 117 -53.5 166t-170.5 49q-172 0 -299 -95l-63 175q158 109 391 108q78 0 139.5 -13.5t125 -51t99 -121.5t35.5 -207v-678q-121 -25 -189.5 -102.5t-68.5 -157.5q0 -51 29 -79t74 -28q53 0 84 39l104 -75 q-78 -86 -219 -86q-113 0 -180.5 56t-67.5 154q0 184 230 279v90q-111 -115 -287 -115q-166 0 -269.5 91.5t-103.5 259.5zM297 326q0 -76 53.5 -119t153.5 -43q147 0 248 112v160q-96 51 -224 51q-102 0 -166.5 -39.5t-64.5 -121.5z" />
<glyph unicode="&#x106;" horiz-adv-x="1331" d="M133 717q0 131 33 256t99.5 236.5t186 180t277.5 68.5q188 0 313 -83t175 -201l-195 -91q-55 88 -121.5 129t-171.5 41q-102 0 -178 -49t-117 -131t-60.5 -171t-19.5 -185q0 -213 96.5 -375t278.5 -162q180 0 291 185l199 -76q-136 -314 -490 -314q-129 0 -232.5 43 t-170 115t-111.5 170t-63.5 200.5t-18.5 213.5zM510 1567l291 319h291l-365 -319h-217z" />
<glyph unicode="&#x107;" horiz-adv-x="1060" d="M102 522q0 256 123 402.5t334 146.5q305 0 395 -270l-202 -70q-51 135 -185 135q-119 0 -183.5 -91t-64.5 -253q0 -160 63.5 -251t176.5 -91q152 0 197 154l202 -64q-84 -295 -399 -295q-211 0 -334 145.5t-123 401.5zM301 1180l291 319h291l-365 -319h-217z" />
<glyph unicode="&#x108;" horiz-adv-x="1331" d="M133 717q0 131 33 256t99.5 236.5t186 180t277.5 68.5q188 0 313 -83t175 -201l-195 -91q-55 88 -121.5 129t-171.5 41q-102 0 -178 -49t-117 -131t-60.5 -171t-19.5 -185q0 -213 96.5 -375t278.5 -162q180 0 291 185l199 -76q-136 -314 -490 -314q-129 0 -232.5 43 t-170 115t-111.5 170t-63.5 200.5t-18.5 213.5zM330 1567l291 319h215l288 -319h-204l-193 162l-192 -162h-205z" />
<glyph unicode="&#x109;" horiz-adv-x="1060" d="M102 522q0 256 123 402.5t334 146.5q305 0 395 -270l-202 -70q-51 135 -185 135q-119 0 -183.5 -91t-64.5 -253q0 -160 63.5 -251t176.5 -91q152 0 197 154l202 -64q-84 -295 -399 -295q-211 0 -334 145.5t-123 401.5zM160 1180l291 319h215l288 -319h-204l-193 161 l-192 -161h-205z" />
<glyph unicode="&#x10a;" horiz-adv-x="1331" d="M133 717q0 131 33 256t99.5 236.5t186 180t277.5 68.5q188 0 313 -83t175 -201l-195 -91q-55 88 -121.5 129t-171.5 41q-102 0 -178 -49t-117 -131t-60.5 -171t-19.5 -185q0 -213 96.5 -375t278.5 -162q180 0 291 185l199 -76q-136 -314 -490 -314q-129 0 -232.5 43 t-170 115t-111.5 170t-63.5 200.5t-18.5 213.5zM598 1726.5q0 53.5 38 91t91 37.5t91 -37.5t38 -91t-38 -91.5t-91 -38t-91 38t-38 91.5z" />
<glyph unicode="&#x10b;" horiz-adv-x="1060" d="M102 522q0 256 123 402.5t334 146.5q305 0 395 -270l-202 -70q-51 135 -185 135q-119 0 -183.5 -91t-64.5 -253q0 -160 63.5 -251t176.5 -91q152 0 197 154l202 -64q-84 -295 -399 -295q-211 0 -334 145.5t-123 401.5zM428 1339.5q0 53.5 38 91t91 37.5t91 -37.5t38 -91 t-38 -91.5t-91 -38t-91 38t-38 91.5z" />
<glyph unicode="&#x10c;" horiz-adv-x="1331" d="M133 717q0 131 33 256t99.5 236.5t186 180t277.5 68.5q188 0 313 -83t175 -201l-195 -91q-55 88 -121.5 129t-171.5 41q-102 0 -178 -49t-117 -131t-60.5 -171t-19.5 -185q0 -213 96.5 -375t278.5 -162q180 0 291 185l199 -76q-136 -314 -490 -314q-129 0 -232.5 43 t-170 115t-111.5 170t-63.5 200.5t-18.5 213.5zM330 1886h205l192 -162l193 162h204l-290 -319h-216z" />
<glyph unicode="&#x10d;" horiz-adv-x="1060" d="M102 522q0 256 123 402.5t334 146.5q305 0 395 -270l-202 -70q-51 135 -185 135q-119 0 -183.5 -91t-64.5 -253q0 -160 63.5 -251t176.5 -91q152 0 197 154l202 -64q-84 -295 -399 -295q-211 0 -334 145.5t-123 401.5zM160 1499h205l192 -162l193 162h204l-290 -319h-215 z" />
<glyph unicode="&#x10e;" horiz-adv-x="1402" d="M184 0v1434h402q180 0 316 -61.5t214 -166t116 -227.5t38 -262q0 -133 -36 -253t-111.5 -227.5t-216 -172t-328.5 -64.5h-394zM236 1886h204l193 -162l192 162h205l-291 -319h-215zM397 201h215q117 0 205 46t137.5 122.5t72 164t22.5 183.5q0 215 -104.5 365.5 t-309.5 150.5h-238v-1032z" />
<glyph unicode="&#x10f;" horiz-adv-x="1478" d="M102 524q0 254 120 400.5t315 146.5q154 0 247 -98v407l213 99v-1479h-213v74q-87 -99 -247 -99q-199 0 -317 146.5t-118 402.5zM315 524q0 -156 67.5 -252t184.5 -96q143 0 217 119v461q-29 47 -85 80.5t-132 33.5q-121 0 -186.5 -90t-65.5 -256zM1161 1006 q59 123 60 452h206v-16q0 -289 -200 -486z" />
<glyph unicode="&#x110;" horiz-adv-x="1402" d="M51 618v197h133v619h402q180 0 316 -61.5t214 -166t116 -227.5t38 -262q0 -133 -36 -253t-111.5 -227.5t-216 -172t-328.5 -64.5h-394v618h-133zM397 201h215q117 0 205 46t137.5 122.5t72 164t22.5 183.5q0 215 -104.5 365.5t-309.5 150.5h-238v-418h310v-197h-310v-417 z" />
<glyph unicode="&#x111;" horiz-adv-x="1150" d="M102 494q0 233 120 372.5t315 139.5q154 0 247 -99v203h-260v180h260v90l213 99v-189h123v-180h-123v-1110h-213v74q-88 -98 -247 -99q-199 0 -317 141.5t-118 377.5zM315 494q0 -133 68.5 -225.5t183.5 -92.5q143 0 217 119v395q-29 47 -85 81t-132 34 q-119 0 -185.5 -83t-66.5 -228z" />
<glyph unicode="&#x112;" horiz-adv-x="1230" d="M184 0v1434h889v-201h-676v-393h437v-201h-437v-438h721v-201h-934zM291 1610v176h676v-176h-676z" />
<glyph unicode="&#x113;" horiz-adv-x="1120" d="M102 524q0 256 129 401.5t347 145.5q197 0 323.5 -125t126.5 -364q0 -88 -8 -138h-705q2 -125 81 -202.5t184 -77.5q135 0 217 106l139 -143q-127 -152 -358 -152q-219 0 -347.5 146.5t-128.5 402.5zM240 1223v176h675v-176h-675zM315 616h500q-2 135 -71.5 201 t-165.5 66q-109 0 -182 -65t-81 -202z" />
<glyph unicode="&#x114;" horiz-adv-x="1230" d="M184 0v1434h889v-201h-676v-393h437v-201h-437v-438h721v-201h-934zM250 1907h180q0 -74 53.5 -121t145.5 -47t146 48t54 120h181q0 -147 -97.5 -243.5t-284 -96.5t-282.5 96t-96 244z" />
<glyph unicode="&#x115;" horiz-adv-x="1120" d="M102 524q0 256 129 401.5t347 145.5q197 0 323.5 -125t126.5 -364q0 -88 -8 -138h-705q2 -125 81 -202.5t184 -77.5q135 0 217 106l139 -143q-127 -152 -358 -152q-219 0 -347.5 146.5t-128.5 402.5zM199 1520h180q0 -74 53 -121t145.5 -47t146.5 48t54 120h180 q0 -147 -97 -243.5t-283.5 -96.5t-282.5 96t-96 244zM315 616h500q-2 135 -71.5 201t-165.5 66q-109 0 -182 -65t-81 -202z" />
<glyph unicode="&#x116;" horiz-adv-x="1230" d="M184 0v1434h889v-201h-676v-393h437v-201h-437v-438h721v-201h-934zM500 1726.5q0 53.5 37.5 91t91 37.5t91.5 -37.5t38 -91t-38 -91.5t-91.5 -38t-91 38t-37.5 91.5z" />
<glyph unicode="&#x117;" horiz-adv-x="1120" d="M102 524q0 256 129 401.5t347 145.5q197 0 323.5 -125t126.5 -364q0 -88 -8 -138h-705q2 -125 81 -202.5t184 -77.5q135 0 217 106l139 -143q-127 -152 -358 -152q-219 0 -347.5 146.5t-128.5 402.5zM315 616h500q-2 135 -71.5 201t-165.5 66q-109 0 -182 -65t-81 -202z M449 1339.5q0 53.5 37.5 91t91 37.5t91.5 -37.5t38 -91t-38 -91.5t-91.5 -38t-91 38t-37.5 91.5z" />
<glyph unicode="&#x118;" horiz-adv-x="1230" d="M184 0v1434h889v-201h-676v-393h437v-201h-437v-438h721v-201h-55q-135 0 -219 -87t-84 -173q0 -51 28.5 -79t73.5 -28q53 0 84 39l105 -75q-79 -86 -220 -86q-113 0 -180 56t-67 154q0 90 60.5 163t164.5 116h-625z" />
<glyph unicode="&#x119;" horiz-adv-x="1120" d="M102 524q0 256 129 401.5t347 145.5q197 0 323.5 -125t126.5 -364q0 -88 -8 -138h-705q2 -125 81 -202.5t184 -77.5q135 0 217 106l139 -143q-45 -55 -176 -131q-57 -33 -83 -50.5t-66 -51t-56 -71.5t-16 -83q0 -51 28.5 -79t73.5 -28q53 0 84 39l104 -75 q-78 -86 -219 -86q-113 0 -180.5 56t-67.5 154q0 162 181 254q-205 14 -323 159t-118 390zM315 616h500q-2 135 -71.5 201t-165.5 66q-109 0 -181.5 -64.5t-81.5 -202.5z" />
<glyph unicode="&#x11a;" horiz-adv-x="1230" d="M184 0v1434h889v-201h-676v-393h437v-201h-437v-438h721v-201h-934zM231 1886h205l193 -162l192 162h205l-291 -319h-215z" />
<glyph unicode="&#x11b;" horiz-adv-x="1120" d="M102 524q0 256 129 401.5t347 145.5q197 0 323.5 -125t126.5 -364q0 -88 -8 -138h-705q2 -125 81 -202.5t184 -77.5q135 0 217 106l139 -143q-127 -152 -358 -152q-219 0 -347.5 146.5t-128.5 402.5zM180 1499h205l193 -162l192 162h205l-291 -319h-215zM315 616h500 q-2 135 -71.5 201t-165.5 66q-109 0 -182 -65t-81 -202z" />
<glyph unicode="&#x11c;" horiz-adv-x="1413" d="M133 717q0 135 39 264t112.5 237.5t196.5 174t277 65.5q188 0 299.5 -72.5t189.5 -199.5l-192 -111q-121 174 -297 174q-90 0 -161 -32.5t-116 -86t-74.5 -124t-41 -142t-11.5 -147.5q0 -225 101.5 -379t302.5 -154q133 0 218 87t85 216v29h-258v201h477v-187 q0 -262 -146.5 -408.5t-375.5 -146.5q-160 0 -284 62.5t-195.5 169t-108.5 235.5t-37 275zM360 1567l291 319h215l289 -319h-205l-192 162l-193 -162h-205z" />
<glyph unicode="&#x11d;" horiz-adv-x="1150" d="M102 524q0 254 120 400.5t315 146.5q154 0 247 -98v74h213v-979q0 -242 -120.5 -351t-372.5 -127l-107 164q217 12 302 72.5t85 165.5v92q-88 -109 -252 -109q-188 0 -309 142.5t-121 406.5zM197 1180l290 319h215l289 -319h-205l-192 161l-193 -161h-204zM315 524 q0 -160 68.5 -254t187.5 -94q139 0 213 123v453q-33 53 -91 85.5t-122 32.5q-125 0 -190.5 -89t-65.5 -257z" />
<glyph unicode="&#x11e;" horiz-adv-x="1413" d="M133 717q0 135 39 264t112.5 237.5t196.5 174t277 65.5q188 0 299.5 -72.5t189.5 -199.5l-192 -111q-121 174 -297 174q-90 0 -161 -32.5t-116 -86t-74.5 -124t-41 -142t-11.5 -147.5q0 -225 101.5 -379t302.5 -154q133 0 218 87t85 216v29h-258v201h477v-187 q0 -262 -146.5 -408.5t-375.5 -146.5q-160 0 -284 62.5t-195.5 169t-108.5 235.5t-37 275zM379 1907h180q0 -74 53.5 -121t145.5 -47t146 48t54 120h181q0 -147 -97.5 -243.5t-284 -96.5t-282.5 96t-96 244z" />
<glyph unicode="&#x11f;" horiz-adv-x="1150" d="M102 524q0 254 120 400.5t315 146.5q154 0 247 -98v74h213v-979q0 -242 -120.5 -351t-372.5 -127l-107 164q217 12 302 72.5t85 165.5v92q-88 -109 -252 -109q-188 0 -309 142.5t-121 406.5zM215 1520h180q0 -74 53.5 -121t145.5 -47t146.5 48t54.5 120h180 q0 -147 -97.5 -243.5t-283.5 -96.5t-282.5 96t-96.5 244zM315 524q0 -160 68.5 -254t187.5 -94q139 0 213 123v453q-33 53 -91 85.5t-122 32.5q-125 0 -190.5 -89t-65.5 -257z" />
<glyph unicode="&#x120;" horiz-adv-x="1413" d="M133 717q0 135 39 264t112.5 237.5t196.5 174t277 65.5q188 0 299.5 -72.5t189.5 -199.5l-192 -111q-121 174 -297 174q-90 0 -161 -32.5t-116 -86t-74.5 -124t-41 -142t-11.5 -147.5q0 -225 101.5 -379t302.5 -154q133 0 218 87t85 216v29h-258v201h477v-187 q0 -262 -146.5 -408.5t-375.5 -146.5q-160 0 -284 62.5t-195.5 169t-108.5 235.5t-37 275zM629 1726.5q0 53.5 38 91t91 37.5t91 -37.5t38 -91t-38 -91.5t-91 -38t-91 38t-38 91.5z" />
<glyph unicode="&#x121;" horiz-adv-x="1150" d="M102 524q0 254 120 400.5t315 146.5q154 0 247 -98v74h213v-979q0 -242 -120.5 -351t-372.5 -127l-107 164q217 12 302 72.5t85 165.5v92q-88 -109 -252 -109q-188 0 -309 142.5t-121 406.5zM315 524q0 -160 68.5 -254t187.5 -94q139 0 213 123v453q-33 53 -91 85.5 t-122 32.5q-125 0 -190.5 -89t-65.5 -257zM465 1339.5q0 53.5 38 91t91 37.5t91 -37.5t38 -91t-38 -91.5t-91 -38t-91 38t-38 91.5z" />
<glyph unicode="&#x122;" horiz-adv-x="1413" d="M133 717q0 135 39 264t112.5 237.5t196.5 174t277 65.5q188 0 299.5 -72.5t189.5 -199.5l-192 -111q-121 174 -297 174q-90 0 -161 -32.5t-116 -86t-74.5 -124t-41 -142t-11.5 -147.5q0 -225 101.5 -379t302.5 -154q133 0 218 87t85 216v29h-258v201h477v-187 q0 -262 -146.5 -408.5t-375.5 -146.5q-160 0 -284 62.5t-195.5 169t-108.5 235.5t-37 275zM625 -227q0 59 38.5 97t92.5 38q59 0 98 -40t39 -108q0 -168 -168 -301l-70 45q74 63 103 144q-55 0 -94 35.5t-39 89.5z" />
<glyph unicode="&#x123;" horiz-adv-x="1150" d="M102 524q0 254 120 400.5t315 146.5q154 0 247 -98v74h213v-979q0 -242 -120.5 -351t-372.5 -127l-107 164q217 12 302 72.5t85 165.5v92q-88 -109 -252 -109q-188 0 -309 142.5t-121 406.5zM315 524q0 -160 68.5 -254t187.5 -94q139 0 213 123v453q-33 53 -91 85.5 t-122 32.5q-125 0 -190.5 -89t-65.5 -257zM459 1358q0 168 168 301l69 -45q-74 -63 -102 -144q55 0 94 -35.5t39 -88.5q0 -59 -39 -97.5t-92 -38.5q-59 0 -98 40t-39 108z" />
<glyph unicode="&#x124;" horiz-adv-x="1447" d="M184 0v1434h213v-594h654v594h213v-1434h-213v639h-654v-639h-213zM328 1567l290 319h216l288 -319h-204l-193 162l-193 -162h-204z" />
<glyph unicode="&#x125;" d="M154 0v1380l213 99v-533q98 125 270 125q377 0 377 -446v-625h-213v625q0 125 -57.5 185t-151.5 60q-225 0 -225 -241v-629h-213zM195 1567l290 319h215l289 -319h-205l-192 162l-193 -162h-204z" />
<glyph unicode="&#x126;" horiz-adv-x="1447" d="M0 1053v200h184v181h213v-181h654v181h213v-181h184v-200h-184v-1053h-213v639h-654v-639h-213v1053h-184zM397 840h654v213h-654v-213z" />
<glyph unicode="&#x127;" d="M31 1110v180h123v90l213 99v-189h290v-180h-290v-225q98 125 270 125q377 0 377 -447v-563h-213v563q0 125 -57.5 185.5t-151.5 60.5q-225 0 -225 -242v-567h-213v1110h-123z" />
<glyph unicode="&#x128;" horiz-adv-x="602" d="M-76 1597q0 266 215 267q78 0 185.5 -49.5t152.5 -49.5q90 0 96 90h105q0 -266 -215 -266q-78 0 -185.5 49.5t-152.5 49.5q-90 0 -96 -91h-105zM195 0v1434h213v-1434h-213z" />
<glyph unicode="&#x129;" horiz-adv-x="524" d="M-115 1210q0 266 215 267q78 0 185.5 -49.5t152.5 -49.5q90 0 97 90h104q0 -266 -215 -266q-78 0 -185.5 49t-152.5 49q-90 0 -96 -90h-105zM156 0v1047h213v-1047h-213z" />
<glyph unicode="&#x12a;" horiz-adv-x="602" d="M-37 1610v176h676v-176h-676zM195 0v1434h213v-1434h-213z" />
<glyph unicode="&#x12b;" horiz-adv-x="524" d="M-76 1223v176h676v-176h-676zM156 0v1047h213v-1047h-213z" />
<glyph unicode="&#x12c;" horiz-adv-x="602" d="M-78 1907h180q0 -74 53.5 -121t145.5 -47t146.5 48t54.5 120h180q0 -147 -97.5 -243.5t-283.5 -96.5t-282.5 96t-96.5 244zM195 0v1434h213v-1434h-213z" />
<glyph unicode="&#x12d;" horiz-adv-x="524" d="M-117 1520h180q0 -74 53.5 -121t145.5 -47t146.5 48t54.5 120h180q0 -147 -97 -243.5t-283.5 -96.5t-283 96t-96.5 244zM156 0v1047h213v-1047h-213z" />
<glyph unicode="&#x12e;" horiz-adv-x="602" d="M-37 -279q0 90 61.5 163t170.5 116v1434h213v-1434q-137 -39 -203 -109.5t-66 -150.5q0 -51 29 -79t74 -28q53 0 84 39l104 -75q-78 -86 -219 -86q-113 0 -180.5 56t-67.5 154z" />
<glyph unicode="&#x12f;" horiz-adv-x="524" d="M-72 -279q0 184 228 279v1047h213v-1047q-133 -39 -199 -109.5t-66 -150.5q0 -51 29 -79t74 -28q53 0 84 39l104 -75q-78 -86 -219 -86q-113 0 -180.5 56t-67.5 154zM133 1339.5q0 53.5 38 91t91 37.5t91 -37.5t38 -91t-38 -91.5t-91 -38t-91 38t-38 91.5z" />
<glyph unicode="&#x130;" horiz-adv-x="602" d="M172 1726.5q0 53.5 38 91t91 37.5t91 -37.5t38 -91t-38 -91.5t-91 -38t-91 38t-38 91.5zM195 0v1434h213v-1434h-213z" />
<glyph unicode="&#x131;" horiz-adv-x="524" d="M156 0v1047h213v-1047h-213z" />
<glyph unicode="&#x132;" horiz-adv-x="1759" d="M195 0v1434h213v-1434h-213zM653 246l185 90q76 -156 270 -156q119 0 191.5 71t72.5 259v924h213v-953q0 -143 -43 -246.5t-115.5 -157.5t-151.5 -78t-167 -24q-156 0 -274.5 70t-180.5 201z" />
<glyph unicode="&#x133;" horiz-adv-x="1048" d="M133 1339.5q0 53.5 38 91t91 37.5t91 -37.5t38 -91t-38 -91.5t-91 -38t-91 38t-38 91.5zM156 0v1047h213v-1047h-213zM395 -281q162 35 223.5 90.5t61.5 167.5v1070h213v-998q0 -229 -98 -332q-109 -114 -297 -155zM657 1339.5q0 53.5 38 91t91.5 37.5t91 -37.5t37.5 -91 t-37.5 -91.5t-91 -38t-91.5 38t-38 91.5z" />
<glyph unicode="&#x134;" d="M51 246l185 90q76 -156 270 -156q119 0 191.5 71t72.5 259v924h213v-953q0 -143 -43 -246.5t-115.5 -157.5t-151.5 -78t-167 -24q-156 0 -274.5 70t-180.5 201zM481 1567l291 319h215l289 -319h-205l-192 162l-193 -162h-205z" />
<glyph unicode="&#x135;" horiz-adv-x="524" d="M-135 1180l291 319h215l288 -319h-204l-193 161l-192 -161h-205zM-129 -281q162 35 223.5 90.5t61.5 167.5v1070h213v-998q0 -229 -99 -332q-109 -114 -297 -155z" />
<glyph unicode="&#x136;" horiz-adv-x="1386" d="M184 0v1434h213v-695l553 695h246l-401 -504l510 -930h-250l-404 750l-254 -308v-442h-213zM563 -227q0 59 39 97t92 38q59 0 98 -40t39 -108q0 -168 -167 -301l-70 45q74 63 102 144q-55 0 -94 35.5t-39 89.5z" />
<glyph unicode="&#x137;" horiz-adv-x="1126" d="M154 0v1378l213 101v-756l309 324h262l-287 -291l393 -756h-233l-309 602l-135 -135v-467h-213zM432 -227q0 59 39 97t92 38q59 0 98 -40t39 -108q0 -168 -168 -301l-69 45q74 63 102 144q-55 0 -94 35.5t-39 89.5z" />
<glyph unicode="&#x138;" horiz-adv-x="1116" d="M154 0v1047h213v-486l387 486h241l-317 -392l356 -655h-235l-260 485l-172 -209v-276h-213z" />
<glyph unicode="&#x139;" horiz-adv-x="1148" d="M80 1567l291 319h291l-365 -319h-217zM184 0v1434h213v-1229h701v-205h-914z" />
<glyph unicode="&#x13a;" horiz-adv-x="540" d="M14 1548l291 320h291l-365 -320h-217zM164 0v1378l213 101v-1479h-213z" />
<glyph unicode="&#x13b;" horiz-adv-x="1148" d="M184 0v1434h213v-1229h701v-205h-914zM514 -227q0 59 39 97t92 38q59 0 98 -40t39 -108q0 -168 -168 -301l-69 45q74 63 102 144q-55 0 -94 35.5t-39 89.5z" />
<glyph unicode="&#x13c;" horiz-adv-x="540" d="M139 -227q0 59 39 97t92 38q59 0 98.5 -40t39.5 -108q0 -168 -168 -301l-70 45q74 63 102 144q-55 0 -94 35.5t-39 89.5zM164 0v1378l213 101v-1479h-213z" />
<glyph unicode="&#x13d;" horiz-adv-x="1148" d="M-104 1886h204l193 -162l192 162h205l-291 -319h-215zM184 0v1434h213v-1229h701v-205h-914z" />
<glyph unicode="&#x13e;" horiz-adv-x="858" d="M164 0v1378l213 101v-1479h-213zM541 1006q59 123 59 452h207v-16q0 -289 -201 -486z" />
<glyph unicode="&#x13f;" horiz-adv-x="1148" d="M184 0v1434h213v-1229h701v-205h-914zM733 714.5q0 61.5 44 106.5t110 45q63 0 109 -45t46 -106.5t-46 -105.5t-109 -44q-66 0 -110 44t-44 105.5z" />
<glyph unicode="&#x140;" horiz-adv-x="784" d="M164 0v1378l213 101v-1479h-213zM496 647.5q0 61.5 44 106.5t109 45q63 0 109.5 -45t46.5 -106.5t-46.5 -105.5t-109.5 -44q-66 0 -109.5 44t-43.5 105.5z" />
<glyph unicode="&#x141;" horiz-adv-x="1148" d="M41 379v235l143 109v711h213v-547l269 205v-236l-269 -205v-446h701v-205h-914v487z" />
<glyph unicode="&#x142;" horiz-adv-x="540" d="M41 395v199l123 94v690l213 101v-629l123 94v-199l-123 -94v-651h-213v489z" />
<glyph unicode="&#x143;" horiz-adv-x="1454" d="M184 0v1434h215l605 -957q23 -37 59 -110q-6 61 -6 108v959h213v-1434h-201l-620 973q-29 45 -58 106q6 -98 6 -106v-973h-213zM532 1569l291 319h291l-364 -319h-218z" />
<glyph unicode="&#x144;" d="M154 0v1047h213v-101q98 125 270 125q377 0 377 -446v-625h-213v625q0 125 -57.5 185t-151.5 60q-225 0 -225 -241v-629h-213zM336 1180l291 319h291l-365 -319h-217z" />
<glyph unicode="&#x145;" horiz-adv-x="1454" d="M184 0v1434h215l605 -957q23 -37 59 -110q-6 61 -6 108v959h213v-1434h-201l-620 973q-29 45 -58 106q6 -98 6 -106v-973h-213zM596 -227q0 59 39 97t92 38q59 0 98 -40t39 -108q0 -168 -168 -301l-69 45q74 63 102 144q-55 0 -94 35.5t-39 89.5z" />
<glyph unicode="&#x146;" d="M154 0v1047h213v-101q98 125 270 125q377 0 377 -446v-625h-213v625q0 125 -57.5 185t-151.5 60q-225 0 -225 -241v-629h-213zM449 -227q0 59 38.5 97t92.5 38q59 0 98 -40t39 -108q0 -168 -168 -301l-70 45q74 63 103 144q-55 0 -94 35.5t-39 89.5z" />
<glyph unicode="&#x147;" horiz-adv-x="1454" d="M184 0v1434h215l605 -957q23 -37 59 -110q-6 61 -6 108v959h213v-1434h-201l-620 973q-29 45 -58 106q6 -98 6 -106v-973h-213zM350 1886h205l193 -162l192 162h205l-291 -319h-215z" />
<glyph unicode="&#x148;" d="M154 0v1047h213v-101q98 125 270 125q377 0 377 -446v-625h-213v625q0 125 -57.5 185t-151.5 60q-225 0 -225 -241v-629h-213zM195 1499h204l193 -162l192 162h205l-291 -319h-215z" />
<glyph unicode="&#x149;" horiz-adv-x="1542" d="M72 1303q0 68 45 111.5t106 43.5q70 0 116 -48t46 -138q0 -113 -62.5 -215.5t-158.5 -161.5l-80 51q37 33 77 93.5t48 119.5q-55 4 -96 44t-41 100zM539 0v1047h213v-101q98 125 270 125q377 0 377 -446v-625h-213v625q0 125 -57.5 185t-151.5 60q-225 0 -225 -241v-629 h-213z" />
<glyph unicode="&#x14a;" horiz-adv-x="1454" d="M184 0v1434h215l605 -957q23 -37 59 -110q-6 61 -6 108v959h213v-1446q0 -221 -105 -332q-108 -113 -303 -156l-102 158q162 35 223 90t61 168v123l-598 938q-29 45 -55 102q6 -98 6 -106v-973h-213z" />
<glyph unicode="&#x14b;" d="M154 0v1047h213v-101q98 125 270 125q377 0 377 -446v-637q0 -229 -99 -332q-109 -115 -297 -156l-102 158q162 35 223.5 90t61.5 168v709q0 125 -57.5 185t-151.5 60q-225 0 -225 -241v-629h-213z" />
<glyph unicode="&#x14c;" horiz-adv-x="1515" d="M133 716.5q0 110.5 20.5 213t67.5 201t117 170t178.5 114.5t241.5 43t241.5 -43t178 -114.5t116.5 -170t67.5 -201t20.5 -213t-20.5 -213t-67.5 -200.5t-116.5 -170t-178 -115t-241.5 -43t-241.5 43t-178.5 115t-117 170t-67.5 200.5t-20.5 213zM354 717 q0 -98 21.5 -189.5t66.5 -171.5t127 -128t188.5 -48t188.5 50.5t127 132t66.5 171t21.5 183.5q0 98 -21.5 189t-66.5 171t-127 128t-188.5 48t-188.5 -50t-127 -132t-66.5 -171t-21.5 -183zM420 1610v176h676v-176h-676z" />
<glyph unicode="&#x14d;" horiz-adv-x="1161" d="M102 522q0 256 128 402.5t349.5 146.5t350.5 -146.5t129 -402.5t-129 -401.5t-350.5 -145.5t-349.5 145.5t-128 401.5zM244 1223v176h676v-176h-676zM315 522q0 -160 72 -253t193 -93q123 0 194.5 92t71.5 254t-72 255t-194 93q-121 0 -193 -93t-72 -255z" />
<glyph unicode="&#x14e;" horiz-adv-x="1515" d="M133 716.5q0 110.5 20.5 213t67.5 201t117 170t178.5 114.5t241.5 43t241.5 -43t178 -114.5t116.5 -170t67.5 -201t20.5 -213t-20.5 -213t-67.5 -200.5t-116.5 -170t-178 -115t-241.5 -43t-241.5 43t-178.5 115t-117 170t-67.5 200.5t-20.5 213zM354 717 q0 -98 21.5 -189.5t66.5 -171.5t127 -128t188.5 -48t188.5 50.5t127 132t66.5 171t21.5 183.5q0 98 -21.5 189t-66.5 171t-127 128t-188.5 48t-188.5 -50t-127 -132t-66.5 -171t-21.5 -183zM379 1907h180q0 -74 53.5 -121t145.5 -47t146 48t54 120h181q0 -147 -97.5 -243.5 t-284 -96.5t-282.5 96t-96 244z" />
<glyph unicode="&#x14f;" horiz-adv-x="1161" d="M102 522q0 256 128 402.5t349.5 146.5t350.5 -146.5t129 -402.5t-129 -401.5t-350.5 -145.5t-349.5 145.5t-128 401.5zM203 1520h180q0 -74 53 -121t145.5 -47t146.5 48t54 120h181q0 -147 -97.5 -243.5t-284 -96.5t-282.5 96t-96 244zM315 522q0 -160 72 -253t193 -93 q123 0 194.5 92t71.5 254t-72 255t-194 93q-121 0 -193 -93t-72 -255z" />
<glyph unicode="&#x150;" horiz-adv-x="1515" d="M133 716.5q0 110.5 20.5 213t67.5 201t117 170t178.5 114.5t241.5 43t241.5 -43t178 -114.5t116.5 -170t67.5 -201t20.5 -213t-20.5 -213t-67.5 -200.5t-116.5 -170t-178 -115t-241.5 -43t-241.5 43t-178.5 115t-117 170t-67.5 200.5t-20.5 213zM354 717 q0 -98 21.5 -189.5t66.5 -171.5t127 -128t188.5 -48t188.5 50.5t127 132t66.5 171t21.5 183.5q0 98 -21.5 189t-66.5 171t-127 128t-188.5 48t-188.5 -50t-127 -132t-66.5 -171t-21.5 -183zM365 1567l290 319h291l-364 -319h-217zM795 1567l290 319h291l-364 -319h-217z" />
<glyph unicode="&#x151;" horiz-adv-x="1161" d="M102 522q0 256 128 402.5t349.5 146.5t350.5 -146.5t129 -402.5t-129 -401.5t-350.5 -145.5t-349.5 145.5t-128 401.5zM184 1180l291 319h291l-365 -319h-217zM315 522q0 -160 72 -253t193 -93q123 0 194.5 92t71.5 254t-72 255t-194 93q-121 0 -193 -93t-72 -255z M614 1180l291 319h291l-365 -319h-217z" />
<glyph unicode="&#x152;" horiz-adv-x="1830" d="M133 717q0 104 18.5 203.5t64.5 199t115.5 173t179.5 119.5t247 46q106 0 215 -35v11h786v-201h-573v-393h334v-201h-334v-438h618v-201h-831v10q-98 -35 -215 -35q-133 0 -241.5 43t-178.5 115t-117 170t-67.5 200.5t-20.5 213.5zM354 717q0 -100 21.5 -191.5 t66.5 -171.5t127.5 -127t188.5 -47q121 0 215 68v940q-90 66 -215 65q-141 0 -236.5 -89t-131.5 -204.5t-36 -242.5z" />
<glyph unicode="&#x153;" horiz-adv-x="1859" d="M102 522q0 256 128 402.5t350 146.5q240 0 370 -172q127 172 367 172q197 0 323.5 -125t126.5 -364q0 -88 -8 -138h-704q2 -125 79.5 -202.5t184.5 -77.5q135 0 217 106l139 -143q-127 -152 -358 -152q-238 0 -367 170q-128 -170 -370 -170q-221 0 -349.5 145.5 t-128.5 401.5zM315 522q0 -160 72 -253t193 -93q123 0 194.5 92t71.5 254t-72 255t-194 93q-121 0 -193 -93t-72 -255zM1055 616h499q-2 135 -71.5 201t-165.5 66q-109 0 -181.5 -65t-80.5 -202z" />
<glyph unicode="&#x154;" horiz-adv-x="1384" d="M184 0v1434h604q244 0 353.5 -121t109.5 -303q0 -137 -78.5 -251t-232.5 -155l295 -604h-244l-282 586h-312v-586h-213zM397 791h396q123 0 180 62t57 157q0 90 -54 154.5t-183 64.5h-396v-438zM416 1567l291 319h290l-364 -319h-217z" />
<glyph unicode="&#x155;" horiz-adv-x="813" d="M154 0v1047h213v-127q70 152 233 151q102 0 176 -63l-31 -197q-76 51 -165 51q-86 0 -149.5 -64.5t-63.5 -209.5v-588h-213zM233 1180l291 319h291l-364 -319h-218z" />
<glyph unicode="&#x156;" horiz-adv-x="1384" d="M184 0v1434h604q244 0 353.5 -121t109.5 -303q0 -137 -78.5 -251t-232.5 -155l295 -604h-244l-282 586h-312v-586h-213zM397 791h396q123 0 180 62t57 157q0 90 -54 154.5t-183 64.5h-396v-438zM561 -227q0 59 39 97t92 38q59 0 98 -40t39 -108q0 -168 -167 -301l-70 45 q74 63 102 144q-55 0 -94 35.5t-39 89.5z" />
<glyph unicode="&#x157;" horiz-adv-x="813" d="M127 -268q0 59 39 97t92 38q59 0 98 -40t39 -108q0 -168 -168 -301l-69 45q74 63 102 144q-55 0 -94 35.5t-39 89.5zM154 0v1047h213v-127q70 152 233 151q102 0 176 -63l-31 -197q-76 51 -165 51q-86 0 -149.5 -64.5t-63.5 -209.5v-588h-213z" />
<glyph unicode="&#x158;" horiz-adv-x="1384" d="M184 0v1434h604q244 0 353.5 -121t109.5 -303q0 -137 -78.5 -251t-232.5 -155l295 -604h-244l-282 586h-312v-586h-213zM274 1886h205l193 -162l192 162h205l-291 -319h-215zM397 791h396q123 0 180 62t57 157q0 90 -54 154.5t-183 64.5h-396v-438z" />
<glyph unicode="&#x159;" horiz-adv-x="813" d="M92 1499h205l192 -162l193 162h205l-291 -319h-215zM154 0v1047h213v-127q70 152 233 151q102 0 176 -63l-31 -197q-76 51 -165 51q-86 0 -149.5 -64.5t-63.5 -209.5v-588h-213z" />
<glyph unicode="&#x15a;" horiz-adv-x="1236" d="M102 324l201 73q45 -100 131 -158.5t199 -58.5q119 0 189.5 57.5t70.5 163.5q0 45 -19.5 83t-44 62.5t-76 50.5t-85 39t-99.5 36q-82 29 -122.5 45t-107.5 54t-100.5 76t-60 99.5t-26.5 136.5q0 158 122.5 266.5t333.5 108.5q176 0 290 -77.5t153 -206.5l-197 -66 q-29 66 -95.5 105.5t-166.5 39.5q-102 0 -160.5 -45t-58.5 -127q0 -55 45 -98t94 -63.5t150 -55.5q61 -23 90.5 -34t87 -37.5t88 -48t71.5 -58.5t62.5 -75t37 -92t15.5 -116q0 -201 -137 -314.5t-352 -113.5q-190 0 -329.5 93.5t-193.5 255.5zM391 1567l291 319h291 l-365 -319h-217z" />
<glyph unicode="&#x15b;" horiz-adv-x="972" d="M82 145l151 129q113 -106 240 -106q184 0 184 113q0 39 -34.5 71.5t-69.5 48t-113 45.5q-172 57 -253 135t-81 201q0 135 103.5 212t261.5 77q236 0 367 -158l-154 -122q-84 88 -213 88q-68 0 -107.5 -26t-39.5 -71q0 -47 48 -76.5t154 -70.5q178 -59 261 -139t83 -215 q0 -147 -105.5 -226.5t-287.5 -79.5q-123 0 -231.5 46.5t-163.5 123.5zM236 1180l290 319h291l-364 -319h-217z" />
<glyph unicode="&#x15c;" horiz-adv-x="1236" d="M102 324l201 73q45 -100 131 -158.5t199 -58.5q119 0 189.5 57.5t70.5 163.5q0 45 -19.5 83t-44 62.5t-76 50.5t-85 39t-99.5 36q-82 29 -122.5 45t-107.5 54t-100.5 76t-60 99.5t-26.5 136.5q0 158 122.5 266.5t333.5 108.5q176 0 290 -77.5t153 -206.5l-197 -66 q-29 66 -95.5 105.5t-166.5 39.5q-102 0 -160.5 -45t-58.5 -127q0 -55 45 -98t94 -63.5t150 -55.5q61 -23 90.5 -34t87 -37.5t88 -48t71.5 -58.5t62.5 -75t37 -92t15.5 -116q0 -201 -137 -314.5t-352 -113.5q-190 0 -329.5 93.5t-193.5 255.5zM213 1567l291 319h215 l289 -319h-205l-193 162l-192 -162h-205z" />
<glyph unicode="&#x15d;" horiz-adv-x="972" d="M74 1180l291 319h215l288 -319h-204l-193 161l-192 -161h-205zM82 145l151 129q113 -106 240 -106q184 0 184 113q0 39 -34.5 71.5t-69.5 48t-113 45.5q-172 57 -253 135t-81 201q0 135 103.5 212t261.5 77q236 0 367 -158l-154 -122q-84 88 -213 88q-68 0 -107.5 -26 t-39.5 -71q0 -47 48 -76.5t154 -70.5q178 -59 261 -139t83 -215q0 -147 -105.5 -226.5t-287.5 -79.5q-123 0 -231.5 46.5t-163.5 123.5z" />
<glyph unicode="&#x15e;" horiz-adv-x="1236" d="M102 324l201 73q45 -100 131 -158.5t199 -58.5q119 0 189.5 57.5t70.5 163.5q0 45 -19.5 83t-44 62.5t-76 50.5t-85 39t-99.5 36q-82 29 -122.5 45t-107.5 54t-100.5 76t-60 99.5t-26.5 136.5q0 158 122.5 266.5t333.5 108.5q176 0 290 -77.5t153 -206.5l-197 -66 q-29 66 -95.5 105.5t-166.5 39.5q-102 0 -160.5 -45t-58.5 -127q0 -55 45 -98t94 -63.5t150 -55.5q61 -23 90.5 -34t87 -37.5t88 -48t71.5 -58.5t62.5 -75t37 -92t15.5 -116q0 -182 -115.5 -294.5t-302.5 -128.5l-49 -82q113 0 169 -50.5t56 -126.5q0 -94 -70.5 -152 t-187.5 -58q-133 0 -204 77l104 76q25 -31 80 -31q45 0 73.5 25t28.5 66q0 39 -31.5 63.5t-78.5 24.5q-49 0 -82 -21l-41 51l108 135q-172 14 -295.5 105.5t-173.5 241.5z" />
<glyph unicode="&#x15f;" horiz-adv-x="972" d="M82 145l151 129q113 -106 240 -106q184 0 184 113q0 29 -14 51t-50 42.5t-61.5 33t-83 35t-81.5 32.5q-61 27 -98.5 48.5t-79.5 57t-62.5 86t-20.5 115.5q0 135 103.5 212t261.5 77q236 0 367 -158l-154 -122q-84 88 -213 88q-68 0 -107.5 -26t-39.5 -71q0 -16 6 -30.5 t22.5 -28.5t29.5 -23.5t42 -22.5t46 -19.5t56 -21.5t56 -22q66 -27 108.5 -49t88.5 -61t68.5 -94.5t22.5 -128.5q0 -137 -90 -215t-250 -89l-49 -79q113 0 169.5 -50.5t56.5 -126.5q0 -94 -70.5 -152t-187.5 -58q-133 0 -205 77l104 76q25 -31 80 -31q45 0 73.5 25t28.5 66 q0 39 -31.5 63.5t-78.5 24.5q-49 0 -82 -21l-41 51l111 138q-227 27 -326 165z" />
<glyph unicode="&#x160;" horiz-adv-x="1236" d="M102 324l201 73q45 -100 131 -158.5t199 -58.5q119 0 189.5 57.5t70.5 163.5q0 45 -19.5 83t-44 62.5t-76 50.5t-85 39t-99.5 36q-82 29 -122.5 45t-107.5 54t-100.5 76t-60 99.5t-26.5 136.5q0 158 122.5 266.5t333.5 108.5q176 0 290 -77.5t153 -206.5l-197 -66 q-29 66 -95.5 105.5t-166.5 39.5q-102 0 -160.5 -45t-58.5 -127q0 -55 45 -98t94 -63.5t150 -55.5q61 -23 90.5 -34t87 -37.5t88 -48t71.5 -58.5t62.5 -75t37 -92t15.5 -116q0 -201 -137 -314.5t-352 -113.5q-190 0 -329.5 93.5t-193.5 255.5zM213 1886h205l192 -162 l193 162h205l-291 -319h-215z" />
<glyph unicode="&#x161;" horiz-adv-x="972" d="M74 1499h205l192 -162l193 162h204l-290 -319h-216zM82 145l151 129q113 -106 240 -106q184 0 184 113q0 39 -34.5 71.5t-69.5 48t-113 45.5q-172 57 -253 135t-81 201q0 135 103.5 212t261.5 77q236 0 367 -158l-154 -122q-84 88 -213 88q-68 0 -107.5 -26t-39.5 -71 q0 -47 48 -76.5t154 -70.5q178 -59 261 -139t83 -215q0 -147 -105.5 -226.5t-287.5 -79.5q-123 0 -231.5 46.5t-163.5 123.5z" />
<glyph unicode="&#x162;" horiz-adv-x="1208" d="M92 1229v205h1024v-205h-405v-1229h-45l-64 -102q113 0 169 -50.5t56 -126.5q0 -94 -70.5 -152t-187.5 -58q-133 0 -204 77l104 76q25 -31 80 -31q45 0 73.5 25t28.5 66q0 39 -31.5 63.5t-78.5 24.5q-49 0 -82 -21l-41 51l127 158h-47v1229h-406z" />
<glyph unicode="&#x163;" horiz-adv-x="776" d="M61 862v185h162v329l213 103v-432h248v-185h-248v-571q0 -119 103 -119q76 0 155 49l-26 -198q-76 -37 -162 -46q-18 -2 -27 -2l-47 -77q113 0 169 -50.5t56 -126.5q0 -94 -70.5 -152t-187.5 -58q-133 0 -204 77l104 76q25 -31 80 -31q45 0 73.5 25t28.5 66 q0 39 -31.5 63.5t-78.5 24.5q-49 0 -82 -21l-41 51l117 148q-141 43 -142 246v626h-162z" />
<glyph unicode="&#x164;" horiz-adv-x="1208" d="M92 1229v205h1024v-205h-405v-1229h-213v1229h-406zM207 1886h205l192 -162l193 162h204l-290 -319h-215z" />
<glyph unicode="&#x165;" horiz-adv-x="909" d="M61 862v185h162v329l213 103v-432h248v-185h-248v-571q0 -119 103 -119q76 0 155 49l-26 -198q-94 -48 -211 -48q-233 0 -234 261v626h-162zM592 1268q59 123 59 452h207v-16q0 -289 -201 -485z" />
<glyph unicode="&#x166;" horiz-adv-x="1187" d="M92 1229v205h1004v-205h-396v-477h246v-201h-246v-551h-213v551h-247v201h247v477h-395z" />
<glyph unicode="&#x167;" horiz-adv-x="796" d="M72 440v185h161v237h-161v185h161v329l213 103v-432h248v-185h-248v-237h248v-185h-248v-149q0 -119 103 -119q76 0 156 49l-27 -198q-94 -48 -211 -48q-233 0 -234 261v204h-161z" />
<glyph unicode="&#x168;" horiz-adv-x="1427" d="M174 543v891h213v-891q0 -201 86 -282t239.5 -81t240.5 81t87 282v891h213v-891q0 -299 -145 -433.5t-395 -134.5q-244 0 -391.5 134.5t-147.5 433.5zM338 1597q0 266 215 267q78 0 185.5 -49.5t152.5 -49.5q90 0 96 90h105q0 -266 -215 -266q-78 0 -185.5 49.5 t-152.5 49.5q-90 0 -97 -91h-104z" />
<glyph unicode="&#x169;" d="M143 422v625h213v-625q0 -125 57.5 -185.5t151.5 -60.5q225 0 226 242v629h213v-1047h-213v100q-98 -125 -271 -125q-377 0 -377 447zM193 1210q0 266 215 267q78 0 185 -49.5t152 -49.5q90 0 97 90h104q0 -266 -215 -266q-78 0 -185.5 49t-152.5 49q-90 0 -96 -90h-104z " />
<glyph unicode="&#x16a;" horiz-adv-x="1427" d="M174 543v891h213v-891q0 -201 86 -282t239.5 -81t240.5 81t87 282v891h213v-891q0 -299 -145 -433.5t-395 -134.5q-244 0 -391.5 134.5t-147.5 433.5zM377 1610v176h676v-176h-676z" />
<glyph unicode="&#x16b;" d="M143 422v625h213v-625q0 -125 57.5 -185.5t151.5 -60.5q225 0 226 242v629h213v-1047h-213v100q-98 -125 -271 -125q-377 0 -377 447zM231 1223v176h676v-176h-676z" />
<glyph unicode="&#x16c;" horiz-adv-x="1427" d="M174 543v891h213v-891q0 -201 86 -282t239.5 -81t240.5 81t87 282v891h213v-891q0 -299 -145 -433.5t-395 -134.5q-244 0 -391.5 134.5t-147.5 433.5zM336 1907h180q0 -74 53.5 -121t145.5 -47t146 48t54 120h181q0 -147 -97.5 -243.5t-284 -96.5t-282.5 96t-96 244z" />
<glyph unicode="&#x16d;" d="M143 422v625h213v-625q0 -125 57.5 -185.5t151.5 -60.5q225 0 226 242v629h213v-1047h-213v100q-98 -125 -271 -125q-377 0 -377 447zM190 1520h181q0 -74 53 -121t145.5 -47t146.5 48t54 120h180q0 -147 -97 -243.5t-283.5 -96.5t-283 96t-96.5 244z" />
<glyph unicode="&#x16e;" horiz-adv-x="1427" d="M174 543v891h213v-891q0 -201 86 -282t239.5 -81t240.5 81t87 282v891h213v-891q0 -299 -145 -433.5t-395 -134.5q-244 0 -391.5 134.5t-147.5 433.5zM463 1726.5q0 102.5 74.5 175t177 72.5t177.5 -72.5t75 -175t-75 -176t-177.5 -73.5t-177 73.5t-74.5 176zM623 1726.5 q0 -40.5 26.5 -68.5t65.5 -28t65.5 28t26.5 68.5t-26.5 68.5t-65.5 28t-65.5 -28t-26.5 -68.5z" />
<glyph unicode="&#x16f;" d="M143 422v625h213v-625q0 -125 57.5 -185.5t151.5 -60.5q225 0 226 242v629h213v-1047h-213v100q-98 -125 -271 -125q-377 0 -377 447zM317 1339.5q0 102.5 75 175t177.5 72.5t177 -72.5t74.5 -175t-74.5 -176t-177 -73.5t-177.5 73.5t-75 176zM477 1339q0 -41 26.5 -68.5 t65.5 -27.5t66 27.5t27 68.5t-27 69t-66 28t-65.5 -28t-26.5 -69z" />
<glyph unicode="&#x170;" horiz-adv-x="1427" d="M174 543v891h213v-891q0 -201 86 -282t239.5 -81t240.5 81t87 282v891h213v-891q0 -299 -145 -433.5t-395 -134.5q-244 0 -391.5 134.5t-147.5 433.5zM322 1567l290 319h291l-364 -319h-217zM752 1567l290 319h291l-364 -319h-217z" />
<glyph unicode="&#x171;" d="M143 422v625h213v-625q0 -125 57.5 -185.5t151.5 -60.5q225 0 226 242v629h213v-1047h-213v100q-98 -125 -271 -125q-377 0 -377 447zM176 1180l291 319h291l-365 -319h-217zM606 1180l291 319h291l-365 -319h-217z" />
<glyph unicode="&#x172;" horiz-adv-x="1427" d="M174 543v891h213v-891q0 -201 86 -282t239.5 -81t240.5 81t87 282v891h213v-891q0 -227 -80.5 -352t-230.5 -185q-246 -98 -246 -266q0 -51 29 -79t74 -28q53 0 84 39l104 -75q-78 -86 -219 -86q-113 0 -180.5 56t-67.5 154q0 160 176 254h-14q-231 8 -369.5 143.5 t-138.5 424.5z" />
<glyph unicode="&#x173;" d="M143 422v625h213v-625q0 -125 57.5 -185.5t151.5 -60.5q225 0 226 242v629h213v-1047q-133 -39 -199 -109.5t-66 -150.5q0 -51 29 -79t74 -28q53 0 84 39l104 -75q-78 -86 -219 -86q-113 0 -180.5 56t-67.5 154q0 184 228 279v100q-98 -125 -271 -125q-377 0 -377 447z " />
<glyph unicode="&#x174;" horiz-adv-x="1744" d="M92 1434h219l178 -883q27 -137 31 -166q2 27 37 166l225 883h179l231 -881q31 -115 37 -164q6 53 28 164l181 881h215l-310 -1434h-192l-248 930q-31 111 -35 155q-4 -45 -34 -155l-242 -930h-193zM475 1567l291 319h215l289 -319h-205l-193 162l-192 -162h-205z" />
<glyph unicode="&#x175;" horiz-adv-x="1486" d="M72 1047h209l147 -652q14 -61 21 -106q6 39 22 106l174 652h197l174 -652q16 -68 22 -106q6 45 21 106l147 652h209l-278 -1047h-189l-174 608q-25 84 -33 131q-10 -66 -30 -133l-172 -606h-189zM346 1180l291 319h215l289 -319h-205l-193 161l-192 -161h-205z" />
<glyph unicode="&#x176;" horiz-adv-x="1363" d="M72 1434h243l367 -656l367 656h243l-504 -871v-563h-213v561zM285 1567l290 319h216l288 -319h-205l-192 162l-193 -162h-204z" />
<glyph unicode="&#x177;" horiz-adv-x="1101" d="M51 1047h211l258 -685q18 -47 29 -92q10 45 29 92l260 685h213l-553 -1444h-217l161 415zM152 1180l290 319h215l289 -319h-205l-192 161l-193 -161h-204z" />
<glyph unicode="&#x178;" horiz-adv-x="1363" d="M72 1434h243l367 -656l367 656h243l-504 -871v-563h-213v561zM369 1726.5q0 53.5 37.5 91t91 37.5t91.5 -37.5t38 -91t-38 -91.5t-91.5 -38t-91 38t-37.5 91.5zM737 1726.5q0 53.5 38 91t91.5 37.5t91 -37.5t37.5 -91t-37.5 -91.5t-91 -38t-91.5 38t-38 91.5z" />
<glyph unicode="&#x179;" horiz-adv-x="1355" d="M113 0v172l827 1057h-780v205h1063v-172l-830 -1057h830v-205h-1110zM467 1567l291 319h291l-365 -319h-217z" />
<glyph unicode="&#x17a;" horiz-adv-x="1046" d="M113 0v174l555 684h-514v189h770v-168l-555 -691h553v-188h-809zM309 1180l291 319h291l-365 -319h-217z" />
<glyph unicode="&#x17b;" horiz-adv-x="1355" d="M113 0v172l827 1057h-780v205h1063v-172l-830 -1057h830v-205h-1110zM563 1726.5q0 53.5 38 91t91 37.5t91 -37.5t38 -91t-38 -91.5t-91 -38t-91 38t-38 91.5z" />
<glyph unicode="&#x17c;" horiz-adv-x="1046" d="M113 0v174l555 684h-514v189h770v-168l-555 -691h553v-188h-809zM395 1339.5q0 53.5 38 91t91.5 37.5t91 -37.5t37.5 -91t-37.5 -91.5t-91 -38t-91.5 38t-38 91.5z" />
<glyph unicode="&#x17d;" horiz-adv-x="1355" d="M113 0v172l827 1057h-780v205h1063v-172l-830 -1057h830v-205h-1110zM326 1886h204l193 -162l192 162h205l-291 -319h-215z" />
<glyph unicode="&#x17e;" horiz-adv-x="1046" d="M113 0v174l555 684h-514v189h770v-168l-555 -691h553v-188h-809zM127 1499h205l192 -162l193 162h205l-291 -319h-215z" />
<glyph unicode="&#x17f;" horiz-adv-x="622" d="M164 0v1214q0 133 67.5 188.5t171.5 55.5q111 0 209 -49v-176q-88 37 -149 37q-86 0 -86 -94v-1176h-213z" />
<glyph unicode="&#x192;" horiz-adv-x="747" d="M-35 -330q162 35 227.5 98.5t65.5 180.5v913h-156v185h156v167q0 133 67.5 188.5t172.5 55.5q111 0 209 -49v-172q-92 33 -150 33q-86 0 -86 -94v-129h236v-185h-236v-895q0 -197 -96 -308.5t-299 -158.5z" />
<glyph unicode="&#x1cd;" horiz-adv-x="1425" d="M86 0l518 1434h219l516 -1434h-221l-114 330h-580l-117 -330h-221zM315 1886h205l193 -162l192 162h205l-291 -319h-215zM489 518h449l-174 488q-37 100 -49 161q-18 -74 -49 -161z" />
<glyph unicode="&#x1ce;" horiz-adv-x="1089" d="M92 326q0 170 117 258t285 88q154 0 258 -62v58q0 117 -53.5 166t-170.5 49q-172 0 -299 -95l-63 175q158 109 391 108q78 0 139.5 -13.5t125 -51t99 -121.5t35.5 -207v-678h-204v90q-111 -115 -287 -115q-166 0 -269.5 91.5t-103.5 259.5zM160 1499h205l192 -162 l193 162h204l-290 -319h-215zM297 326q0 -76 53.5 -119t153.5 -43q147 0 248 112v160q-96 51 -224 51q-102 0 -166.5 -39.5t-64.5 -121.5z" />
<glyph unicode="&#x1cf;" horiz-adv-x="602" d="M-96 1886h205l192 -162l193 162h204l-290 -319h-215zM195 0v1434h213v-1434h-213z" />
<glyph unicode="&#x1d0;" horiz-adv-x="524" d="M-135 1499h205l192 -162l193 162h204l-290 -319h-215zM156 0v1047h213v-1047h-213z" />
<glyph unicode="&#x1d1;" horiz-adv-x="1515" d="M133 716.5q0 110.5 20.5 213t67.5 201t117 170t178.5 114.5t241.5 43t241.5 -43t178 -114.5t116.5 -170t67.5 -201t20.5 -213t-20.5 -213t-67.5 -200.5t-116.5 -170t-178 -115t-241.5 -43t-241.5 43t-178.5 115t-117 170t-67.5 200.5t-20.5 213zM354 717 q0 -98 21.5 -189.5t66.5 -171.5t127 -128t188.5 -48t188.5 50.5t127 132t66.5 171t21.5 183.5q0 98 -21.5 189t-66.5 171t-127 128t-188.5 48t-188.5 -50t-127 -132t-66.5 -171t-21.5 -183zM360 1886h205l193 -162l192 162h205l-291 -319h-215z" />
<glyph unicode="&#x1d2;" horiz-adv-x="1161" d="M102 522q0 256 128 402.5t349.5 146.5t350.5 -146.5t129 -402.5t-129 -401.5t-350.5 -145.5t-349.5 145.5t-128 401.5zM184 1499h205l193 -162l192 162h205l-291 -319h-215zM315 522q0 -160 72 -253t193 -93q123 0 194.5 92t71.5 254t-72 255t-194 93q-121 0 -193 -93 t-72 -255z" />
<glyph unicode="&#x1d3;" horiz-adv-x="1427" d="M174 543v891h213v-891q0 -201 86 -282t239.5 -81t240.5 81t87 282v891h213v-891q0 -299 -145 -433.5t-395 -134.5q-244 0 -391.5 134.5t-147.5 433.5zM317 1886h205l193 -162l192 162h205l-291 -319h-215z" />
<glyph unicode="&#x1d4;" d="M143 422v625h213v-625q0 -125 57.5 -185.5t151.5 -60.5q225 0 226 242v629h213v-1047h-213v100q-98 -125 -271 -125q-377 0 -377 447zM172 1499h205l192 -162l193 162h205l-291 -319h-215z" />
<glyph unicode="&#x1fc;" horiz-adv-x="1736" d="M-25 0l832 1434h801v-201h-561v-393h321v-201h-321v-438h606v-201h-819v330h-443l-186 -330h-230zM502 520h332v598q-33 -70 -84 -162zM788 1567l291 319h291l-364 -319h-218z" />
<glyph unicode="&#x1fd;" horiz-adv-x="1757" d="M92 326q0 170 117 258t285 88q154 0 258 -62v58q0 117 -53.5 166t-170.5 49q-172 0 -299 -95l-63 175q158 109 391 108q229 0 320 -135q129 135 337 135q197 0 324 -125t127 -364q0 -88 -8 -138h-703q2 -125 80 -202.5t183 -77.5q135 0 217 106l139 -143 q-127 -152 -359 -152q-236 0 -366 166q-160 -166 -383 -166q-166 0 -269.5 91.5t-103.5 259.5zM297 326q0 -76 53.5 -119t153.5 -43q147 0 248 112v160q-96 51 -224 51q-102 0 -166.5 -39.5t-64.5 -121.5zM672 1180l291 319h290l-364 -319h-217zM954 625h496 q-2 129 -71.5 193.5t-164.5 64.5q-109 0 -180.5 -63.5t-79.5 -194.5z" />
<glyph unicode="&#x1fe;" horiz-adv-x="1495" d="M123 717q0 111 20.5 213t67.5 200.5t116.5 170t178 114.5t242.5 43q195 0 335 -92l64 92h215l-148 -215q158 -205 158 -526q0 -111 -20.5 -213.5t-67.5 -200.5t-116.5 -170t-178 -115t-241.5 -43q-195 0 -336 93l-64 -93h-215l146 213q-156 203 -156 529zM344 717 q0 -193 72 -330l547 801q-92 66 -215 65q-106 0 -188.5 -50t-127.5 -132t-66.5 -171t-21.5 -183zM489 1567l291 319h291l-364 -319h-218zM532 246q93 -66 216 -66q106 0 188 50.5t127 132t66.5 171t21.5 183.5q0 193 -72 327z" />
<glyph unicode="&#x1ff;" horiz-adv-x="1161" d="M102 -25l113 164q-113 145 -113 383q0 256 128 402.5t350 146.5q137 0 243 -59l41 59h195l-115 -164q115 -147 115 -385q0 -256 -129 -401.5t-350 -145.5q-137 0 -244 60l-41 -60h-193zM315 522q0 -111 35 -190l352 508q-51 31 -122 30q-121 0 -193 -93t-72 -255z M324 1180l290 319h291l-364 -319h-217zM457 207q51 -31 123 -31q123 0 194.5 92t71.5 254q0 111 -35 193z" />
<glyph unicode="&#x218;" horiz-adv-x="1236" d="M102 324l201 73q45 -100 131 -158.5t199 -58.5q119 0 189.5 57.5t70.5 163.5q0 45 -19.5 83t-44 62.5t-76 50.5t-85 39t-99.5 36q-82 29 -122.5 45t-107.5 54t-100.5 76t-60 99.5t-26.5 136.5q0 158 122.5 266.5t333.5 108.5q176 0 290 -77.5t153 -206.5l-197 -66 q-29 66 -95.5 105.5t-166.5 39.5q-102 0 -160.5 -45t-58.5 -127q0 -55 45 -98t94 -63.5t150 -55.5q61 -23 90.5 -34t87 -37.5t88 -48t71.5 -58.5t62.5 -75t37 -92t15.5 -116q0 -201 -137 -314.5t-352 -113.5q-190 0 -329.5 93.5t-193.5 255.5zM487 -227q0 59 39 97t92 38 q59 0 98.5 -40t39.5 -108q0 -168 -168 -301l-70 45q74 63 103 144q-55 0 -94.5 35.5t-39.5 89.5z" />
<glyph unicode="&#x219;" horiz-adv-x="972" d="M82 145l151 129q113 -106 240 -106q184 0 184 113q0 39 -34.5 71.5t-69.5 48t-113 45.5q-172 57 -253 135t-81 201q0 135 103.5 212t261.5 77q236 0 367 -158l-154 -122q-84 88 -213 88q-68 0 -107.5 -26t-39.5 -71q0 -47 48 -76.5t154 -70.5q178 -59 261 -139t83 -215 q0 -147 -105.5 -226.5t-287.5 -79.5q-123 0 -231.5 46.5t-163.5 123.5zM352 -227q0 59 39 97t92 38q59 0 98.5 -40t39.5 -108q0 -168 -168 -301l-70 45q74 63 102 144q-55 0 -94 35.5t-39 89.5z" />
<glyph unicode="&#x21a;" horiz-adv-x="1208" d="M92 1229v205h1024v-205h-405v-1229h-213v1229h-406zM473 -227q0 59 39 97t92 38q59 0 98 -40t39 -108q0 -168 -168 -301l-69 45q74 63 102 144q-55 0 -94 35.5t-39 89.5z" />
<glyph unicode="&#x21b;" horiz-adv-x="776" d="M61 862v185h162v329l213 103v-432h248v-185h-248v-571q0 -119 103 -119q76 0 155 49l-26 -198q-94 -48 -211 -48q-233 0 -234 261v626h-162zM313 -227q0 59 39 97t92 38q59 0 98.5 -40t39.5 -108q0 -168 -168 -301l-70 45q74 63 102 144q-55 0 -94 35.5t-39 89.5z" />
<glyph unicode="&#x237;" horiz-adv-x="524" d="M-129 -281q162 35 223.5 90.5t61.5 167.5v1070h213v-998q0 -229 -99 -332q-109 -114 -297 -155z" />
<glyph unicode="&#x2c6;" horiz-adv-x="819" d="M12 1180l291 319h215l289 -319h-205l-192 161l-193 -161h-205z" />
<glyph unicode="&#x2c7;" horiz-adv-x="819" d="M12 1499h205l193 -162l192 162h205l-291 -319h-215z" />
<glyph unicode="&#x2c9;" horiz-adv-x="819" d="M72 1223v176h676v-176h-676z" />
<glyph unicode="&#x2d8;" horiz-adv-x="819" d="M31 1520h180q0 -74 53 -121t145.5 -47t146.5 48t54 120h181q0 -147 -97.5 -243.5t-284 -96.5t-282.5 96t-96 244z" />
<glyph unicode="&#x2d9;" horiz-adv-x="819" d="M281 1339.5q0 53.5 37.5 91t91 37.5t91.5 -37.5t38 -91t-38 -91.5t-91.5 -38t-91 38t-37.5 91.5z" />
<glyph unicode="&#x2da;" horiz-adv-x="819" d="M158 1339.5q0 102.5 74.5 175t177 72.5t177.5 -72.5t75 -175t-75 -176t-177.5 -73.5t-177 73.5t-74.5 176zM317 1339q0 -41 27 -68.5t66 -27.5t65.5 27.5t26.5 68.5t-26.5 69t-65.5 28t-66 -28t-27 -69z" />
<glyph unicode="&#x2db;" horiz-adv-x="819" d="M176 -279q0 100 74 178t207 121h153q-131 -53 -194.5 -127.5t-63.5 -152.5q0 -51 29 -79t74 -28q53 0 84 39l104 -75q-78 -86 -219 -86q-113 0 -180.5 56t-67.5 154z" />
<glyph unicode="&#x2dc;" horiz-adv-x="819" d="M33 1210q0 266 215 267q78 0 185.5 -49.5t152.5 -49.5q90 0 96 90h104q0 -266 -215 -266q-78 0 -185 49t-153 49q-90 0 -96 -90h-104z" />
<glyph unicode="&#x2dd;" horiz-adv-x="819" d="M16 1180l291 319h291l-365 -319h-217zM446 1180l291 319h291l-364 -319h-218z" />
<glyph unicode="&#x312;" horiz-adv-x="0" d="M-547 1358q0 168 168 301l70 -45q-74 -63 -103 -144q55 0 94 -35.5t39 -88.5q0 -59 -39 -97.5t-92 -38.5q-59 0 -98 40t-39 108z" />
<glyph unicode="&#x326;" horiz-adv-x="0" d="M-541 -227q0 59 39 97t92 38q59 0 98.5 -40t39.5 -108q0 -168 -168 -301l-70 45q74 63 102 144q-55 0 -94 35.5t-39 89.5z" />
<glyph unicode="&#x3a9;" horiz-adv-x="1536" d="M164 0v205h291q-281 209 -281 594q0 96 19.5 186t63.5 177t110.5 152.5t170 104.5t230.5 39t230.5 -39t170 -104.5t110.5 -152.5t63.5 -177t19.5 -186q0 -383 -283 -594h293v-205h-498v186q141 152 204 286t63 325q0 88 -19.5 165.5t-61.5 144.5t-117 106.5t-175 39.5 q-193 0 -283 -134t-90 -324q0 -188 62.5 -322.5t204.5 -286.5v-186h-498z" />
<glyph unicode="&#x3bc;" d="M143 -410v1457h213v-625q0 -137 53.5 -191.5t155.5 -54.5q225 0 226 242v629h213v-1047h-213v100q-98 -125 -250 -125q-121 0 -185 84v-368z" />
<glyph unicode="&#x3c0;" horiz-adv-x="1349" d="M61 96q59 37 97.5 72t79.5 97.5t61 162.5t20 238v159h-190v222h1135v-222h-244v-538q0 -119 102 -119q76 0 156 49l-31 -194q-94 -48 -207 -48q-233 0 -233 261v589h-285v-77q0 -315 -56 -507t-224 -286z" />
<glyph unicode="&#x1e80;" horiz-adv-x="1744" d="M92 1434h219l178 -883q27 -137 31 -166q2 27 37 166l225 883h179l231 -881q31 -115 37 -164q6 53 28 164l181 881h215l-310 -1434h-192l-248 930q-31 111 -35 155q-4 -45 -34 -155l-242 -930h-193zM549 1886h291l290 -319h-217z" />
<glyph unicode="&#x1e81;" horiz-adv-x="1486" d="M72 1047h209l147 -652q14 -61 21 -106q6 39 22 106l174 652h197l174 -652q16 -68 22 -106q6 45 21 106l147 652h209l-278 -1047h-189l-174 608q-25 84 -33 131q-10 -66 -30 -133l-172 -606h-189zM420 1499h291l290 -319h-217z" />
<glyph unicode="&#x1e82;" horiz-adv-x="1744" d="M92 1434h219l178 -883q27 -137 31 -166q2 27 37 166l225 883h179l231 -881q31 -115 37 -164q6 53 28 164l181 881h215l-310 -1434h-192l-248 930q-31 111 -35 155q-4 -45 -34 -155l-242 -930h-193zM616 1567l291 319h291l-364 -319h-218z" />
<glyph unicode="&#x1e83;" horiz-adv-x="1486" d="M72 1047h209l147 -652q14 -61 21 -106q6 39 22 106l174 652h197l174 -652q16 -68 22 -106q6 45 21 106l147 652h209l-278 -1047h-189l-174 608q-25 84 -33 131q-10 -66 -30 -133l-172 -606h-189zM487 1180l291 319h291l-364 -319h-218z" />
<glyph unicode="&#x1e84;" horiz-adv-x="1744" d="M92 1434h219l178 -883q27 -137 31 -166q2 27 37 166l225 883h179l231 -881q31 -115 37 -164q6 53 28 164l181 881h215l-310 -1434h-192l-248 930q-31 111 -35 155q-4 -45 -34 -155l-242 -930h-193zM559 1726.5q0 53.5 38 91t91 37.5t91 -37.5t38 -91t-38 -91.5t-91 -38 t-91 38t-38 91.5zM928 1726.5q0 53.5 38 91t91 37.5t91 -37.5t38 -91t-38 -91.5t-91 -38t-91 38t-38 91.5z" />
<glyph unicode="&#x1e85;" horiz-adv-x="1486" d="M72 1047h209l147 -652q14 -61 21 -106q6 39 22 106l174 652h197l174 -652q16 -68 22 -106q6 45 21 106l147 652h209l-278 -1047h-189l-174 608q-25 84 -33 131q-10 -66 -30 -133l-172 -606h-189zM430 1339.5q0 53.5 38 91t91 37.5t91 -37.5t38 -91t-38 -91.5t-91 -38 t-91 38t-38 91.5zM799 1339.5q0 53.5 37.5 91t91 37.5t91.5 -37.5t38 -91t-38 -91.5t-91.5 -38t-91 38t-37.5 91.5z" />
<glyph unicode="&#x1ef2;" horiz-adv-x="1363" d="M72 1434h243l367 -656l367 656h243l-504 -871v-563h-213v561zM291 1886h291l290 -319h-217z" />
<glyph unicode="&#x1ef3;" horiz-adv-x="1101" d="M51 1047h211l258 -685q18 -47 29 -92q10 45 29 92l260 685h213l-553 -1444h-217l161 415zM225 1499h291l291 -319h-217z" />
<glyph unicode="&#x2000;" horiz-adv-x="1087" />
<glyph unicode="&#x2001;" horiz-adv-x="2175" />
<glyph unicode="&#x2002;" horiz-adv-x="1087" />
<glyph unicode="&#x2003;" horiz-adv-x="2175" />
<glyph unicode="&#x2004;" horiz-adv-x="725" />
<glyph unicode="&#x2005;" horiz-adv-x="543" />
<glyph unicode="&#x2006;" horiz-adv-x="362" />
<glyph unicode="&#x2007;" horiz-adv-x="362" />
<glyph unicode="&#x2008;" horiz-adv-x="271" />
<glyph unicode="&#x2009;" horiz-adv-x="435" />
<glyph unicode="&#x200a;" horiz-adv-x="120" />
<glyph unicode="&#x2010;" horiz-adv-x="808" d="M154 506v205h501v-205h-501z" />
<glyph unicode="&#x2011;" horiz-adv-x="808" d="M154 506v205h501v-205h-501z" />
<glyph unicode="&#x2012;" horiz-adv-x="808" d="M154 506v205h501v-205h-501z" />
<glyph unicode="&#x2013;" horiz-adv-x="1013" d="M102 496v184h809v-184h-809z" />
<glyph unicode="&#x2014;" horiz-adv-x="1177" d="M-10 496v184h1198v-184h-1198z" />
<glyph unicode="&#x2015;" horiz-adv-x="1177" d="M-10 496v184h1198v-184h-1198z" />
<glyph unicode="&#x2018;" horiz-adv-x="456" d="M72 1081q0 113 62.5 215.5t158.5 161.5l80 -51q-37 -33 -77 -93.5t-48 -119.5q55 -4 96 -44t41 -99q0 -68 -45.5 -112t-106.5 -44q-70 0 -115.5 48t-45.5 138z" />
<glyph unicode="&#x2019;" horiz-adv-x="456" d="M72 1303q0 68 45 111.5t106 43.5q70 0 116 -48t46 -138q0 -113 -62.5 -215.5t-158.5 -161.5l-80 51q37 33 77 93.5t48 119.5q-55 4 -96 44t-41 100z" />
<glyph unicode="&#x201a;" horiz-adv-x="456" d="M72 119q0 68 45 111.5t106 43.5q70 0 116 -48t46 -138q0 -113 -62.5 -215t-158.5 -162l-80 51q37 33 77 93.5t48 119.5q-55 4 -96 44t-41 100z" />
<glyph unicode="&#x201b;" horiz-adv-x="456" d="M72 1272q0 90 46 138t115 48q61 0 106.5 -44t45.5 -111q0 -59 -41 -99.5t-96 -44.5q8 -59 48 -119.5t77 -93.5l-80 -51q-96 59 -158.5 161.5t-62.5 215.5z" />
<glyph unicode="&#x201c;" horiz-adv-x="913" d="M72 1081q0 113 62.5 215.5t158.5 161.5l80 -51q-37 -33 -77 -93.5t-48 -119.5q55 -4 96 -44t41 -99q0 -68 -45.5 -112t-106.5 -44q-70 0 -115.5 48t-45.5 138zM528 1081q0 113 62.5 215.5t159.5 161.5l79 -51q-37 -33 -76.5 -93.5t-47.5 -119.5q55 -4 96 -44t41 -99 q0 -68 -45.5 -112t-106.5 -44q-70 0 -116 48t-46 138z" />
<glyph unicode="&#x201d;" horiz-adv-x="913" d="M72 1303q0 68 45 111.5t106 43.5q70 0 116 -48t46 -138q0 -113 -62.5 -215.5t-158.5 -161.5l-80 51q37 33 77 93.5t48 119.5q-55 4 -96 44t-41 100zM528 1303q0 68 45 111.5t107 43.5q70 0 116 -48t46 -138q0 -113 -62.5 -215.5t-158.5 -161.5l-80 51q37 33 76.5 93.5 t48.5 119.5q-55 4 -96.5 44t-41.5 100z" />
<glyph unicode="&#x201e;" horiz-adv-x="913" d="M72 119q0 68 45 111.5t106 43.5q70 0 116 -48t46 -138q0 -113 -62.5 -215t-158.5 -162l-80 51q37 33 77 93.5t48 119.5q-55 4 -96 44t-41 100zM528 119q0 68 45 111.5t107 43.5q70 0 116 -48t46 -138q0 -113 -62.5 -215t-158.5 -162l-80 51q37 33 76.5 93.5t48.5 119.5 q-55 4 -96.5 44t-41.5 100z" />
<glyph unicode="&#x2020;" horiz-adv-x="1146" d="M133 866v205h113l237 -35l-16 166v256h213v-256l-18 -166l239 35h113v-205h-113l-242 33l21 -211l-64 -977h-81l-68 977l18 211l-239 -33h-113z" />
<glyph unicode="&#x2021;" horiz-adv-x="1146" d="M133 98v205h113l239 -33l-18 211v207l18 211l-239 -33h-113v205h113l237 -35l-16 166v256h213v-256l-18 -166l239 35h113v-205h-113l-242 33l21 -211v-207l-21 -211l242 33h113v-205h-113l-239 35l18 -166v-256h-213v256l16 166l-237 -35h-113z" />
<glyph unicode="&#x2022;" horiz-adv-x="831" d="M123 717q0 119 84 201.5t207 82.5t209 -83.5t86 -200.5t-85 -199t-210 -82q-123 0 -207 82t-84 199z" />
<glyph unicode="&#x2026;" horiz-adv-x="1910" d="M184 104q0 55 39 93.5t94 38.5q57 0 96.5 -39t39.5 -92.5t-39 -91.5t-96.5 -38t-95.5 38t-38 91zM821 104q0 55 38 93.5t95.5 38.5t96.5 -39t39 -92.5t-39 -91.5t-96.5 -38t-95.5 38t-38 91zM1458 104q0 55 39 93.5t94 38.5q57 0 96 -39t39 -92.5t-38.5 -91.5t-96 -38 t-95.5 38t-38 91z" />
<glyph unicode="&#x202f;" horiz-adv-x="435" />
<glyph unicode="&#x2030;" horiz-adv-x="2541" d="M92 1094q0 141 83 252.5t253 111.5t253 -108.5t83 -255.5q0 -88 -29.5 -166t-108.5 -138.5t-198 -60.5q-170 0 -253 108.5t-83 256.5zM264 1094q0 -90 42 -145.5t122 -55.5t122 57.5t42 143.5q0 90 -42 145t-122 55t-122 -56t-42 -144zM285 -25l979 1483h194l-979 -1483 h-194zM979 340q0 141 83 253t253 112t253 -109t83 -256q0 -88 -30 -166t-108.5 -138.5t-197.5 -60.5q-170 0 -253 109t-83 256zM1151 340q0 -90 42 -145.5t122 -55.5t122 57.5t42 143.5q0 90 -42 145.5t-122 55.5t-122 -56.5t-42 -144.5zM1778 340q0 141 83 253t253 112 t252.5 -109t82.5 -256q0 -88 -29.5 -166t-108 -138.5t-197.5 -60.5q-170 0 -253 109t-83 256zM1950 340q0 -90 42 -145.5t121.5 -55.5t121.5 57.5t42 143.5q0 90 -42 145.5t-121.5 55.5t-121.5 -56.5t-42 -144.5z" />
<glyph unicode="&#x2032;" horiz-adv-x="450" d="M72 840l41 655h266l-127 -655h-180z" />
<glyph unicode="&#x2033;" horiz-adv-x="860" d="M72 840l41 655h266l-127 -655h-180zM481 840l41 655h266l-126 -655h-181z" />
<glyph unicode="&#x2039;" horiz-adv-x="634" d="M61 524l312 523h231l-311 -523l311 -524h-231z" />
<glyph unicode="&#x203a;" horiz-adv-x="634" d="M31 0l311 524l-311 523h231l311 -523l-311 -524h-231z" />
<glyph unicode="&#x2044;" horiz-adv-x="681" d="M-246 -25l979 1483h195l-979 -1483h-195z" />
<glyph unicode="&#x205f;" horiz-adv-x="543" />
<glyph unicode="&#x207f;" horiz-adv-x="940" d="M123 580v858h188v-90q80 111 230 110q287 0 286 -366v-512h-186v503q0 201 -158 201q-172 0 -172 -197v-507h-188z" />
<glyph unicode="&#x20a4;" horiz-adv-x="1206" d="M154 426v180h182q-4 59 -35 135h-147v181h75q-14 49 -14 125q0 170 123 290.5t352 120.5q240 0 436 -143l-84 -203q-49 43 -80.5 65.5t-107.5 49t-164 26.5q-127 0 -190.5 -60t-63.5 -146q0 -61 27 -125h405v-181h-333q20 -66 22 -135h311v-180h-329q-39 -129 -152 -221 h758v-205h-981v190q129 68 158 236h-168z" />
<glyph unicode="&#x20ac;" horiz-adv-x="1290" d="M80 444l76 181h90q-2 31 -2 92q0 41 2 63h-164l76 181h110q45 217 175 357t358 140q205 0 375 -123l-84 -202q-137 121 -291 120q-238 0 -309 -292h528l-76 -181h-477q-2 -23 -2 -63q0 -61 2 -92h418l-76 -181h-313q68 -264 284 -264q150 0 250 148l178 -111 q-143 -242 -428 -242q-418 0 -512 469h-188z" />
<glyph unicode="&#x2105;" horiz-adv-x="2125" d="M102 1008q0 211 101.5 330.5t275.5 119.5q256 0 332 -227l-178 -60q-37 113 -144 113q-96 0 -149 -73.5t-53 -202.5q0 -127 52 -201t140 -74q119 0 158 125l172 -53q-70 -248 -328 -248q-180 0 -279.5 119t-99.5 332zM446 -25l979 1483h195l-979 -1483h-195zM1237 424 q0 211 105.5 330.5t285.5 119.5t287.5 -119.5t107.5 -330.5t-106.5 -330t-288.5 -119q-180 0 -285.5 119t-105.5 330zM1421 424q0 -129 55.5 -201.5t151.5 -72.5q100 0 154.5 72.5t54.5 201.5q0 131 -54 203.5t-155 72.5q-96 0 -151.5 -72.5t-55.5 -203.5z" />
<glyph unicode="&#x2113;" horiz-adv-x="952" d="M113 578q86 35 159 84v368q0 233 75 330.5t218 97.5q129 0 212 -81t83 -228q0 -72 -15.5 -137.5t-50 -123t-63.5 -97t-84 -88t-80.5 -69t-81.5 -63.5v-266q0 -80 26 -106.5t81 -26.5q80 0 139 78l60 -139q-49 -61 -127 -98.5t-162 -37.5q-102 0 -166 61.5t-64 192.5v226 q-39 -23 -92 -47zM485 788q162 150 162 330q0 166 -80 166q-47 0 -64.5 -48t-17.5 -194v-254z" />
<glyph unicode="&#x2116;" horiz-adv-x="2424" d="M184 0v1434h215l605 -957q23 -37 59 -110q-6 61 -6 108v959h213v-1434h-201l-620 973q-29 45 -58 106q6 -98 6 -106v-973h-213zM1485 242v159h786v-159h-786zM1485 1008q0 211 105.5 330.5t285.5 119.5t287.5 -119.5t107.5 -330.5t-106.5 -330t-288.5 -119 q-180 0 -285.5 119t-105.5 330zM1669 1008q0 -129 55.5 -202t151.5 -73q100 0 154.5 73t54.5 202q0 131 -54.5 203.5t-154.5 72.5q-96 0 -151.5 -72.5t-55.5 -203.5z" />
<glyph unicode="&#x2122;" horiz-adv-x="1640" d="M41 1286v148h610v-148h-227v-717h-154v717h-229zM725 569v865h149l224 -482l14 -41l14 41l224 482h147v-865h-151v504l-19 -51l-213 -465l-215 465l-20 57v-510h-154z" />
<glyph unicode="&#x2126;" horiz-adv-x="1536" d="M164 0v205h291q-281 209 -281 594q0 96 19.5 186t63.5 177t110.5 152.5t170 104.5t230.5 39t230.5 -39t170 -104.5t110.5 -152.5t63.5 -177t19.5 -186q0 -383 -283 -594h293v-205h-498v186q141 152 204 286t63 325q0 88 -19.5 165.5t-61.5 144.5t-117 106.5t-175 39.5 q-193 0 -283 -134t-90 -324q0 -188 62.5 -322.5t204.5 -286.5v-186h-498z" />
<glyph unicode="&#x212e;" horiz-adv-x="1658" d="M133 717q0 182 59.5 327.5t160 235.5t227.5 137t266 47q276 0 469.5 -197.5t210.5 -561.5h-1043v-443q49 -61 142.5 -103t216.5 -42q305 0 481 274l117 -72q-111 -170 -252 -257t-348 -87q-297 0 -502 205t-205 537zM483 846l703 2v328q-55 63 -148.5 105t-197.5 42 q-219 0 -357 -131v-346z" />
<glyph unicode="&#x2153;" horiz-adv-x="1484" d="M20 -25l979 1483h195l-979 -1483h-195zM31 1264v125q111 0 145 55h135v-864h-168v684h-112zM799 236l168 45q16 -68 58 -103t93 -35q53 0 88 30t35 81q0 47 -32.5 79t-98.5 32h-63v159h61q51 0 76.5 27t25.5 70t-25.5 70.5t-72.5 27.5q-84 0 -119 -101l-164 60 q39 92 113 146.5t174 54.5q123 0 196.5 -73t73.5 -177q0 -113 -100 -178q61 -27 96 -81.5t35 -117.5q0 -123 -84 -195.5t-221 -72.5q-117 0 -197.5 66.5t-115.5 185.5z" />
<glyph unicode="&#x2154;" horiz-adv-x="1812" d="M49 1204q23 111 109 182.5t200 71.5q135 0 215 -73.5t80 -190.5q0 -55 -16 -96t-53 -75t-70 -54.5t-94 -50.5q-119 -61 -170 -179h401v-159h-600q0 172 84 293.5t217 191.5q43 23 63.5 36t40 39.5t19.5 57.5q0 43 -30.5 71.5t-86.5 28.5q-117 0 -143 -133zM348 -25 l979 1483h195l-979 -1483h-195zM1126 236l168 45q16 -68 58.5 -103t93.5 -35q53 0 88 30t35 81q0 47 -33 79t-98 32h-64v159h62q51 0 76.5 27t25.5 70t-25.5 70.5t-72.5 27.5q-84 0 -119 -101l-164 60q39 92 112.5 146.5t174.5 54.5q123 0 196.5 -73t73.5 -177 q0 -113 -100 -178q61 -27 96 -81.5t35 -117.5q0 -123 -84 -195.5t-221 -72.5q-117 0 -198 66.5t-116 185.5z" />
<glyph unicode="&#x215b;" horiz-adv-x="1484" d="M20 -25l979 1483h195l-979 -1483h-195zM31 1264v125q111 0 145 55h135v-864h-168v684h-112zM803 262q0 133 125 209q-88 63 -88 168q0 109 74.5 174.5t195.5 65.5q123 0 196.5 -65.5t73.5 -174.5q0 -104 -86 -168q123 -76 123 -209q0 -125 -84 -201.5t-223 -76.5 q-137 0 -222 76.5t-85 201.5zM973 262q0 -53 39 -88t98 -35q61 0 99 35t38 88q0 55 -38 92t-99 37q-59 0 -98 -37t-39 -92zM1006 639q0 -39 29.5 -65.5t74.5 -26.5q47 0 75.5 26.5t28.5 65.5t-28.5 65.5t-75.5 26.5q-43 0 -73.5 -27.5t-30.5 -64.5z" />
<glyph unicode="&#x215c;" horiz-adv-x="1730" d="M25 815l168 45q16 -68 58 -102.5t93 -34.5q53 0 88 29.5t35 81.5q0 47 -33 78.5t-98 31.5h-64v160h62q51 0 76.5 26.5t25.5 69.5t-25.5 70.5t-72.5 27.5q-84 0 -119 -100l-164 59q39 92 113 146.5t174 54.5q123 0 196.5 -72.5t73.5 -177.5q0 -113 -100 -178 q61 -27 96 -81t35 -118q0 -123 -84 -195.5t-221 -72.5q-117 0 -198 66.5t-115 185.5zM266 -25l979 1483h195l-979 -1483h-195zM1049 262q0 133 125 209q-88 63 -89 168q0 109 75 174.5t196 65.5q123 0 196.5 -65.5t73.5 -174.5q0 -104 -86 -168q123 -76 123 -209 q0 -125 -84 -201.5t-223 -76.5q-137 0 -222 76.5t-85 201.5zM1219 262q0 -53 39 -88t98 -35q61 0 99 35t38 88q0 55 -38 92t-99 37q-59 0 -98 -37t-39 -92zM1251 639q0 -39 30 -65.5t75 -26.5q47 0 75.5 26.5t28.5 65.5t-28.5 65.5t-75.5 26.5q-43 0 -74 -27.5t-31 -64.5z " />
<glyph unicode="&#x215d;" horiz-adv-x="1730" d="M43 655l96 140q96 -70 187 -70q72 0 116.5 40t44.5 103q0 61 -34.5 94t-92.5 33q-84 0 -135 -94l-151 78l24 465h508v-160h-354l-10 -164q57 35 129 35q137 0 212.5 -85t75.5 -198q0 -139 -91.5 -223t-241.5 -84q-174 0 -283 90zM266 -25l979 1483h195l-979 -1483h-195z M1049 262q0 133 125 209q-88 63 -89 168q0 109 75 174.5t196 65.5q123 0 196.5 -65.5t73.5 -174.5q0 -104 -86 -168q123 -76 123 -209q0 -125 -84 -201.5t-223 -76.5q-137 0 -222 76.5t-85 201.5zM1219 262q0 -53 39 -88t98 -35q61 0 99 35t38 88q0 55 -38 92t-99 37 q-59 0 -98 -37t-39 -92zM1251 639q0 -39 30 -65.5t75 -26.5q47 0 75.5 26.5t28.5 65.5t-28.5 65.5t-75.5 26.5q-43 0 -74 -27.5t-31 -64.5z" />
<glyph unicode="&#x215e;" horiz-adv-x="1546" d="M10 1284v160h590v-150q-125 -145 -181.5 -342.5t-58.5 -371.5h-170q2 377 213 704h-393zM82 -25l979 1483h194l-979 -1483h-194zM864 262q0 133 125 209q-88 63 -88 168q0 109 75 174.5t195 65.5q123 0 197 -65.5t74 -174.5q0 -104 -86 -168q123 -76 123 -209 q0 -125 -84.5 -201.5t-223.5 -76.5q-137 0 -222 76.5t-85 201.5zM1034 262q0 -53 39 -88t98 -35q61 0 99.5 35t38.5 88q0 55 -38 92t-100 37q-59 0 -98 -37t-39 -92zM1067 639q0 -39 29.5 -65.5t74.5 -26.5q47 0 76 26.5t29 65.5t-28.5 65.5t-76.5 26.5q-43 0 -73.5 -27.5 t-30.5 -64.5z" />
<glyph unicode="&#x2190;" horiz-adv-x="1597" d="M72 737q0 18 22 35l508 348q27 16 35 17q25 0 25 -23q0 -10 -13 -43l-86 -250l942 25v-215l-942 24l86 -249q12 -33 13 -44q0 -22 -25 -22q-8 0 -35 16l-508 346q-23 14 -22 35z" />
<glyph unicode="&#x2191;" horiz-adv-x="940" d="M72 868q0 8 16 35l348 508q16 23 35 23q20 0 35 -23l346 -508q16 -27 16 -35q0 -25 -22 -24q-10 0 -43 12l-250 86l25 -942h-216l25 942l-250 -86q-33 -12 -43 -12q-23 0 -22 24z" />
<glyph unicode="&#x2192;" horiz-adv-x="1597" d="M92 631v215l942 -25l-86 250q-12 33 -12 43q0 23 25 23q8 0 34 -17l508 -348q23 -16 23 -35q0 -20 -23 -35l-508 -346q-26 -16 -34 -16q-25 0 -25 22q0 10 12 44l86 249z" />
<glyph unicode="&#x2193;" horiz-adv-x="999" d="M84 590q0 25 22 24q10 0 44 -12l266 -92l-25 924h215l-24 -924l266 92q33 12 43 12q23 0 22 -24q0 -8 -16 -35l-362 -532q-15 -23 -35.5 -23t-34.5 23l-365 532q-16 27 -16 35z" />
<glyph unicode="&#x2194;" horiz-adv-x="1935" d="M72 737q0 18 22 35l508 348q27 16 35 17q25 0 25 -23q0 -10 -13 -43l-84 -244h805l-84 244q-12 33 -12 43q0 23 24 23q8 0 35 -17l508 -348q23 -16 23 -35q0 -20 -23 -35l-508 -346q-27 -16 -35 -16q-25 0 -24 22q0 10 12 44l84 243h-805l84 -243q12 -33 13 -44 q0 -23 -25 -22q-8 0 -35 16l-508 346q-23 14 -22 35z" />
<glyph unicode="&#x2195;" horiz-adv-x="999" d="M100 217q0 25 23 25q10 0 43 -13l244 -84v930l-244 -84q-33 -12 -43 -12q-23 0 -23 25q0 8 17 34l346 508q14 23 35 23q18 0 34 -23l349 -508q16 -27 16 -34q0 -25 -23 -25q-10 0 -43 12l-243 84v-930l243 84q33 12 43 13q23 0 23 -25q0 -8 -16 -35l-349 -508 q-16 -22 -34 -22q-20 0 -35 22l-346 508q-16 27 -17 35z" />
<glyph unicode="&#x2196;" horiz-adv-x="1255" d="M102 1200q0 14 10.5 23.5t24.5 9.5q2 0 39 -6l584 -109q45 -8 45 -28q0 -16 -47 -39l-238 -117l684 -647l-151 -154l-650 684l-114 -237q-23 -45 -39 -45q-23 0 -33 53l-106 561q-8 45 -9 51z" />
<glyph unicode="&#x2197;" horiz-adv-x="1255" d="M51 287l684 647l-237 117q-47 23 -47 39q0 20 45 28l583 109q37 6 39 6q14 0 24.5 -9.5t10.5 -23.5q0 -6 -8 -51l-107 -561q-10 -53 -32 -53q-16 0 -39 45l-115 237l-649 -684z" />
<glyph unicode="&#x2198;" horiz-adv-x="1255" d="M51 1079l152 154l649 -684l115 237q23 45 39 45q23 0 32 -53l107 -561q8 -45 8 -51q0 -14 -10.5 -23.5t-24.5 -9.5q-2 0 -39 6l-583 109q-45 8 -45 28q0 14 47 39l237 117z" />
<glyph unicode="&#x2199;" horiz-adv-x="1255" d="M102 166q0 6 9 51l106 561q10 53 33 53q16 0 39 -45l114 -237l650 684l151 -154l-684 -647l238 -117q47 -25 47 -39q0 -20 -45 -28l-584 -109q-37 -6 -39 -6q-14 0 -24.5 9.5t-10.5 23.5z" />
<glyph unicode="&#x21b3;" horiz-adv-x="1482" d="M156 350v1084h178v-906h584l-84 244q-12 33 -13 43q0 23 25 23q8 0 35 -17l508 -348q23 -16 22 -35q0 -20 -22 -35l-508 -346q-27 -16 -35 -16q-25 0 -25 22q0 10 13 43l84 244h-762z" />
<glyph unicode="&#x21b4;" horiz-adv-x="1482" d="M156 1266v168h950v-869l240 82q33 12 43 12q23 0 22 -24q0 -8 -16 -35l-346 -508q-14 -23 -35 -22q-18 0 -35 22l-348 508q-16 27 -17 35q0 25 23 24q10 0 43 -12l240 -82v701h-764z" />
<glyph unicode="&#x21b5;" horiz-adv-x="1482" d="M72 438q0 18 22 35l508 348q27 16 35 17q25 0 25 -23q0 -10 -13 -43l-84 -244h584v906h178v-1084h-762l84 -244q12 -33 13 -43q0 -23 -25 -22q-8 0 -35 16l-508 346q-23 14 -22 35z" />
<glyph unicode="&#x21b6;" horiz-adv-x="1640" d="M72 874q0 25 22 25q10 0 43 -12l240 -82v72q0 266 150.5 423.5t394 157.5t394 -157.5t150.5 -423.5v-877h-186v877q0 188 -97.5 296.5t-260.5 108.5q-166 0 -262.5 -107.5t-96.5 -297.5v-72l240 82q33 12 43 12q23 0 22 -25q0 -8 -16 -34l-346 -508q-14 -23 -35 -23 q-18 0 -35 23l-348 508q-16 27 -16 34z" />
<glyph unicode="&#x21b7;" horiz-adv-x="1640" d="M174 0v877q0 266 150.5 423.5t394.5 157.5t394.5 -157.5t150.5 -423.5v-72l239 82q33 12 43 12q23 0 23 -25q0 -8 -17 -34l-348 -508q-16 -23 -35 -23q-20 0 -34 23l-347 508q-16 27 -16 34q0 25 23 25q10 0 43 -12l239 -82v72q0 190 -96 297.5t-262 107.5 q-164 0 -261.5 -108.5t-97.5 -296.5v-877h-186z" />
<glyph unicode="&#x21b8;" horiz-adv-x="1255" d="M102 1032q0 14 10.5 23.5t24.5 9.5q2 0 39 -6l584 -109q45 -8 45 -28q0 -16 -47 -39l-238 -117l684 -647l-151 -154l-650 684l-114 -237q-23 -45 -39 -45q-23 0 -33 53l-106 561q-8 45 -9 51zM102 1266v168h1102v-168h-1102z" />
<glyph unicode="&#x21b9;" horiz-adv-x="1878" d="M156 35l749 -25l-86 250q-12 33 -12 43q0 23 24 23q8 0 35 -17l508 -348q23 -16 23 -35q0 -20 -23 -35l-508 -346q-27 -16 -35 -16q-25 0 -24 22q0 10 12 43l86 250l-749 -24v215zM156 719v756h213v-756h-213zM481 1096q0 18 23 34l508 349q27 16 35 16q25 0 24 -22 q0 -10 -12 -43l-86 -250l749 24v-215l-749 25l86 -250q12 -33 12 -43q1 -23 -24 -23q-8 0 -35 17l-508 346q-23 14 -23 35zM1509 305h213v-756h-213v756z" />
<glyph unicode="&#x21ba;" horiz-adv-x="1732" d="M205 717q0 276 194 467l129 -129q-141 -141 -141 -338q0 -199 141.5 -340t338 -141t338 141t141.5 340q0 178 -119 313l-109 -225q-23 -45 -39 -45q-23 0 -32 53l-107 561q-8 45 -8 51q0 14 10 23.5t25 9.5q2 0 39 -6l583 -109q45 -8 45 -28q0 -16 -47 -39l-231 -115 q172 -184 172 -444q0 -274 -194.5 -468t-467 -194t-467 193.5t-194.5 468.5z" />
<glyph unicode="&#x21da;" horiz-adv-x="1597" d="M72 737q0 18 22 35l508 348q27 16 35 17q25 0 25 -23q0 -10 -13 -43l-33 -96h889v-103h-925l-27 -81h952v-103h-952l27 -82h925v-102h-889l33 -98q12 -33 13 -44q0 -23 -25 -22q-8 0 -35 16l-508 346q-23 14 -22 35z" />
<glyph unicode="&#x21db;" horiz-adv-x="1597" d="M92 504v102h926l26 82h-952v103h952l-26 81h-926v103h889l-33 96q-12 33 -12 43q0 23 25 23q8 0 34 -17l508 -348q23 -16 23 -35q0 -20 -23 -35l-508 -346q-27 -16 -34 -16q-25 0 -25 22q0 10 12 44l33 98h-889z" />
<glyph unicode="&#x21dc;" horiz-adv-x="1597" d="M72 737q0 18 22 35l508 348q27 16 35 17q25 0 25 -23q0 -10 -13 -43l-84 -244h215l37 -110l80 246h131l80 -246l80 246h131l43 -136h143v-178h-217l-35 109l-79 -246h-132l-79 248l-80 -248h-131l-45 137h-142l84 -243q12 -33 13 -44q0 -23 -25 -22q-8 0 -35 16l-508 346 q-23 14 -22 35z" />
<glyph unicode="&#x21dd;" horiz-adv-x="1597" d="M92 649v178h144l43 136h131l79 -246l80 246h131l80 -246l37 110h215l-84 244q-12 33 -12 43q0 23 25 23q8 0 34 -17l508 -348q23 -16 23 -35q0 -20 -23 -35l-508 -346q-27 -16 -34 -16q-25 0 -25 22q0 10 12 44l84 243h-141l-45 -137h-131l-80 248l-80 -248h-131l-80 246 l-35 -109h-217z" />
<glyph unicode="&#x21de;" horiz-adv-x="940" d="M72 868q0 8 16 35l348 508q16 23 35 23q20 0 35 -23l346 -508q16 -27 16 -35q0 -25 -22 -24q-10 0 -43 12l-244 84v-207h287v-168h-287v-155h287v-168h-287v-242h-178v242h-287v168h287v155h-287v168h287v207l-244 -84q-33 -12 -43 -12q-23 0 -22 24z" />
<glyph unicode="&#x21df;" horiz-adv-x="940" d="M72 565q0 25 22 25q10 0 43 -12l244 -84v206h-287v168h287v156h-287v168h287v242h178v-242h287v-168h-287v-156h287v-168h-287v-206l244 84q33 12 43 12q23 0 22 -25q0 -8 -16 -35l-346 -507q-14 -23 -35 -23q-18 0 -35 23l-348 507q-16 27 -16 35z" />
<glyph unicode="&#x21e0;" horiz-adv-x="1597" d="M72 737q0 18 22 35l508 348q27 16 35 17q25 0 25 -23q-1 -10 -13 -43l-84 -244h162v-178h-162l84 -243q12 -33 13 -44q0 -23 -25 -22q-8 0 -35 16l-508 346q-23 14 -22 35zM891 649v178h225v-178h-225zM1280 649v178h225v-178h-225z" />
<glyph unicode="&#x21e1;" horiz-adv-x="940" d="M72 868q0 8 16 35l348 508q16 23 35 23q20 0 35 -23l346 -508q16 -27 16 -35q0 -25 -22 -24q-10 0 -43 12l-244 84v-170h-178v170l-244 -84q-33 -12 -43 -12q-23 0 -22 24zM381 0v221h178v-221h-178zM381 385v221h178v-221h-178z" />
<glyph unicode="&#x21e2;" horiz-adv-x="1597" d="M92 649v178h225v-178h-225zM481 649v178h226v-178h-226zM870 649v178h162l-84 244q-12 33 -12 43q0 23 25 23q8 0 34 -17l508 -348q23 -16 23 -35q0 -20 -23 -35l-508 -346q-27 -16 -34 -16q-25 0 -25 22q0 10 12 44l84 243h-162z" />
<glyph unicode="&#x21e3;" horiz-adv-x="940" d="M72 565q0 25 22 25q10 0 43 -12l244 -84v153h178v-153l244 84q33 12 43 12q23 0 22 -25q0 -8 -16 -35l-346 -507q-14 -23 -35 -23q-18 0 -35 23l-348 507q-16 27 -16 35zM381 811v229h178v-229h-178zM381 1204v230h178v-230h-178z" />
<glyph unicode="&#x21e4;" horiz-adv-x="1751" d="M156 213v1047h213v-1047h-213zM481 737q0 18 23 35l508 348q27 16 35 17q25 0 24 -23q0 -10 -12 -43l-86 -250l686 25v-215l-686 24l86 -249q12 -33 12 -44q1 -22 -24 -22q-8 0 -35 16l-508 346q-23 14 -23 35z" />
<glyph unicode="&#x21e5;" horiz-adv-x="1751" d="M92 631v215l686 -25l-86 250q-12 33 -12 43q0 23 25 23q8 0 34 -17l508 -348q23 -16 23 -35q0 -20 -23 -35l-508 -346q-26 -16 -34 -16q-25 0 -25 22q0 10 12 44l86 249zM1382 213v1047h213v-1047h-213z" />
<glyph unicode="&#x2202;" horiz-adv-x="1193" d="M61 406q0 219 146.5 357t347.5 138q205 0 313 -147q0 53 -6 98q-27 201 -154.5 299t-308.5 106l52 201q332 -35 481 -227.5t149 -548.5q0 -143 -31.5 -265t-97 -223.5t-179 -160t-263.5 -58.5q-203 0 -326 117t-123 314zM279 422q0 -113 65 -177.5t174 -64.5 q139 0 223 79t84 204q0 115 -66.5 174t-187.5 59q-131 0 -211.5 -75.5t-80.5 -198.5z" />
<glyph unicode="&#x2206;" horiz-adv-x="1425" d="M86 0l518 1434h219l516 -1434h-1253zM379 205h670l-285 801q-41 123 -49 161q-23 -92 -49 -161z" />
<glyph unicode="&#x220f;" horiz-adv-x="1468" d="M184 -287v1721h1100v-1721h-213v1516h-674v-1516h-213z" />
<glyph unicode="&#x2211;" horiz-adv-x="1253" d="M92 -94l504 688l-475 647v193h1022v-205h-750l469 -635l-495 -676h815v-205h-1090v193z" />
<glyph unicode="&#x2212;" horiz-adv-x="1290" d="M164 600v205h962v-205h-962z" />
<glyph unicode="&#x2215;" horiz-adv-x="681" d="M-246 -25l979 1483h195l-979 -1483h-195z" />
<glyph unicode="&#x2219;" horiz-adv-x="456" d="M74 714.5q0 61.5 44 106.5t109 45q63 0 109.5 -45t46.5 -106.5t-46.5 -105.5t-109.5 -44q-66 0 -109.5 44t-43.5 105.5z" />
<glyph unicode="&#x221a;" horiz-adv-x="1138" d="M92 700h225l211 -409l330 1143h219l-436 -1434h-180z" />
<glyph unicode="&#x221e;" horiz-adv-x="2048" d="M72 717q0 221 138 349t349 128q291 0 465 -295q170 295 461 295q213 0 352 -128t139 -349t-138 -348t-349 -127q-297 0 -465 293q-172 -293 -465 -293q-211 0 -349 127t-138 348zM285 717q0 -127 79.5 -201t204.5 -74q209 0 363 275q-156 276 -363 276 q-125 0 -204.5 -74.5t-79.5 -201.5zM1116 717q154 -275 363 -275q125 0 204.5 74t79.5 201t-79.5 201.5t-204.5 74.5q-207 0 -363 -276z" />
<glyph unicode="&#x222b;" horiz-adv-x="860" d="M82 -70q92 -33 149 -32q92 0 93 94v1222q0 244 239 244q117 0 215 -49v-168q-92 33 -149 33q-92 0 -92 -94v-1223q0 -244 -240 -244q-117 0 -215 49v168z" />
<glyph unicode="&#x2248;" horiz-adv-x="1290" d="M164 332q0 139 67.5 231t206.5 92q94 0 226.5 -59t185.5 -59t86 32.5t37 85.5h153q0 -139 -67.5 -231t-206.5 -92q-94 0 -226 59.5t-185.5 59.5t-86 -33t-37.5 -86h-153zM164 752q0 139 67.5 231t206.5 92q94 0 226.5 -59.5t185.5 -59.5t86 33t37 86h153 q0 -139 -67.5 -231t-206.5 -92q-94 0 -226 59t-185.5 59t-86 -32.5t-37.5 -85.5h-153z" />
<glyph unicode="&#x2260;" horiz-adv-x="1290" d="M164 399v209h323l88 189h-411v209h508l84 178h225l-84 -178h229v-209h-325l-88 -189h413v-209h-512l-82 -178h-225l82 178h-225z" />
<glyph unicode="&#x2264;" horiz-adv-x="1290" d="M164 0v205h962v-205h-962zM164 702v181l962 350v-215l-671 -225l671 -226v-215z" />
<glyph unicode="&#x2265;" horiz-adv-x="1290" d="M164 0v205h962v-205h-962zM164 352v215l672 226l-672 225v215l962 -350v-181z" />
<glyph unicode="&#x25ca;" horiz-adv-x="1228" d="M113 717l411 741h181l411 -741l-411 -742h-181zM332 717l282 -471l283 471l-283 471z" />
<glyph unicode="&#x25cc;" horiz-adv-x="1318" d="M113 735q0 29 18.5 46.5t47 17.5t45 -17.5t16.5 -46.5q0 -27 -17.5 -44t-44.5 -17q-29 0 -47 17t-18 44zM152 551q0 27 18 45t45 18t44 -18t17 -45t-17 -45.5t-44 -18.5t-45 18.5t-18 45.5zM152 919.5q0 26.5 18 45t45 18.5t45.5 -18.5t18.5 -45t-19.5 -45t-44.5 -18.5 q-27 0 -45 18.5t-18 45zM256 395.5q0 26.5 17.5 45t45.5 18.5q27 0 44.5 -17.5t17.5 -46.5q0 -27 -16.5 -44t-45 -17t-46 17.5t-17.5 44zM256 1077q0 27 17.5 44.5t46 17.5t45 -16.5t16.5 -45t-16.5 -46t-45 -17.5t-46 17t-17.5 46zM412 293q0 27 18.5 44t46.5 17 q27 0 44.5 -17.5t17.5 -44t-18.5 -46t-43.5 -19.5q-29 0 -47 18.5t-18 47.5zM412 1180q0 29 17 47t46 18q27 0 44.5 -18.5t17.5 -46.5q0 -27 -17.5 -44.5t-44 -17.5t-45 17.5t-18.5 44.5zM598 254q0 29 17.5 46t44 17t44 -17t17.5 -46t-17.5 -46.5t-44 -17.5t-44 17.5 t-17.5 46.5zM598 1216.5q0 28.5 17.5 47t44 18.5t44 -18.5t17.5 -47t-16.5 -45t-45 -16.5t-45 16.5t-16.5 45zM780 1179.5q0 26.5 18.5 45t43.5 18.5q29 0 47 -17.5t18 -45.5q0 -27 -18.5 -44.5t-46.5 -17.5q-27 0 -44.5 17.5t-17.5 44zM782 290.5q0 26.5 17.5 45t44.5 18.5 q29 0 46 -17.5t17 -46t-17.5 -46t-45.5 -17.5q-27 0 -44.5 18.5t-17.5 45zM938 395q0 29 17.5 46.5t43.5 17.5q29 0 46.5 -18.5t17.5 -45t-17.5 -44t-46 -17.5t-45 17t-16.5 44zM938 1077.5q0 28.5 16.5 45t45 16.5t46 -17.5t17.5 -44.5q0 -29 -17.5 -46t-46 -17t-45 17.5 t-16.5 46zM1040 553q0 27 18.5 44t45 17t45 -17t18.5 -44q0 -29 -18.5 -46.5t-45 -17.5t-45 17.5t-18.5 46.5zM1042 919.5q0 26.5 17.5 46t44 19.5t45 -19.5t18.5 -46t-18.5 -44t-45 -17.5t-44 17.5t-17.5 44zM1079 735q0 29 16.5 46.5t45.5 17.5q27 0 46 -17.5t19 -46.5 q0 -27 -19.5 -44t-46 -17t-44 17t-17.5 44z" />
<glyph unicode="&#x25fc;" horiz-adv-x="1044" d="M0 0v1044h1044v-1044h-1044z" />
<glyph unicode="&#xf6c3;" horiz-adv-x="0" d="M-543 1042q59 123 60 453h207v-16q0 -289 -201 -486z" />
<glyph unicode="&#x1f3a9;" horiz-adv-x="1914" d="M82 610q0 61 27.5 110.5t83 87.5t114 63.5t144.5 56.5q41 154 139 389q49 113 125 113q63 0 133 -34t113 -34q37 0 110.5 34t132.5 34q78 0 109 -89q133 -362 147 -413q373 -106 373 -326q0 -223 -262 -403.5t-631 -180.5q-346 0 -602 180.5t-256 411.5zM408 791 q0 -23 17 -64t61 -94t104.5 -99.5t158 -78t212.5 -31.5q127 0 235.5 42t172 102.5t99 120t35.5 99.5q0 23 -14 62l-29 76q-61 -115 -208.5 -186.5t-297.5 -71.5q-131 0 -279.5 63.5t-223.5 194.5l-39 -113q-4 -16 -4 -22z" />
<glyph unicode="&#x1f427;" horiz-adv-x="1445" d="M102 121q0 14 12.5 40.5t12.5 45.5q0 20 -9 47t-9 37q0 33 34 37q10 4 56 8q59 12 59 70q4 -25 4 -29q0 -27 -21.5 -45.5t-50.5 -18.5h-38q-25 0 -25 -18q0 -14 12.5 -45t12.5 -49q0 -14 -11.5 -40t-11.5 -40.5t14 -20.5q6 -2 110.5 -25.5t170.5 -43.5q18 -6 39 -6 q90 0 90 67q0 49 -41 117q-152 238 -205 237q-10 0 -16 -3t-8 -6t-4 -3q-8 0 -9 39q0 33 15 62q16 25 33.5 67.5t23.5 54.5q20 72 43 107q6 14 23 35q12 16 39.5 53t41.5 55q27 51 27 74q0 2 -1 8t-1 10q-8 104 -8 256q0 92 57.5 140.5t134.5 48.5q76 0 130.5 -27.5 t79 -70.5t34.5 -82t10 -78v-33q0 -178 117 -305q72 -76 121 -213q25 -72 27 -127q4 -20 4 -31q0 -51 -50 -84q-47 -68 -94 -67q-18 0 -35 8q-20 6 -39.5 43t-31.5 37q-31 0 -31 -62q0 -18 7 -60t7 -69q0 -20 -5 -60t-5 -63q0 -29 23.5 -51t56.5 -22q35 0 63 28q74 61 156 88 q2 0 20.5 7.5t30 11.5t22.5 14t11 21q0 14 -18.5 25t-39 19.5t-39 32t-18.5 58.5q0 33 11 47q4 -37 8 -53q14 -45 63 -75t49 -50q0 -33 -83 -76q-70 -35 -113 -64l-64 -53q-18 -18 -73 -18q-57 0 -87 35.5t-49 35.5q-14 0 -46.5 2.5t-49.5 2.5q-18 0 -56 -2.5t-58 -2.5 q-57 0 -114 -35.5t-75 -35.5q-8 0 -38.5 9t-72.5 23.5t-71 20.5q-25 6 -70 15.5t-59 13.5q-6 2 -16.5 5t-12.5 3q-33 8 -33 41zM346 547q0 -35 16 -68q2 -20 25 -39q37 -31 68 -63l108 -86q18 -16 19 -39q0 -16 -12.5 -30.5t-20.5 -14.5q-16 0 -17 -6q0 -2 5.5 -8.5 t12.5 -15.5t11 -15q23 -35 25 -94q18 10 18 32q0 14 -8 29.5t-16 26.5l-9 10q0 10 17 10q4 0 14 -8t36 -16.5t69 -8.5q51 0 103 19.5t71 58.5q10 20 24 21q8 0 8 -29q0 -47 -16 -88q-6 -31 -6 -33q0 -12 20 -12q6 47 12.5 81t8.5 47t2 30q0 14 -4 37.5t-8 41.5l-2 19 q0 90 57 90q6 0 6 6q2 23 24.5 36t49.5 13q14 0 32.5 -8t28.5 -10q-6 10 -23.5 21.5t-21.5 13.5q12 37 12 73q0 57 -28.5 134t-77.5 100q92 -119 92 -242q0 -16 -4 -41q-8 -39 -55 -39q-23 0 -23 45q0 178 -76 260q-16 80 -63 150q-16 16 -16 49v12q12 31 12 45.5 t-11.5 22.5t-34 13t-28.5 10q-6 6 -17.5 9t-17.5 10t-6 24q0 57 43 57q18 0 29.5 -14.5t11.5 -34.5q0 -16 -4 -26.5t-4 -12.5q0 -8 27 -8q12 4 14 12q0 70 -14 96q-23 35 -54 35q-29 0 -53.5 -19.5t-24.5 -48.5q0 -35 5 -51q-10 8 -37 8h-17q-12 0 -12 11q0 92 -51 92 q-18 0 -33.5 -24.5t-15.5 -51.5q0 -16 8 -39.5t20 -23.5l15 12q-25 0 -25 45q0 41 31 41t31 -55q0 -12 -11 -19q-14 -18 -47 -43q-10 -8 -14 -22q-6 -4 -6 -7q0 -8 12 -12q8 -12 16.5 -20.5t14.5 -12.5t8 -6q8 -8 33 -8h14q23 0 80 14q31 6 50.5 17.5t27.5 19.5l8 8l2 -2h4 q6 0 6 -8t-12 -16q-66 -25 -86 -33q-53 -23 -90 -22q-2 0 -9.5 2t-11.5 2h-18q27 -35 59 -35q47 0 125 51q2 0 6 1t9.5 3t11.5 4q2 0 8 -6q0 -10 -23 -22q-33 -14 -90 -56q-29 -29 -53 -28q-31 0 -45 24l-43 60q-6 -6 -6 -8.5t1 -6.5t1 -6q0 -6 -14 -35q-41 -82 -41 -106 q0 -8 4 -20.5t4 -16.5q-14 -8 -27 -37q-61 -106 -61 -186q0 -20 2 -33q0 -2 -3 -14.5t-3 -22.5q-2 -10 -13 -10q-6 0 -10 4t-11 16.5t-11 18.5q-10 23 -11 53q0 10 4 39v8q-16 -8 -16 -51zM590 1159q8 0 8 -18q0 -8 6 -8q4 4 4 8q0 8 -4 18t-8 10q-6 0 -6 -10zM612 1102 q16 8 19 12q-4 -12 -6 -14l-7 -6q-4 0 -6 8zM692 1114q4 -4 15 -4v-8q-1 -4 -7 -4q-6 6 -8 16zM776 1171q17 -10 17 -30h8q2 2 2 12q0 6 -12 18q-4 4 -8.5 4.5t-6.5 -4.5z" />
<glyph horiz-adv-x="524" d="M133 1339.5q0 53.5 38 91t91 37.5t91 -37.5t38 -91t-38 -91.5t-91 -38t-91 38t-38 91.5zM156 0v1047h213v-1047h-213z" />
<glyph d="M51 246l185 90q76 -156 270 -156q119 0 191.5 71t72.5 259v924h213v-953q0 -143 -43 -246.5t-115.5 -157.5t-151.5 -78t-167 -24q-156 0 -274.5 70t-180.5 201zM623 1567l290 319h291l-364 -319h-217z" />
<glyph horiz-adv-x="524" d="M-129 -281q162 35 223.5 90.5t61.5 167.5v1070h213v-998q0 -229 -99 -332q-109 -114 -297 -155zM45 1180l291 319h291l-365 -319h-217z" />
<glyph horiz-adv-x="786" d="M78 432q0 82 15.5 156t49 142.5t98 108.5t152.5 40q168 0 242 -130.5t74 -316.5q0 -82 -14.5 -154.5t-48.5 -141t-98.5 -109.5t-154.5 -41q-168 0 -241.5 130t-73.5 316zM250 432q0 -119 33.5 -200.5t109.5 -81.5q53 0 87 46t45.5 105t11.5 131q0 119 -34 201t-110 82 q-53 0 -87 -45t-45 -104.5t-11 -133.5z" />
<glyph horiz-adv-x="409" d="M20 684v125q111 0 146 55h135v-864h-168v684h-113z" />
<glyph horiz-adv-x="731" d="M49 625q23 111 109 182.5t200 71.5q135 0 215 -74t80 -191q0 -55 -16 -96t-53 -74.5t-70 -54t-94 -51.5q-119 -61 -170 -178h401v-160h-600q0 172 84 294t217 191q43 23 63.5 36.5t40 40t19.5 56.5q0 43 -30.5 72t-86.5 29q-117 0 -143 -133z" />
<glyph horiz-adv-x="710" d="M25 236l168 45q16 -68 58 -103t93 -35q53 0 88 30t35 81q0 47 -33 79t-98 32h-64v159h62q51 0 76.5 27t25.5 70t-25.5 70.5t-72.5 27.5q-84 0 -119 -101l-164 60q39 92 113 146.5t174 54.5q123 0 196.5 -73t73.5 -177q0 -113 -100 -178q61 -27 96 -81.5t35 -117.5 q0 -123 -84 -195.5t-221 -72.5q-117 0 -198 66.5t-115 185.5z" />
<glyph horiz-adv-x="770" d="M14 176v109l441 581h157v-532h111v-158h-111v-176h-163v176h-435zM225 334h224v291z" />
<glyph horiz-adv-x="716" d="M43 76l96 139q96 -70 187 -70q72 0 116.5 40t44.5 104q0 61 -34.5 94t-92.5 33q-84 0 -135 -94l-151 77l24 465h508v-159h-354l-10 -164q57 35 129 34q137 0 212.5 -84.5t75.5 -197.5q0 -139 -91.5 -223t-241.5 -84q-174 0 -283 90z" />
<glyph horiz-adv-x="724" d="M72 332q0 221 122.5 364.5t370.5 182.5v-160q-229 -39 -291 -203q55 31 138 31q119 0 195.5 -76t76.5 -205q0 -127 -84 -203.5t-221 -76.5q-152 0 -229.5 94t-77.5 252zM246 266q0 -55 37 -88t96 -33q61 0 99 33t38 88q0 57 -38 89t-99.5 32t-97 -31.5t-35.5 -89.5z" />
<glyph horiz-adv-x="620" d="M10 705v159h590v-149q-125 -145 -181.5 -343t-58.5 -372h-170q2 377 213 705h-393z" />
<glyph horiz-adv-x="747" d="M66 262q0 133 124 209q-88 63 -88 168q0 109 75 174.5t196 65.5q123 0 196.5 -65.5t73.5 -174.5q0 -104 -86 -168q123 -76 123 -209q0 -125 -84 -201.5t-223 -76.5q-137 0 -222 76.5t-85 201.5zM236 262q0 -53 39 -88t98 -35q61 0 99 35t38 88q0 55 -38 92t-99 37 q-59 0 -98 -37t-39 -92zM268 639q0 -39 30 -65.5t75 -26.5q47 0 75.5 26.5t28.5 65.5t-28.5 65.5t-75.5 26.5q-43 0 -74 -27.5t-31 -64.5z" />
<glyph horiz-adv-x="724" d="M41 596q0 127 86 205t221 78q154 0 234 -92.5t80 -243.5q0 -248 -120 -396.5t-356 -160.5v159q213 16 273 207q-51 -37 -131 -37q-129 0 -208 76t-79 205zM213 596q0 -57 36 -89t97 -32q66 0 102.5 33t36.5 90q0 55 -37.5 88t-99 33t-98.5 -34t-37 -89z" />
<glyph horiz-adv-x="786" d="M78 1012q0 82 15.5 155.5t49 142t98 108.5t152.5 40q168 0 242 -130t74 -316q0 -82 -14.5 -155t-48.5 -141.5t-98.5 -109.5t-154.5 -41q-168 0 -241.5 130t-73.5 317zM250 1012q0 -119 33.5 -201t109.5 -82q53 0 87 46t45.5 105.5t11.5 131.5q0 119 -34 200.5t-110 81.5 q-53 0 -87 -45t-45 -104.5t-11 -132.5z" />
<glyph horiz-adv-x="409" d="M20 1264v125q111 0 146 55h135v-864h-168v684h-113z" />
<glyph horiz-adv-x="731" d="M49 1204q23 111 109 182.5t200 71.5q135 0 215 -73.5t80 -190.5q0 -55 -16 -96t-53 -75t-70 -54.5t-94 -50.5q-119 -61 -170 -179h401v-159h-600q0 172 84 293.5t217 191.5q43 23 63.5 36t40 39.5t19.5 57.5q0 43 -30.5 71.5t-86.5 28.5q-117 0 -143 -133z" />
<glyph horiz-adv-x="710" d="M25 815l168 45q16 -68 58 -102.5t93 -34.5q53 0 88 29.5t35 81.5q0 47 -33 78.5t-98 31.5h-64v160h62q51 0 76.5 26.5t25.5 69.5t-25.5 70.5t-72.5 27.5q-84 0 -119 -100l-164 59q39 92 113 146.5t174 54.5q123 0 196.5 -72.5t73.5 -177.5q0 -113 -100 -178 q61 -27 96 -81t35 -118q0 -123 -84 -195.5t-221 -72.5q-117 0 -198 66.5t-115 185.5z" />
<glyph horiz-adv-x="770" d="M14 756v108l441 582h157v-533h111v-157h-111v-176h-163v176h-435zM225 913h224v291z" />
<glyph horiz-adv-x="716" d="M43 655l96 140q96 -70 187 -70q72 0 116.5 40t44.5 103q0 61 -34.5 94t-92.5 33q-84 0 -135 -94l-151 78l24 465h508v-160h-354l-10 -164q57 35 129 35q137 0 212.5 -85t75.5 -198q0 -139 -91.5 -223t-241.5 -84q-174 0 -283 90z" />
<glyph horiz-adv-x="724" d="M72 911q0 221 122.5 364.5t370.5 182.5v-160q-229 -39 -291 -202q55 31 138 30q119 0 195.5 -75.5t76.5 -204.5q0 -127 -84 -204t-221 -77q-152 0 -229.5 94.5t-77.5 251.5zM246 846q0 -55 37 -88t96 -33q61 0 99 33t38 88q0 57 -38 89t-99.5 32t-97 -32t-35.5 -89z" />
<glyph horiz-adv-x="620" d="M10 1284v160h590v-150q-125 -145 -181.5 -342.5t-58.5 -371.5h-170q2 377 213 704h-393z" />
<glyph horiz-adv-x="747" d="M66 842q0 133 124 209q-88 63 -88 168q0 109 75 174t196 65q123 0 196.5 -65.5t73.5 -173.5q0 -104 -86 -168q123 -76 123 -209q0 -125 -84 -202t-223 -77q-137 0 -222 77t-85 202zM236 842q0 -53 39 -88t98 -35q61 0 99 34.5t38 88.5q0 55 -38 92t-99 37q-59 0 -98 -37 t-39 -92zM268 1219q0 -39 30 -66t75 -27q47 0 75.5 27t28.5 65.5t-28.5 65.5t-75.5 27q-43 0 -74 -28t-31 -64z" />
<glyph horiz-adv-x="724" d="M41 1176q0 127 86 204.5t221 77.5q154 0 234 -92t80 -244q0 -248 -120 -396.5t-356 -160.5v160q213 16 273 207q-51 -37 -131 -37q-129 0 -208 76t-79 205zM213 1176q0 -57 36 -89t97 -32q66 0 102.5 32.5t36.5 90.5q0 55 -37.5 87.5t-99 32.5t-98.5 -33.5t-37 -88.5z " />
</font>
</defs>
</svg>
